LibreFranklin-Bold.ufo
<glyph name="exclam" format="2">
  <advance width="264.0625"/>
  <unicode hex="0021"/>
  <outline>
    <contour>
      <point x="213.97500000000002" y="23.825000000000003" type="curve"/>
      <point x="213.97500000000002" y="146.525" type="line"/>
      <point x="213.97500000000002" y="157.5125"/>
      <point x="209.125" y="163.075"/>
      <point x="199.1375" y="163.075" type="curve"/>
      <point x="62.075" y="163.075" type="line" smooth="yes"/>
      <point x="53.0875" y="163.075"/>
      <point x="46.525" y="157.5125"/>
      <point x="46.525" y="144.8125" type="curve"/>
      <point x="46.525" y="20.6875" type="line" smooth="yes"/>
      <point x="46.525" y="6.5625"/>
      <point x="52.0875" y="0.0"/>
      <point x="68.6375" y="0.0" type="curve"/>
      <point x="186.725" y="0.0" type="line" smooth="yes"/>
      <point x="206.7" y="0.0"/>
      <point x="213.97500000000002" y="6.5625"/>
    </contour>
    <contour>
      <point x="181.875" y="254.325" type="curve"/>
      <point x="219.2375" y="725.3125" type="line"/>
      <point x="219.95" y="735.4375"/>
      <point x="213.675" y="742.0"/>
      <point x="204.6875" y="742.0" type="curve"/>
      <point x="57.949999999999996" y="742.0" type="line" smooth="yes"/>
      <point x="48.5375" y="742.0"/>
      <point x="41.55" y="735.725"/>
      <point x="42.975" y="723.6" type="curve"/>
      <point x="81.475" y="251.9" type="line" smooth="yes"/>
      <point x="82.9" y="238.35000000000002"/>
      <point x="86.325" y="232.075"/>
      <point x="102.3" y="232.075" type="curve"/>
      <point x="155.4875" y="232.075" type="line" smooth="yes"/>
      <point x="173.8875" y="232.075"/>
      <point x="180.45" y="238.35000000000002"/>
    </contour>
  </outline>
</glyph>
<glyph name="numbersign" format="2">
  <advance width="603.0"/>
  <unicode hex="0023"/>
  <outline>
    <contour>
      <point x="183.9625" y="24.1" type="curve"/>
      <point x="286.7" y="719.1625" type="line"/>
      <point x="288.4125" y="730.4375"/>
      <point x="282.1375" y="735.575"/>
      <point x="272.575" y="736.575" type="curve"/>
      <point x="222.2125" y="742.0" type="line" smooth="yes"/>
      <point x="213.5125" y="743.0"/>
      <point x="209.0875" y="735.0125"/>
      <point x="206.6625" y="723.175" type="curve"/>
      <point x="102.5" y="23.5375" type="line" smooth="yes"/>
      <point x="101.075" y="9.1375"/>
      <point x="109.2" y="7.1375"/>
      <point x="124.8875" y="4.7125" type="curve"/>
      <point x="158.8625" y="0.0" type="line" smooth="yes"/>
      <point x="177.825" y="-2.425"/>
      <point x="181.5375" y="5.275"/>
    </contour>
    <contour>
      <point x="401.925" y="24.1" type="curve"/>
      <point x="504.6625" y="719.1625" type="line"/>
      <point x="506.375" y="730.4375"/>
      <point x="500.1" y="735.575"/>
      <point x="490.5375" y="736.575" type="curve"/>
      <point x="440.175" y="742.0" type="line" smooth="yes"/>
      <point x="431.475" y="743.0"/>
      <point x="427.05" y="735.0125"/>
      <point x="424.625" y="723.175" type="curve"/>
      <point x="320.4625" y="23.5375" type="line" smooth="yes"/>
      <point x="319.0375" y="9.1375"/>
      <point x="327.1625" y="7.1375"/>
      <point x="342.85" y="4.7125" type="curve"/>
      <point x="376.825" y="0.0" type="line" smooth="yes"/>
      <point x="395.7875" y="-2.425"/>
      <point x="399.5" y="5.275"/>
    </contour>
    <contour>
      <point x="553.5" y="252.3" type="curve"/>
      <point x="553.5" y="293.4" type="line"/>
      <point x="553.5" y="303.1"/>
      <point x="547.65" y="309.375"/>
      <point x="538.6625" y="309.375" type="curve"/>
      <point x="31.474999999999998" y="309.375" type="line" smooth="yes"/>
      <point x="22.0625" y="309.375"/>
      <point x="16.5" y="303.1"/>
      <point x="16.5" y="290.975" type="curve"/>
      <point x="16.5" y="249.875" type="line" smooth="yes"/>
      <point x="16.5" y="236.325"/>
      <point x="21.349999999999998" y="230.05"/>
      <point x="37.325" y="230.05" type="curve"/>
      <point x="527.1125" y="230.05" type="line" smooth="yes"/>
      <point x="545.5125" y="230.05"/>
      <point x="553.5" y="236.325"/>
    </contour>
    <contour>
      <point x="586.5" y="462.3" type="curve"/>
      <point x="586.5" y="503.4" type="line"/>
      <point x="586.5" y="513.1"/>
      <point x="580.65" y="519.375"/>
      <point x="571.6625" y="519.375" type="curve"/>
      <point x="64.475" y="519.375" type="line" smooth="yes"/>
      <point x="55.0625" y="519.375"/>
      <point x="49.5" y="513.1"/>
      <point x="49.5" y="500.975" type="curve"/>
      <point x="49.5" y="459.875" type="line" smooth="yes"/>
      <point x="49.5" y="446.325"/>
      <point x="54.349999999999994" y="440.05"/>
      <point x="70.325" y="440.05" type="curve"/>
      <point x="560.1125" y="440.05" type="line" smooth="yes"/>
      <point x="578.5125" y="440.05"/>
      <point x="586.5" y="446.325"/>
    </contour>
  </outline>
</glyph>
<glyph name="dollar" format="2">
  <advance width="654.5125"/>
  <unicode hex="0024"/>
  <outline>
    <contour>
      <point x="620.2125" y="214.1625" type="curve"/>
      <point x="620.2125" y="214.1625" type="line"/>
      <point x="620.2125" y="314.8625"/>
      <point x="550.2375" y="390.4"/>
      <point x="446.925" y="421.3" type="curve"/>
      <point x="391.425" y="436.15" type="line" smooth="yes"/>
      <point x="381.7125" y="438.725"/>
      <point x="379.0" y="441.4375"/>
      <point x="379.0" y="449.0125" type="curve"/>
      <point x="379.0" y="617.775" type="line" smooth="yes"/>
      <point x="379.0" y="623.775"/>
      <point x="383.1375" y="628.2"/>
      <point x="391.5625" y="625.775" type="curve"/>
      <point x="431.3375" y="615.6375"/>
      <point x="466.25" y="595.1875"/>
      <point x="487.5625" y="573.0" type="curve"/>
      <point x="500.6875" y="560.725"/>
      <point x="507.675" y="563.2875"/>
      <point x="515.525" y="572.275" type="curve"/>
      <point x="569.1625" y="639.8625" type="line"/>
      <point x="577.3" y="649.85"/>
      <point x="574.5875" y="659.125"/>
      <point x="565.6" y="664.55" type="curve"/>
      <point x="518.875" y="700.025"/>
      <point x="463.725" y="724.7625"/>
      <point x="393.125" y="739.6" type="curve"/>
      <point x="383.85" y="741.7375"/>
      <point x="379.7125" y="744.025"/>
      <point x="379.7125" y="749.45" type="curve"/>
      <point x="379.7125" y="789.2" type="line" smooth="yes"/>
      <point x="379.7125" y="803.325"/>
      <point x="373.4375" y="807.75"/>
      <point x="361.7375" y="807.75" type="curve"/>
      <point x="294.275" y="807.75" type="line" smooth="yes"/>
      <point x="288.1375" y="807.75"/>
      <point x="281.8625" y="803.325"/>
      <point x="281.8625" y="794.3375" type="curve"/>
      <point x="281.8625" y="756.15" type="line" smooth="yes"/>
      <point x="281.8625" y="746.45"/>
      <point x="270.3125" y="740.6"/>
      <point x="262.75" y="739.175" type="curve"/>
      <point x="124.3625" y="714.5"/>
      <point x="46.3375" y="633.0875"/>
      <point x="46.3375" y="527.65" type="curve"/>
      <point x="46.3375" y="425.525"/>
      <point x="102.0375" y="345.625"/>
      <point x="266.9875" y="308.8375" type="curve"/>
      <point x="278.85" y="304.6875"/>
      <point x="282.15" y="300.25"/>
      <point x="282.15" y="288.9625" type="curve"/>
      <point x="281.4375" y="117.66250000000001" type="line" smooth="yes"/>
      <point x="281.4375" y="108.3875"/>
      <point x="277.3" y="106.3875"/>
      <point x="266.6" y="107.8125" type="curve"/>
      <point x="203.5125" y="116.3625"/>
      <point x="157.6375" y="145.2375"/>
      <point x="119.4625" y="186.875" type="curve"/>
      <point x="110.05000000000001" y="195.8625"/>
      <point x="100.625" y="196.575"/>
      <point x="89.925" y="185.025" type="curve"/>
      <point x="30.4625" y="120.1625" type="line" smooth="yes"/>
      <point x="21.1875" y="110.75"/>
      <point x="24.4625" y="100.05"/>
      <point x="39.8625" y="88.0625" type="curve"/>
      <point x="100.125" y="32.7125"/>
      <point x="166.7" y="1.4000000000000004"/>
      <point x="265.75" y="-3.5874999999999995" type="curve"/>
      <point x="276.875" y="-3.5874999999999995"/>
      <point x="280.0125" y="-6.725"/>
      <point x="280.0125" y="-18.85" type="curve"/>
      <point x="280.0125" y="-58.787499999999994" type="line" smooth="yes"/>
      <point x="280.0125" y="-71.7625"/>
      <point x="285.575" y="-78.75"/>
      <point x="301.2625" y="-78.75" type="curve"/>
      <point x="355.9" y="-78.75" type="line" smooth="yes"/>
      <point x="373.0125" y="-78.75"/>
      <point x="380.0" y="-71.7625"/>
      <point x="380.0" y="-55.787499999999994" type="curve"/>
      <point x="380.0" y="-20.275" type="line" smooth="yes"/>
      <point x="380.0" y="-7.725"/>
      <point x="382.0" y="-5.0125"/>
      <point x="397.2625" y="-3.5874999999999995" type="curve"/>
      <point x="532.9375" y="9.2375"/>
      <point x="620.2125" y="96.35"/>
    </contour>
    <contour>
      <point x="281.8625" y="619.0625" type="curve"/>
      <point x="281.8625" y="476.0" type="line"/>
      <point x="281.8625" y="460.15"/>
      <point x="275.0" y="455.0125"/>
      <point x="261.8625" y="457.875" type="curve"/>
      <point x="200.3" y="477.1"/>
      <point x="175.85" y="503.85"/>
      <point x="175.85" y="544.4625" type="curve"/>
      <point x="175.85" y="585.85"/>
      <point x="207.7875" y="620.2"/>
      <point x="269.0125" y="631.05" type="curve"/>
      <point x="277.8625" y="632.7625"/>
      <point x="281.8625" y="628.3375"/>
    </contour>
    <contour>
      <point x="379.2875" y="113.8125" type="curve"/>
      <point x="379.2875" y="113.8125" type="line"/>
      <point x="379.2875" y="275.5375" type="line" smooth="yes"/>
      <point x="379.2875" y="286.5375"/>
      <point x="383.4375" y="287.5375"/>
      <point x="392.0125" y="285.675" type="curve"/>
      <point x="461.525" y="267.325"/>
      <point x="489.275" y="236.0125"/>
      <point x="489.275" y="191.0875" type="curve"/>
      <point x="489.275" y="148.0"/>
      <point x="453.2125" y="114.22500000000001"/>
      <point x="391.9875" y="107.10000000000001" type="curve"/>
      <point x="384.1375" y="105.675"/>
      <point x="379.2875" y="107.675"/>
    </contour>
  </outline>
</glyph>
<glyph name="percent" format="2">
  <advance width="944.3125"/>
  <unicode hex="0025"/>
  <outline>
    <contour>
      <point x="229.0" y="753.0" type="curve"/>
      <point x="229.0" y="753.0" type="line"/>
      <point x="122.3125" y="753.0"/>
      <point x="40.0625" y="658.625"/>
      <point x="40.0625" y="541.0" type="curve"/>
      <point x="40.0625" y="423.5125"/>
      <point x="120.8875" y="331.9875"/>
      <point x="229.0" y="331.9875" type="curve"/>
      <point x="336.1125" y="331.9875"/>
      <point x="415.9375" y="423.5125"/>
      <point x="415.9375" y="541.0" type="curve"/>
      <point x="415.9375" y="658.625"/>
      <point x="334.6875" y="753.0"/>
    </contour>
    <contour>
      <point x="228.0" y="410.4375" type="curve"/>
      <point x="228.0" y="410.4375" type="line"/>
      <point x="176.3625" y="410.4375"/>
      <point x="153.4375" y="459.225"/>
      <point x="153.4375" y="540.0" type="curve"/>
      <point x="153.4375" y="623.625"/>
      <point x="177.075" y="675.2625"/>
      <point x="228.0" y="675.2625" type="curve"/>
      <point x="278.925" y="675.2625"/>
      <point x="302.5625" y="624.625"/>
      <point x="302.5625" y="540.0" type="curve"/>
      <point x="302.5625" y="458.9375"/>
      <point x="280.35" y="410.4375"/>
    </contour>
    <contour>
      <point x="717.3125" y="411.0125" type="curve"/>
      <point x="717.3125" y="411.0125" type="line"/>
      <point x="610.625" y="411.0125"/>
      <point x="528.375" y="316.6375"/>
      <point x="528.375" y="199.0125" type="curve"/>
      <point x="528.375" y="81.525"/>
      <point x="609.2" y="-10.0"/>
      <point x="717.3125" y="-10.0" type="curve"/>
      <point x="824.425" y="-10.0"/>
      <point x="904.25" y="81.525"/>
      <point x="904.25" y="199.0125" type="curve"/>
      <point x="904.25" y="316.6375"/>
      <point x="823.0" y="411.0125"/>
    </contour>
    <contour>
      <point x="716.3125" y="68.45" type="curve"/>
      <point x="716.3125" y="68.45" type="line"/>
      <point x="665.5375" y="68.45"/>
      <point x="641.75" y="118.1"/>
      <point x="641.75" y="198.0125" type="curve"/>
      <point x="641.75" y="280.775"/>
      <point x="666.25" y="333.275"/>
      <point x="716.3125" y="333.275" type="curve"/>
      <point x="766.375" y="333.275"/>
      <point x="790.875" y="281.775"/>
      <point x="790.875" y="198.0125" type="curve"/>
      <point x="790.875" y="117.8125"/>
      <point x="767.8" y="68.45"/>
    </contour>
    <component base="fraction" xOffset="351.6625"/>
  </outline>
</glyph>
<glyph name="ampersand" format="2">
  <advance width="838.325"/>
  <unicode hex="0026"/>
  <outline>
    <contour>
      <point x="375.275" y="753.0" type="curve"/>
      <point x="375.275" y="753.0" type="line"/>
      <point x="242.6125" y="753.0"/>
      <point x="145.075" y="675.1375"/>
      <point x="145.075" y="569.425" type="curve"/>
      <point x="145.075" y="521.125"/>
      <point x="167.7875" y="470.1375"/>
      <point x="208.0875" y="426.4125" type="curve"/>
      <point x="220.375" y="412.4125"/>
      <point x="219.375" y="408.7"/>
      <point x="206.375" y="401.4125" type="curve"/>
      <point x="88.2625" y="334.9875"/>
      <point x="39.2875" y="271.7"/>
      <point x="39.2875" y="192.7" type="curve"/>
      <point x="39.2875" y="68.4375"/>
      <point x="128.8375" y="-5.0"/>
      <point x="283.625" y="-5.0" type="curve"/>
      <point x="378.1625" y="-5.0"/>
      <point x="452.1625" y="19.45"/>
      <point x="518.4375" y="70.325" type="curve"/>
      <point x="529.1375" y="78.175"/>
      <point x="533.85" y="78.175"/>
      <point x="544.55" y="71.325" type="curve"/>
      <point x="605.95" y="27.1875"/>
      <point x="689.4375" y="0.0"/>
      <point x="783.0875" y="0.0" type="curve"/>
      <point x="797.5125" y="0.0"/>
      <point x="804.7875" y="8.7"/>
      <point x="804.7875" y="24.6875" type="curve"/>
      <point x="804.7875" y="112.3625" type="line" smooth="yes"/>
      <point x="804.7875" y="125.0625"/>
      <point x="798.9375" y="130.2"/>
      <point x="784.95" y="130.91250000000002" type="curve"/>
      <point x="736.475" y="133.05"/>
      <point x="688.95" y="148.8125"/>
      <point x="658.925" y="171.7125" type="curve"/>
      <point x="648.65" y="178.425"/>
      <point x="648.3625" y="181.0"/>
      <point x="656.925" y="191.7" type="curve"/>
      <point x="709.5375" y="255.7125"/>
      <point x="746.2125" y="309.85"/>
      <point x="767.35" y="360.7375" type="curve"/>
      <point x="771.2" y="371.15"/>
      <point x="764.6375" y="383.7"/>
      <point x="753.5125" y="387.125" type="curve"/>
      <point x="676.6625" y="411.9375" type="line" smooth="yes"/>
      <point x="665.9625" y="415.3625"/>
      <point x="657.825" y="412.9375"/>
      <point x="652.975" y="402.6625" type="curve"/>
      <point x="638.1125" y="363.35"/>
      <point x="604.1375" y="312.0375"/>
      <point x="572.075" y="276.425" type="curve"/>
      <point x="563.075" y="265.575"/>
      <point x="558.8" y="265.575"/>
      <point x="550.6625" y="274.0" type="curve"/>
      <point x="444.6" y="390.4125" type="line" smooth="yes"/>
      <point x="436.88750000000005" y="398.7"/>
      <point x="437.6" y="402.4125"/>
      <point x="447.6" y="407.125" type="curve"/>
      <point x="542.2875" y="451.7375"/>
      <point x="599.7" y="529.15"/>
      <point x="599.7" y="594.4625" type="curve"/>
      <point x="599.7" y="690.025"/>
      <point x="505.75" y="753.0"/>
    </contour>
    <contour>
      <point x="382.4" y="659.85" type="curve"/>
      <point x="382.4" y="659.85" type="line"/>
      <point x="429.5875" y="659.85"/>
      <point x="464.6375" y="633.2625"/>
      <point x="464.6375" y="587.2" type="curve"/>
      <point x="464.6375" y="544.85"/>
      <point x="436.3" y="510.375"/>
      <point x="378.6875" y="481.8625" type="curve"/>
      <point x="372.4" y="478.8625"/>
      <point x="363.975" y="477.725"/>
      <point x="358.8375" y="483.15" type="curve"/>
      <point x="325.8625" y="522.4" type="line" smooth="yes"/>
      <point x="308.38750000000005" y="541.7375"/>
      <point x="298.2375" y="563.3375"/>
      <point x="298.2375" y="582.675" type="curve"/>
      <point x="298.2375" y="622.2"/>
      <point x="329.4375" y="659.85"/>
    </contour>
    <contour>
      <point x="306.9875" y="314.6875" type="curve"/>
      <point x="306.9875" y="314.6875" type="line"/>
      <point x="431.875" y="174.75" type="line" smooth="yes"/>
      <point x="440.725" y="163.9"/>
      <point x="437.1625" y="157.6125"/>
      <point x="428.875" y="150.325" type="curve"/>
      <point x="400.825" y="126.275"/>
      <point x="354.9125" y="109.2375"/>
      <point x="316.8375" y="109.2375" type="curve"/>
      <point x="254.325" y="109.2375"/>
      <point x="205.41250000000002" y="154.9875"/>
      <point x="205.41250000000002" y="210.075" type="curve"/>
      <point x="205.41250000000002" y="252.5875"/>
      <point x="234.03750000000002" y="293.5125"/>
      <point x="279.7" y="318.975" type="curve"/>
      <point x="289.85" y="324.975"/>
      <point x="296.85" y="326.1125"/>
    </contour>
  </outline>
</glyph>
<glyph name="quotesingle" format="2">
  <advance width="247.825"/>
  <unicode hex="0027"/>
  <outline>
    <contour>
      <point x="167.775" y="474.2125" type="curve"/>
      <point x="202.025" y="726.025" type="line"/>
      <point x="203.45" y="736.4375"/>
      <point x="197.175" y="742.0"/>
      <point x="187.475" y="742.0" type="curve"/>
      <point x="66.05" y="742.0" type="line" smooth="yes"/>
      <point x="57.349999999999994" y="742.0"/>
      <point x="49.3625" y="736.4375"/>
      <point x="50.787499999999994" y="724.6" type="curve"/>
      <point x="84.75" y="470.7875" type="line" smooth="yes"/>
      <point x="86.4625" y="457.2375"/>
      <point x="90.3125" y="450.9625"/>
      <point x="106.2875" y="450.9625" type="curve"/>
      <point x="141.3875" y="450.9625" type="line" smooth="yes"/>
      <point x="160.5" y="450.9625"/>
      <point x="165.35" y="457.525"/>
    </contour>
  </outline>
</glyph>
<glyph name="parenleft" format="2">
  <advance width="313.6"/>
  <unicode hex="0028"/>
  <outline>
    <contour>
      <point x="286.8875" y="742.0" type="curve"/>
      <point x="286.8875" y="742.0" type="line"/>
      <point x="210.0625" y="742.0" type="line" smooth="yes"/>
      <point x="199.075" y="742.0"/>
      <point x="192.5125" y="737.8625"/>
      <point x="186.6625" y="730.3" type="curve"/>
      <point x="103.6625" y="605.3"/>
      <point x="47.9375" y="451.0"/>
      <point x="47.9375" y="285.0" type="curve"/>
      <point x="47.9375" y="114.0"/>
      <point x="102.925" y="-13.3"/>
      <point x="184.925" y="-154.3" type="curve"/>
      <point x="190.0625" y="-161.8625"/>
      <point x="194.2" y="-165.0"/>
      <point x="202.475" y="-165.0" type="curve"/>
      <point x="283.0125" y="-165.0" type="line" smooth="yes"/>
      <point x="293.2875" y="-165.0"/>
      <point x="295.7125" y="-157.4375"/>
      <point x="292.2875" y="-150.875" type="curve"/>
      <point x="222.2875" y="-0.875"/>
      <point x="184.575" y="133.0"/>
      <point x="184.575" y="284.0" type="curve"/>
      <point x="184.575" y="443.0"/>
      <point x="229.45" y="598.3"/>
      <point x="295.45" y="729.3" type="curve"/>
      <point x="298.875" y="735.15"/>
      <point x="297.1625" y="742.0"/>
    </contour>
  </outline>
</glyph>
<glyph name="asterisk" format="2">
  <advance width="465.225"/>
  <unicode hex="002A"/>
  <outline>
    <contour>
      <point x="239.4" y="464.4125" type="curve"/>
      <point x="311.825" y="343.8625" type="line"/>
      <point x="315.675" y="337.5875"/>
      <point x="326.0875" y="335.1625"/>
      <point x="337.2125" y="343.15" type="curve"/>
      <point x="385.2875" y="376.675" type="line" smooth="yes"/>
      <point x="397.125" y="384.6625"/>
      <point x="398.125" y="394.075"/>
      <point x="392.275" y="400.925" type="curve"/>
      <point x="305.725" y="504.2" type="line" smooth="yes"/>
      <point x="301.5875" y="508.625"/>
      <point x="301.875" y="514.1875"/>
      <point x="307.725" y="515.9" type="curve"/>
      <point x="431.4" y="551.7625" type="line" smooth="yes"/>
      <point x="440.8125" y="554.1875"/>
      <point x="444.375" y="561.175"/>
      <point x="441.2375" y="571.1625" type="curve"/>
      <point x="422.8375" y="629.2125" type="line" smooth="yes"/>
      <point x="419.7" y="640.05"/>
      <point x="413.0" y="643.1875"/>
      <point x="403.3" y="639.05" type="curve"/>
      <point x="280.625" y="584.7875" type="line" smooth="yes"/>
      <point x="274.35" y="582.3625"/>
      <point x="271.6375" y="584.7875"/>
      <point x="272.35" y="591.6375" type="curve"/>
      <point x="283.7625" y="729.1625" type="line" smooth="yes"/>
      <point x="284.475" y="735.0125"/>
      <point x="280.625" y="742.0"/>
      <point x="271.6375" y="742.0" type="curve"/>
      <point x="198.8875" y="742.0" type="line" smooth="yes"/>
      <point x="189.6125" y="742.0"/>
      <point x="185.475" y="734.725"/>
      <point x="186.1875" y="729.1625" type="curve"/>
      <point x="196.75" y="592.35" type="line" smooth="yes"/>
      <point x="197.4625" y="585.5"/>
      <point x="192.6125" y="583.075"/>
      <point x="186.05" y="586.2125" type="curve"/>
      <point x="66.375" y="638.4625" type="line" smooth="yes"/>
      <point x="57.3875" y="642.6"/>
      <point x="52.5375" y="638.75"/>
      <point x="49.4" y="630.7625" type="curve"/>
      <point x="27.8625" y="571.7125" type="line" smooth="yes"/>
      <point x="24.0125" y="561.3"/>
      <point x="26.8625" y="553.6"/>
      <point x="34.85" y="551.175" type="curve"/>
      <point x="160.95" y="516.325" type="line" smooth="yes"/>
      <point x="168.5125" y="514.6125"/>
      <point x="169.225" y="509.05"/>
      <point x="166.0875" y="504.9125" type="curve"/>
      <point x="75.825" y="396.775" type="line" smooth="yes"/>
      <point x="69.2625" y="388.5"/>
      <point x="69.975" y="383.65"/>
      <point x="78.675" y="377.375" type="curve"/>
      <point x="133.45" y="338.8625" type="line" smooth="yes"/>
      <point x="142.15" y="332.5875"/>
      <point x="151.85" y="334.0125"/>
      <point x="155.7" y="340.2875" type="curve"/>
      <point x="229.9875" y="464.4125" type="line" smooth="yes"/>
      <point x="232.4125" y="468.2625"/>
      <point x="236.97500000000002" y="468.2625"/>
    </contour>
  </outline>
</glyph>
<glyph name="plus" format="2">
  <advance width="583.0375"/>
  <unicode hex="002B"/>
  <outline>
    <contour>
      <point x="535.8375" y="339.9125" type="curve"/>
      <point x="535.8375" y="413.075" type="line"/>
      <point x="535.8375" y="422.775"/>
      <point x="529.9875" y="429.05"/>
      <point x="521.0" y="429.05" type="curve"/>
      <point x="63.6" y="428.7625" type="line" smooth="yes"/>
      <point x="54.1875" y="428.7625"/>
      <point x="48.625" y="422.4875"/>
      <point x="48.625" y="410.3625" type="curve"/>
      <point x="48.625" y="337.2" type="line" smooth="yes"/>
      <point x="48.625" y="323.65"/>
      <point x="53.474999999999994" y="317.375"/>
      <point x="69.45" y="317.375" type="curve"/>
      <point x="509.45" y="317.6625" type="line" smooth="yes"/>
      <point x="527.85" y="317.6625"/>
      <point x="535.8375" y="323.9375"/>
    </contour>
    <contour>
      <point x="259.2875" y="129.9625" type="curve"/>
      <point x="332.45" y="129.9625" type="line"/>
      <point x="342.15" y="129.9625"/>
      <point x="348.425" y="135.8125"/>
      <point x="348.425" y="144.8" type="curve"/>
      <point x="348.1375" y="602.2" type="line" smooth="yes"/>
      <point x="348.1375" y="611.6125"/>
      <point x="341.8625" y="617.175"/>
      <point x="329.7375" y="617.175" type="curve"/>
      <point x="256.575" y="617.175" type="line" smooth="yes"/>
      <point x="243.025" y="617.175"/>
      <point x="236.75" y="612.325"/>
      <point x="236.75" y="596.35" type="curve"/>
      <point x="237.0375" y="156.35" type="line" smooth="yes"/>
      <point x="237.0375" y="137.95"/>
      <point x="243.3125" y="129.9625"/>
    </contour>
  </outline>
</glyph>
<glyph name="comma" format="2">
  <advance width="252.55"/>
  <unicode hex="002C"/>
  <outline>
    <contour>
      <point x="54.275" y="-156.0875" type="curve"/>
      <point x="54.275" y="-156.0875" type="line"/>
      <point x="71.9625" y="-156.0875" type="line" smooth="yes"/>
      <point x="84.375" y="-156.0875"/>
      <point x="99.48750000000001" y="-149.8125"/>
      <point x="107.9" y="-137.975" type="curve"/>
      <point x="205.5125" y="13.262500000000001" type="line" smooth="yes"/>
      <point x="207.9375" y="17.6875"/>
      <point x="208.9375" y="20.975"/>
      <point x="208.9375" y="27.4" type="curve"/>
      <point x="208.9375" y="147.8125" type="line" smooth="yes"/>
      <point x="208.9375" y="158.22500000000002"/>
      <point x="204.0875" y="163.78750000000002"/>
      <point x="194.3875" y="163.78750000000002" type="curve"/>
      <point x="56.75" y="163.78750000000002" type="line" smooth="yes"/>
      <point x="47.7625" y="163.78750000000002"/>
      <point x="41.4875" y="158.22500000000002"/>
      <point x="41.4875" y="146.3875" type="curve"/>
      <point x="41.4875" y="19.825000000000003" type="line" smooth="yes"/>
      <point x="41.4875" y="6.5625"/>
      <point x="47.05" y="0.0"/>
      <point x="63.025" y="0.0" type="curve"/>
      <point x="81.2875" y="0.0" type="line" smooth="yes"/>
      <point x="95.275" y="0.0"/>
      <point x="97.275" y="-9.412500000000001"/>
      <point x="90.0" y="-25.675" type="curve"/>
      <point x="42.0125" y="-135.4" type="line" smooth="yes"/>
      <point x="37.5875" y="-145.9625"/>
      <point x="43.8625" y="-156.0875"/>
    </contour>
  </outline>
</glyph>
<glyph name="hyphen" format="2">
  <advance width="380.2875"/>
  <unicode hex="002D"/>
  <outline>
    <contour>
      <point x="330.95" y="230.4875" type="curve"/>
      <point x="330.95" y="303.5125" type="line"/>
      <point x="330.95" y="313.2125"/>
      <point x="325.1" y="319.4875"/>
      <point x="316.1125" y="319.4875" type="curve"/>
      <point x="64.3125" y="319.2" type="line" smooth="yes"/>
      <point x="54.9" y="319.2"/>
      <point x="49.3375" y="312.925"/>
      <point x="49.3375" y="300.8" type="curve"/>
      <point x="49.3375" y="227.775" type="line" smooth="yes"/>
      <point x="49.3375" y="214.225"/>
      <point x="54.1875" y="207.95"/>
      <point x="70.1625" y="207.95" type="curve"/>
      <point x="304.5625" y="208.2375" type="line" smooth="yes"/>
      <point x="322.9625" y="208.2375"/>
      <point x="330.95" y="214.5125"/>
    </contour>
  </outline>
</glyph>
<glyph name="period" format="2">
  <advance width="251.1125"/>
  <unicode hex="002E"/>
  <outline>
    <contour>
      <point x="207.5" y="23.825000000000003" type="curve"/>
      <point x="207.5" y="149.375" type="line"/>
      <point x="207.5" y="160.3625"/>
      <point x="202.65" y="165.925"/>
      <point x="192.66250000000002" y="165.925" type="curve"/>
      <point x="55.6" y="165.925" type="line" smooth="yes"/>
      <point x="46.6125" y="165.925"/>
      <point x="40.05" y="160.3625"/>
      <point x="40.05" y="147.66250000000002" type="curve"/>
      <point x="40.05" y="20.6875" type="line" smooth="yes"/>
      <point x="40.05" y="6.5625"/>
      <point x="45.6125" y="0.0"/>
      <point x="62.1625" y="0.0" type="curve"/>
      <point x="180.25" y="0.0" type="line" smooth="yes"/>
      <point x="200.22500000000002" y="0.0"/>
      <point x="207.5" y="6.5625"/>
    </contour>
  </outline>
</glyph>
<glyph name="slash" format="2">
  <advance width="365.05"/>
  <unicode hex="002F"/>
  <outline>
    <contour>
      <point x="18.4375" y="-17.25" type="curve"/>
      <point x="18.4375" y="-17.25" type="line"/>
      <point x="85.9125" y="-17.25" type="line" smooth="yes"/>
      <point x="99.4625" y="-17.25"/>
      <point x="108.45" y="-12.399999999999999"/>
      <point x="114.0125" y="3.575000000000003" type="curve"/>
      <point x="357.025" y="715.6125" type="line" smooth="yes"/>
      <point x="363.3" y="734.0125"/>
      <point x="359.45" y="742.0"/>
      <point x="343.475" y="742.0" type="curve"/>
      <point x="276.0" y="742.0" type="line" smooth="yes"/>
      <point x="266.3" y="742.0"/>
      <point x="258.3125" y="736.4375"/>
      <point x="255.175" y="727.45" type="curve"/>
      <point x="5.6" y="-2.2749999999999986" type="line" smooth="yes"/>
      <point x="2.4625000000000004" y="-11.6875"/>
      <point x="6.3125" y="-17.25"/>
    </contour>
  </outline>
</glyph>
<glyph name="zero" format="2">
  <advance width="708.4875"/>
  <unicode hex="0030"/>
  <outline>
    <contour>
      <point x="355.1" y="752.7125" type="curve"/>
      <point x="355.1" y="752.7125" type="line"/>
      <point x="176.6125" y="752.7125"/>
      <point x="44.8" y="600.6375"/>
      <point x="44.8" y="368.425" type="curve"/>
      <point x="44.8" y="138.075"/>
      <point x="173.9" y="-8.575"/>
      <point x="354.8125" y="-8.575" type="curve"/>
      <point x="535.0125" y="-8.575"/>
      <point x="663.6875" y="138.3625"/>
      <point x="663.6875" y="369.0" type="curve"/>
      <point x="663.6875" y="600.925"/>
      <point x="532.875" y="752.7125"/>
    </contour>
    <contour>
      <point x="354.675" y="114.65" type="curve"/>
      <point x="354.675" y="114.65" type="line"/>
      <point x="267.3" y="114.65"/>
      <point x="222.47500000000002" y="185.725"/>
      <point x="222.47500000000002" y="368.2875" type="curve"/>
      <point x="222.47500000000002" y="554.9875"/>
      <point x="268.0125" y="630.9125"/>
      <point x="354.3875" y="630.9125" type="curve"/>
      <point x="440.7625" y="630.9125"/>
      <point x="486.0125" y="555.9875"/>
      <point x="486.0125" y="368.2875" type="curve"/>
      <point x="486.0125" y="184.725"/>
      <point x="442.7625" y="114.65"/>
    </contour>
  </outline>
</glyph>
<glyph name="one" format="2">
  <advance width="508.5375"/>
  <unicode hex="0031"/>
  <outline>
    <contour>
      <point x="456.675" y="128.925" type="curve"/>
      <point x="456.675" y="128.925" type="line"/>
      <point x="356.9" y="128.925" type="line" smooth="yes"/>
      <point x="351.05" y="128.925"/>
      <point x="347.625" y="132.35000000000002"/>
      <point x="347.625" y="139.2" type="curve"/>
      <point x="347.625" y="724.45" type="line" smooth="yes"/>
      <point x="347.625" y="735.4375"/>
      <point x="341.775" y="742.0"/>
      <point x="332.5" y="742.0" type="curve"/>
      <point x="264.175" y="742.0" type="line" smooth="yes"/>
      <point x="248.3375" y="742.0"/>
      <point x="239.775" y="738.8625"/>
      <point x="222.225" y="730.3" type="curve"/>
      <point x="54.5875" y="646.625" type="line" smooth="yes"/>
      <point x="43.175" y="640.775"/>
      <point x="40.0375" y="637.2125"/>
      <point x="40.0375" y="623.375" type="curve"/>
      <point x="40.0375" y="556.625" type="line" smooth="yes"/>
      <point x="40.0375" y="540.65"/>
      <point x="47.3125" y="534.8"/>
      <point x="61.575" y="538.225" type="curve"/>
      <point x="158.825" y="567.15" type="line" smooth="yes"/>
      <point x="169.525" y="569.8625"/>
      <point x="172.6625" y="566.15"/>
      <point x="172.6625" y="556.1625" type="curve"/>
      <point x="172.6625" y="136.4875" type="line" smooth="yes"/>
      <point x="172.6625" y="131.35000000000002"/>
      <point x="167.525" y="128.925"/>
      <point x="162.3875" y="128.925" type="curve"/>
      <point x="58.4375" y="128.925" type="line" smooth="yes"/>
      <point x="47.3125" y="128.925"/>
      <point x="41.0375" y="124.78750000000001"/>
      <point x="41.0375" y="113.66250000000001" type="curve"/>
      <point x="41.0375" y="16.6875" type="line" smooth="yes"/>
      <point x="41.0375" y="6.5625"/>
      <point x="46.6" y="0.0"/>
      <point x="59.8625" y="0.0" type="curve"/>
      <point x="455.25" y="0.0" type="line" smooth="yes"/>
      <point x="468.8" y="0.0"/>
      <point x="475.075" y="8.275"/>
      <point x="475.075" y="17.4" type="curve"/>
      <point x="475.075" y="113.66250000000001" type="line" smooth="yes"/>
      <point x="475.075" y="124.78750000000001"/>
      <point x="468.0875" y="128.925"/>
    </contour>
  </outline>
</glyph>
<glyph name="two" format="2">
  <advance width="643.675"/>
  <unicode hex="0032"/>
  <outline>
    <contour>
      <point x="269.225" y="321.1" type="curve"/>
      <point x="83.1125" y="153.35000000000002" type="line"/>
      <point x="40.05" y="117.4125"/>
      <point x="37.05" y="108.275"/>
      <point x="37.05" y="97.55" type="curve"/>
      <point x="37.05" y="21.262500000000003" type="line" smooth="yes"/>
      <point x="37.05" y="4.425"/>
      <point x="42.9" y="0.0"/>
      <point x="59.7375" y="0.0" type="curve"/>
      <point x="581.075" y="0.0" type="line" smooth="yes"/>
      <point x="594.9125" y="0.0"/>
      <point x="601.1875" y="7.9875"/>
      <point x="601.1875" y="17.975" type="curve"/>
      <point x="601.1875" y="128.05" type="line" smooth="yes"/>
      <point x="601.1875" y="139.75"/>
      <point x="594.2" y="143.8875"/>
      <point x="582.2125" y="143.8875" type="curve"/>
      <point x="270.76250000000005" y="143.8875" type="line" smooth="yes"/>
      <point x="255.775" y="143.8875"/>
      <point x="256.3375" y="149.60000000000002"/>
      <point x="264.76250000000005" y="155.8875" type="curve"/>
      <point x="450.4" y="301.35" type="line" smooth="yes"/>
      <point x="555.875" y="384.8875"/>
      <point x="593.9" y="445.9"/>
      <point x="593.9" y="526.925" type="curve"/>
      <point x="593.9" y="667.2125"/>
      <point x="482.9125" y="752.0"/>
      <point x="323.3375" y="752.0" type="curve"/>
      <point x="205.15" y="752.0"/>
      <point x="112.4375" y="702.6125"/>
      <point x="43.9" y="594.55" type="curve"/>
      <point x="36.05" y="582.5625"/>
      <point x="37.1875" y="569.875"/>
      <point x="50.8875" y="562.1625" type="curve"/>
      <point x="139.9875" y="516.3875" type="line" smooth="yes"/>
      <point x="153.4" y="508.9625"/>
      <point x="162.9625" y="511.9625"/>
      <point x="167.3875" y="519.525" type="curve"/>
      <point x="211.9625" y="596.7875"/>
      <point x="259.1875" y="625.2125"/>
      <point x="312.775" y="625.2125" type="curve"/>
      <point x="375.25" y="625.2125"/>
      <point x="423.925" y="587.6125"/>
      <point x="423.925" y="527.225" type="curve"/>
      <point x="423.925" y="469.1625"/>
      <point x="396.875" y="431.9375"/>
    </contour>
  </outline>
</glyph>
<glyph name="three" format="2">
  <advance width="667.4625"/>
  <unicode hex="0033"/>
  <outline>
    <contour>
      <point x="65.475" y="625.7625" type="curve"/>
      <point x="65.475" y="625.7625" type="line"/>
      <point x="138.0375" y="557.6125" type="line" smooth="yes"/>
      <point x="146.8875" y="549.475"/>
      <point x="150.8875" y="549.475"/>
      <point x="159.7375" y="558.325" type="curve"/>
      <point x="213.3" y="609.4625"/>
      <point x="260.4875" y="631.625"/>
      <point x="322.0875" y="631.625" type="curve"/>
      <point x="385.9125" y="631.625"/>
      <point x="433.125" y="594.5625"/>
      <point x="433.125" y="547.3375" type="curve"/>
      <point x="433.125" y="489.825"/>
      <point x="378.025" y="448.475"/>
      <point x="298.925" y="445.625" type="curve"/>
      <point x="230.2" y="442.775" type="line" smooth="yes"/>
      <point x="219.5" y="441.35"/>
      <point x="212.65" y="436.925"/>
      <point x="212.65" y="428.65" type="curve"/>
      <point x="212.65" y="334.9625" type="line" smooth="yes"/>
      <point x="212.65" y="324.975"/>
      <point x="218.5" y="320.8375"/>
      <point x="230.2" y="320.8375" type="curve"/>
      <point x="315.925" y="319.4125" type="line" smooth="yes"/>
      <point x="392.575" y="317.9875"/>
      <point x="454.7" y="277.8"/>
      <point x="454.7" y="210.9625" type="curve"/>
      <point x="454.7" y="152.725"/>
      <point x="405.625" y="113.22500000000001"/>
      <point x="321.775" y="113.22500000000001" type="curve"/>
      <point x="247.05" y="113.22500000000001"/>
      <point x="202.0" y="137.075"/>
      <point x="141.2875" y="199.075" type="curve"/>
      <point x="136.15" y="204.925"/>
      <point x="129.875" y="205.78750000000002"/>
      <point x="118.8875" y="198.3625" type="curve"/>
      <point x="40.8875" y="142.7375" type="line" smooth="yes"/>
      <point x="29.1875" y="135.3125"/>
      <point x="27.3375" y="124.625"/>
      <point x="34.9" y="113.5" type="curve"/>
      <point x="91.3625" y="38.087500000000006"/>
      <point x="197.4125" y="-10.0"/>
      <point x="311.7875" y="-10.0" type="curve"/>
      <point x="522.5625" y="-10.0"/>
      <point x="626.8125" y="72.4625"/>
      <point x="626.8125" y="214.675" type="curve"/>
      <point x="626.8125" y="296.0125"/>
      <point x="568.775" y="360.875"/>
      <point x="485.35" y="387.575" type="curve"/>
      <point x="470.35" y="392.2875"/>
      <point x="471.0625" y="400.7"/>
      <point x="486.0625" y="405.7" type="curve"/>
      <point x="562.7875" y="430.425"/>
      <point x="603.8125" y="494.9875"/>
      <point x="603.8125" y="558.025" type="curve"/>
      <point x="603.8125" y="672.425"/>
      <point x="498.85" y="752.0"/>
      <point x="324.3625" y="752.0" type="curve"/>
      <point x="218.85" y="752.0"/>
      <point x="118.9375" y="712.175"/>
      <point x="65.475" y="647.7375" type="curve"/>
      <point x="59.625" y="639.0375"/>
      <point x="59.3375" y="632.6125"/>
    </contour>
  </outline>
</glyph>
<glyph name="four" format="2">
  <advance width="689.2625"/>
  <unicode hex="0034"/>
  <outline>
    <contour>
      <point x="363.2375" y="722.75" type="curve"/>
      <point x="363.2375" y="722.75" type="line"/>
      <point x="61.0" y="325.45" type="line" smooth="yes"/>
      <point x="42.6" y="301.2"/>
      <point x="34.9" y="288.7875"/>
      <point x="34.9" y="276.375" type="curve"/>
      <point x="34.9" y="193.3625" type="line" smooth="yes"/>
      <point x="34.9" y="181.8"/>
      <point x="41.75" y="174.8125"/>
      <point x="55.875" y="174.8125" type="curve"/>
      <point x="356.1125" y="174.8125" type="line" smooth="yes"/>
      <point x="363.5375" y="174.8125"/>
      <point x="368.3875" y="172.1"/>
      <point x="368.3875" y="165.9625" type="curve"/>
      <point x="367.675" y="20.4" type="line" smooth="yes"/>
      <point x="367.675" y="6.85"/>
      <point x="373.525" y="0.0"/>
      <point x="389.2125" y="0.0" type="curve"/>
      <point x="519.1" y="0.0" type="line" smooth="yes"/>
      <point x="537.5" y="0.0"/>
      <point x="545.4875" y="6.5625"/>
      <point x="545.4875" y="23.25" type="curve"/>
      <point x="545.4875" y="162.9625" type="line" smooth="yes"/>
      <point x="545.4875" y="172.1"/>
      <point x="549.9125" y="174.8125"/>
      <point x="556.3375" y="174.8125" type="curve"/>
      <point x="635.9625" y="174.8125" type="line" smooth="yes"/>
      <point x="650.0875" y="174.8125"/>
      <point x="655.9375" y="182.375"/>
      <point x="655.9375" y="193.3625" type="curve"/>
      <point x="655.9375" y="278.925" type="line" smooth="yes"/>
      <point x="655.9375" y="290.3375"/>
      <point x="649.0875" y="294.475"/>
      <point x="637.3875" y="294.475" type="curve"/>
      <point x="555.3375" y="294.475" type="line" smooth="yes"/>
      <point x="548.9125" y="294.475"/>
      <point x="545.4875" y="298.9"/>
      <point x="545.4875" y="305.325" type="curve"/>
      <point x="545.4875" y="724.45" type="line" smooth="yes"/>
      <point x="545.4875" y="735.4375"/>
      <point x="539.6375" y="742.0"/>
      <point x="529.3625" y="742.0" type="curve"/>
      <point x="403.6" y="742.0" type="line" smooth="yes"/>
      <point x="382.35" y="742.0"/>
      <point x="375.925" y="738.575"/>
    </contour>
    <contour>
      <point x="360.375" y="294.475" type="curve"/>
      <point x="182.825" y="294.475" type="line"/>
      <point x="170.6875" y="294.475"/>
      <point x="169.825" y="299.475"/>
      <point x="175.825" y="307.475" type="curve"/>
      <point x="355.375" y="554.25" type="line" smooth="yes"/>
      <point x="365.8" y="568.3875"/>
      <point x="369.375" y="567.8125"/>
      <point x="369.375" y="550.25" type="curve"/>
      <point x="369.375" y="301.475" type="line" smooth="yes"/>
      <point x="369.375" y="297.475"/>
      <point x="365.375" y="294.475"/>
    </contour>
  </outline>
</glyph>
<glyph name="five" format="2">
  <advance width="675.9125"/>
  <unicode hex="0035"/>
  <outline>
    <contour>
      <point x="561.5" y="742.0" type="curve"/>
      <point x="138.85" y="742.0" type="line"/>
      <point x="109.8875" y="742.0"/>
      <point x="104.475" y="737.0125"/>
      <point x="103.05" y="718.325" type="curve"/>
      <point x="74.625" y="397.5375" type="line" smooth="yes"/>
      <point x="72.9125" y="379.6875"/>
      <point x="71.475" y="373.575"/>
      <point x="85.325" y="365.8625" type="curve"/>
      <point x="176.4375" y="316.2375" type="line" smooth="yes"/>
      <point x="189.1375" y="309.3875"/>
      <point x="188.9875" y="308.525"/>
      <point x="201.8375" y="314.525" type="curve"/>
      <point x="247.7" y="337.6875"/>
      <point x="283.4875" y="354.175"/>
      <point x="330.3" y="354.175" type="curve"/>
      <point x="413.9125" y="354.175"/>
      <point x="464.5875" y="306.875"/>
      <point x="464.5875" y="237.0125" type="curve"/>
      <point x="464.5875" y="166.1625"/>
      <point x="411.075" y="112.65"/>
      <point x="315.5125" y="112.65" type="curve"/>
      <point x="237.625" y="112.65"/>
      <point x="198.175" y="149.6375"/>
      <point x="152.425" y="198.075" type="curve"/>
      <point x="145.15" y="206.0625"/>
      <point x="136.1625" y="208.775"/>
      <point x="126.0375" y="201.5" type="curve"/>
      <point x="43.625" y="143.7375" type="line" smooth="yes"/>
      <point x="28.3625" y="133.4625"/>
      <point x="33.349999999999994" y="122.48750000000001"/>
      <point x="41.912499999999994" y="110.3625" type="curve"/>
      <point x="97.225" y="37.525000000000006"/>
      <point x="206.1625" y="-10.0"/>
      <point x="334.9125" y="-10.0" type="curve"/>
      <point x="514.1375" y="-10.0"/>
      <point x="636.7" y="83.0"/>
      <point x="636.7" y="242.2875" type="curve"/>
      <point x="636.7" y="397.0125"/>
      <point x="520.125" y="478.25"/>
      <point x="370.625" y="478.25" type="curve"/>
      <point x="314.9875" y="478.25"/>
      <point x="279.2375" y="464.925"/>
      <point x="227.675" y="446.9" type="curve"/>
      <point x="218.825" y="443.6125"/>
      <point x="211.6875" y="448.9"/>
      <point x="213.4" y="459.75" type="curve"/>
      <point x="225.1375" y="586.55" type="line" smooth="yes"/>
      <point x="225.85" y="597.5375"/>
      <point x="231.9875" y="601.675"/>
      <point x="242.6875" y="601.675" type="curve"/>
      <point x="558.075" y="601.675" type="line" smooth="yes"/>
      <point x="574.4875" y="601.675"/>
      <point x="579.325" y="605.95"/>
      <point x="580.325" y="620.075" type="curve"/>
      <point x="585.4625" y="718.75" type="line" smooth="yes"/>
      <point x="586.4625" y="737.8625"/>
      <point x="584.4625" y="742.0"/>
    </contour>
  </outline>
</glyph>
<glyph name="six" format="2">
  <advance width="685.1875"/>
  <unicode hex="0036"/>
  <outline>
    <contour>
      <point x="371.5625" y="750.575" type="curve"/>
      <point x="371.5625" y="750.575" type="line"/>
      <point x="175.45" y="750.575"/>
      <point x="44.8" y="602.15"/>
      <point x="44.8" y="355.1625" type="curve"/>
      <point x="44.8" y="132.2625"/>
      <point x="164.75" y="-8.575"/>
      <point x="357.9625" y="-8.575" type="curve"/>
      <point x="520.6" y="-8.575"/>
      <point x="647.55" y="92.4"/>
      <point x="647.55" y="234.25" type="curve"/>
      <point x="647.55" y="361.95"/>
      <point x="545.8875" y="453.8125"/>
      <point x="391.175" y="453.8125" type="curve"/>
      <point x="325.975" y="453.8125"/>
      <point x="285.0625" y="436.35"/>
      <point x="240.4625" y="416.9" type="curve"/>
      <point x="221.47500000000002" y="408.9"/>
      <point x="218.3375" y="412.7625"/>
      <point x="218.3375" y="436.9" type="curve"/>
      <point x="218.3375" y="549.4875"/>
      <point x="272.2375" y="628.775"/>
      <point x="371.85" y="628.775" type="curve"/>
      <point x="422.5875" y="628.775"/>
      <point x="447.3375" y="604.2125"/>
      <point x="471.925" y="568.5" type="curve"/>
      <point x="475.2125" y="562.7875"/>
      <point x="480.925" y="554.375"/>
      <point x="491.3375" y="558.0875" type="curve"/>
      <point x="600.125" y="592.9" type="line" smooth="yes"/>
      <point x="611.825" y="596.9"/>
      <point x="610.9625" y="606.6"/>
      <point x="608.675" y="615.3" type="curve"/>
      <point x="588.3375" y="672.8375"/>
      <point x="502.575" y="750.575"/>
    </contour>
    <contour>
      <point x="355.275" y="339.1375" type="curve"/>
      <point x="355.275" y="339.1375" type="line"/>
      <point x="422.6875" y="339.1375"/>
      <point x="474.725" y="295.9"/>
      <point x="474.725" y="227.55" type="curve"/>
      <point x="474.725" y="157.75"/>
      <point x="421.5125" y="106.10000000000001"/>
      <point x="353.125" y="106.10000000000001" type="curve"/>
      <point x="267.8125" y="106.10000000000001"/>
      <point x="220.3375" y="185.3"/>
      <point x="220.3375" y="271.3375" type="curve"/>
      <point x="220.3375" y="291.925"/>
      <point x="223.2" y="297.3625"/>
      <point x="234.3625" y="305.375" type="curve"/>
      <point x="260.1375" y="322.8375"/>
      <point x="314.225" y="339.1375"/>
    </contour>
  </outline>
</glyph>
<glyph name="seven" format="2">
  <advance width="619.0625"/>
  <unicode hex="0037"/>
  <outline>
    <contour>
      <point x="557.5" y="742.0" type="curve"/>
      <point x="67.8375" y="742.0" type="line"/>
      <point x="53.0" y="742.0"/>
      <point x="44.5875" y="737.4375"/>
      <point x="43.5875" y="727.875" type="curve"/>
      <point x="32.75" y="621.5" type="line" smooth="yes"/>
      <point x="32.0375" y="609.375"/>
      <point x="37.3125" y="601.675"/>
      <point x="53.425" y="601.675" type="curve"/>
      <point x="391.2" y="601.675" type="line" smooth="yes"/>
      <point x="405.7625" y="601.675"/>
      <point x="405.05" y="594.5375"/>
      <point x="399.3375" y="585.4" type="curve"/>
      <point x="242.89999999999998" y="337.4"/>
      <point x="177.95" y="172.4"/>
      <point x="136.825" y="24.4" type="curve"/>
      <point x="132.6875" y="9.275"/>
      <point x="138.5375" y="0.0"/>
      <point x="153.6625" y="0.0" type="curve"/>
      <point x="312.3375" y="0.0" type="line" smooth="yes"/>
      <point x="325.75" y="0.0"/>
      <point x="332.3125" y="8.5625"/>
      <point x="333.3125" y="27.5375" type="curve"/>
      <point x="345.0625" y="162.825"/>
      <point x="437.5875" y="427.5625"/>
      <point x="557.925" y="609.625" type="curve"/>
      <point x="568.4875" y="625.325"/>
      <point x="582.3125" y="653.125"/>
      <point x="583.025" y="665.6875" type="curve"/>
      <point x="585.875" y="720.325" type="line" smooth="yes"/>
      <point x="586.5875" y="731.875"/>
      <point x="576.75" y="742.0"/>
    </contour>
  </outline>
</glyph>
<glyph name="eight" format="2">
  <advance width="683.225"/>
  <unicode hex="0038"/>
  <outline>
    <contour>
      <point x="336.7" y="752.0" type="curve"/>
      <point x="336.7" y="752.0" type="line"/>
      <point x="165.7875" y="752.0"/>
      <point x="60.9375" y="648.325"/>
      <point x="60.9375" y="523.9125" type="curve"/>
      <point x="60.9375" y="442.5125"/>
      <point x="106.7625" y="400.2"/>
      <point x="157.7875" y="365.2125" type="curve"/>
      <point x="170.0875" y="356.925"/>
      <point x="167.95" y="353.6375"/>
      <point x="156.3625" y="347.3375" type="curve"/>
      <point x="69.525" y="299.0375"/>
      <point x="40.9375" y="248.7375"/>
      <point x="40.9375" y="182.8625" type="curve"/>
      <point x="40.9375" y="58.725"/>
      <point x="159.025" y="-10.0"/>
      <point x="331.85" y="-10.0" type="curve"/>
      <point x="516.6375" y="-10.0"/>
      <point x="644.15" y="71.1375"/>
      <point x="644.15" y="210.0875" type="curve"/>
      <point x="644.15" y="282.975"/>
      <point x="610.9625" y="337.2875"/>
      <point x="513.9875" y="388.5125" type="curve"/>
      <point x="502.85" y="395.7875"/>
      <point x="504.9875" y="401.2125"/>
      <point x="514.9875" y="406.7875" type="curve"/>
      <point x="579.3" y="443.8375"/>
      <point x="611.15" y="489.4125"/>
      <point x="611.15" y="545.4375" type="curve"/>
      <point x="611.15" y="664.1625"/>
      <point x="495.075" y="752.0"/>
    </contour>
    <contour>
      <point x="339.55" y="636.6125" type="curve"/>
      <point x="339.55" y="636.6125" type="line"/>
      <point x="418.625" y="636.6125"/>
      <point x="463.975" y="593.85"/>
      <point x="463.975" y="541.175" type="curve"/>
      <point x="463.975" y="489.65"/>
      <point x="411.875" y="429.725"/>
      <point x="373.5875" y="441.2875" type="curve"/>
      <point x="294.35" y="464.15" type="line" smooth="yes"/>
      <point x="248.6875" y="476.875"/>
      <point x="224.5" y="505.0625"/>
      <point x="224.5" y="544.575" type="curve"/>
      <point x="224.5" y="599.8125"/>
      <point x="274.725" y="636.6125"/>
    </contour>
    <contour>
      <point x="342.1125" y="105.3875" type="curve"/>
      <point x="342.1125" y="105.3875" type="line"/>
      <point x="236.1875" y="105.3875"/>
      <point x="189.53750000000002" y="144.575"/>
      <point x="189.53750000000002" y="208.8" type="curve"/>
      <point x="189.53750000000002" y="275.9"/>
      <point x="256.225" y="324.4"/>
      <point x="295.225" y="311.8375" type="curve"/>
      <point x="389.5125" y="284.25" type="line" smooth="yes"/>
      <point x="451.85" y="265.5375"/>
      <point x="470.6125" y="236.7875"/>
      <point x="470.6125" y="196.7" type="curve"/>
      <point x="470.6125" y="141.025"/>
      <point x="422.95" y="105.3875"/>
    </contour>
  </outline>
</glyph>
<glyph name="nine" format="2">
  <advance width="683.75"/>
  <unicode hex="0039"/>
  <outline>
    <contour>
      <point x="313.9125" y="-8.575" type="curve"/>
      <point x="313.9125" y="-8.575" type="line"/>
      <point x="508.875" y="-8.575"/>
      <point x="638.95" y="139.85"/>
      <point x="638.95" y="386.8375" type="curve"/>
      <point x="638.95" y="609.7375"/>
      <point x="519.575" y="750.575"/>
      <point x="327.5125" y="750.575" type="curve"/>
      <point x="164.875" y="750.575"/>
      <point x="37.925" y="649.6"/>
      <point x="37.925" y="507.75" type="curve"/>
      <point x="37.925" y="380.05"/>
      <point x="139.875" y="288.1875"/>
      <point x="293.725" y="288.1875" type="curve"/>
      <point x="358.925" y="288.1875"/>
      <point x="399.2625" y="305.65"/>
      <point x="443.2875" y="325.1" type="curve"/>
      <point x="462.275" y="333.1"/>
      <point x="465.4125" y="329.2375"/>
      <point x="465.4125" y="305.1" type="curve"/>
      <point x="465.4125" y="192.5125"/>
      <point x="411.8" y="113.22500000000001"/>
      <point x="313.9125" y="113.22500000000001" type="curve"/>
      <point x="261.1625" y="113.22500000000001"/>
      <point x="235.2625" y="137.78750000000002"/>
      <point x="210.675" y="173.5" type="curve"/>
      <point x="207.3875" y="179.2125"/>
      <point x="201.675" y="187.625"/>
      <point x="191.2625" y="183.91250000000002" type="curve"/>
      <point x="82.475" y="149.10000000000002" type="line" smooth="yes"/>
      <point x="70.775" y="145.10000000000002"/>
      <point x="71.6375" y="135.4"/>
      <point x="73.925" y="126.7" type="curve"/>
      <point x="94.8375" y="69.1625"/>
      <point x="181.4625" y="-8.575"/>
    </contour>
    <contour>
      <point x="329.3375" y="402.8625" type="curve"/>
      <point x="329.3375" y="402.8625" type="line"/>
      <point x="263.075" y="402.8625"/>
      <point x="210.75" y="446.1"/>
      <point x="210.75" y="514.7375" type="curve"/>
      <point x="210.75" y="584.5375"/>
      <point x="263.9625" y="635.9"/>
      <point x="332.35" y="635.9" type="curve"/>
      <point x="416.8" y="635.9"/>
      <point x="463.9875" y="557.85"/>
      <point x="463.9875" y="472.675" type="curve"/>
      <point x="463.9875" y="452.0875"/>
      <point x="461.125" y="446.65"/>
      <point x="449.9625" y="438.6375" type="curve"/>
      <point x="424.475" y="420.025"/>
      <point x="371.5375" y="402.8625"/>
    </contour>
  </outline>
</glyph>
<glyph name="colon" format="2">
  <advance width="251.1125"/>
  <unicode hex="003A"/>
  <outline>
    <contour>
      <point x="207.5" y="378.5625" type="curve"/>
      <point x="207.5" y="501.2625" type="line"/>
      <point x="207.5" y="512.25"/>
      <point x="202.65" y="517.8125"/>
      <point x="192.66250000000002" y="517.8125" type="curve"/>
      <point x="55.6" y="517.8125" type="line" smooth="yes"/>
      <point x="46.6125" y="517.8125"/>
      <point x="40.05" y="512.25"/>
      <point x="40.05" y="499.55" type="curve"/>
      <point x="40.05" y="376.1375" type="line" smooth="yes"/>
      <point x="40.05" y="362.0125"/>
      <point x="45.6125" y="354.7375"/>
      <point x="62.1625" y="354.7375" type="curve"/>
      <point x="180.25" y="354.7375" type="line" smooth="yes"/>
      <point x="200.22500000000002" y="354.7375"/>
      <point x="207.5" y="362.0125"/>
    </contour>
    <contour>
      <point x="207.5" y="26.825000000000003" type="curve"/>
      <point x="207.5" y="149.525" type="line"/>
      <point x="207.5" y="160.5125"/>
      <point x="202.65" y="166.075"/>
      <point x="192.66250000000002" y="166.075" type="curve"/>
      <point x="55.6" y="166.075" type="line" smooth="yes"/>
      <point x="46.6125" y="166.075"/>
      <point x="40.05" y="160.5125"/>
      <point x="40.05" y="147.8125" type="curve"/>
      <point x="40.05" y="24.4" type="line" smooth="yes"/>
      <point x="40.05" y="10.275"/>
      <point x="45.6125" y="3.0"/>
      <point x="62.1625" y="3.0" type="curve"/>
      <point x="180.25" y="3.0" type="line" smooth="yes"/>
      <point x="200.22500000000002" y="3.0"/>
      <point x="207.5" y="10.275"/>
    </contour>
  </outline>
</glyph>
<glyph name="semicolon" format="2">
  <advance width="259.1625"/>
  <unicode hex="003B"/>
  <outline>
    <contour>
      <point x="54.275" y="-158.9375" type="curve"/>
      <point x="54.275" y="-158.9375" type="line"/>
      <point x="71.9625" y="-158.9375" type="line" smooth="yes"/>
      <point x="84.375" y="-158.9375"/>
      <point x="99.48750000000001" y="-152.6625"/>
      <point x="107.9" y="-140.825" type="curve"/>
      <point x="205.5125" y="13.262500000000001" type="line" smooth="yes"/>
      <point x="207.9375" y="17.6875"/>
      <point x="208.9375" y="20.975"/>
      <point x="208.9375" y="27.4" type="curve"/>
      <point x="208.9375" y="147.8125" type="line" smooth="yes"/>
      <point x="208.9375" y="158.22500000000002"/>
      <point x="204.0875" y="163.78750000000002"/>
      <point x="194.3875" y="163.78750000000002" type="curve"/>
      <point x="56.75" y="163.78750000000002" type="line" smooth="yes"/>
      <point x="47.7625" y="163.78750000000002"/>
      <point x="41.4875" y="158.22500000000002"/>
      <point x="41.4875" y="146.3875" type="curve"/>
      <point x="41.4875" y="19.825000000000003" type="line" smooth="yes"/>
      <point x="41.4875" y="6.5625"/>
      <point x="47.05" y="0.0"/>
      <point x="63.025" y="0.0" type="curve"/>
      <point x="81.2875" y="0.0" type="line" smooth="yes"/>
      <point x="95.275" y="0.0"/>
      <point x="96.5625" y="-9.412500000000001"/>
      <point x="90.0" y="-25.675" type="curve"/>
      <point x="42.0125" y="-138.25" type="line" smooth="yes"/>
      <point x="37.5875" y="-148.8125"/>
      <point x="43.8625" y="-158.9375"/>
    </contour>
    <contour>
      <point x="62.1625" y="349.75" type="curve"/>
      <point x="62.1625" y="349.75" type="line"/>
      <point x="180.25" y="349.75" type="line" smooth="yes"/>
      <point x="200.22500000000002" y="349.75"/>
      <point x="207.5" y="356.3125"/>
      <point x="207.5" y="373.575" type="curve"/>
      <point x="207.5" y="499.125" type="line" smooth="yes"/>
      <point x="207.5" y="510.1125"/>
      <point x="202.65" y="515.675"/>
      <point x="192.66250000000002" y="515.675" type="curve"/>
      <point x="55.6" y="515.675" type="line" smooth="yes"/>
      <point x="46.6125" y="515.675"/>
      <point x="40.05" y="510.1125"/>
      <point x="40.05" y="497.4125" type="curve"/>
      <point x="40.05" y="370.4375" type="line" smooth="yes"/>
      <point x="40.05" y="356.3125"/>
      <point x="45.6125" y="349.75"/>
    </contour>
  </outline>
</glyph>
<glyph name="less" format="2">
  <advance width="577.15"/>
  <unicode hex="003C"/>
  <outline>
    <contour>
      <point x="517.55" y="137.2875" type="curve"/>
      <point x="517.55" y="211.725" type="line"/>
      <point x="517.55" y="230.8375"/>
      <point x="507.1375" y="238.825"/>
      <point x="481.75" y="248.525" type="curve"/>
      <point x="210.0625" y="350.875" type="line"/>
      <point x="482.0375" y="455.075" type="line" smooth="yes"/>
      <point x="506.7125" y="464.775"/>
      <point x="517.8375" y="474.9"/>
      <point x="517.8375" y="492.3" type="curve"/>
      <point x="517.8375" y="568.175" type="line" smooth="yes"/>
      <point x="517.8375" y="584.5875"/>
      <point x="504.2875" y="595.7125"/>
      <point x="486.5875" y="588.575" type="curve"/>
      <point x="64.4375" y="424.1875" type="line" smooth="yes"/>
      <point x="50.8875" y="419.3375"/>
      <point x="42.1875" y="411.6375"/>
      <point x="42.1875" y="395.6625" type="curve"/>
      <point x="42.1875" y="306.5125" type="line" smooth="yes"/>
      <point x="42.1875" y="292.25"/>
      <point x="51.6" y="284.2625"/>
      <point x="64.4375" y="279.4125" type="curve"/>
      <point x="485.875" y="116.3125" type="line" smooth="yes"/>
      <point x="503.425" y="109.46249999999999"/>
      <point x="517.55" y="115.6"/>
    </contour>
  </outline>
</glyph>
<glyph name="equal" format="2">
  <advance width="583.0375"/>
  <unicode hex="003D"/>
  <outline>
    <contour>
      <point x="535.8375" y="437.0625" type="curve"/>
      <point x="535.8375" y="510.225" type="line"/>
      <point x="535.8375" y="519.925"/>
      <point x="529.9875" y="526.2"/>
      <point x="521.0" y="526.2" type="curve"/>
      <point x="63.6" y="525.9125" type="line" smooth="yes"/>
      <point x="54.1875" y="525.9125"/>
      <point x="48.625" y="519.6375"/>
      <point x="48.625" y="507.5125" type="curve"/>
      <point x="48.625" y="434.35" type="line" smooth="yes"/>
      <point x="48.625" y="420.8"/>
      <point x="53.474999999999994" y="414.525"/>
      <point x="69.45" y="414.525" type="curve"/>
      <point x="509.45" y="414.8125" type="line" smooth="yes"/>
      <point x="527.85" y="414.8125"/>
      <point x="535.8375" y="421.0875"/>
    </contour>
    <contour>
      <point x="535.8375" y="202.1" type="curve"/>
      <point x="535.8375" y="275.2625" type="line"/>
      <point x="535.8375" y="284.9625"/>
      <point x="529.9875" y="291.2375"/>
      <point x="521.0" y="291.2375" type="curve"/>
      <point x="63.6" y="290.95" type="line" smooth="yes"/>
      <point x="54.1875" y="290.95"/>
      <point x="48.625" y="284.675"/>
      <point x="48.625" y="272.55" type="curve"/>
      <point x="48.625" y="199.3875" type="line" smooth="yes"/>
      <point x="48.625" y="185.8375"/>
      <point x="53.474999999999994" y="179.5625"/>
      <point x="69.45" y="179.5625" type="curve"/>
      <point x="509.45" y="179.85" type="line" smooth="yes"/>
      <point x="527.85" y="179.85"/>
      <point x="535.8375" y="186.125"/>
    </contour>
  </outline>
</glyph>
<glyph name="greater" format="2">
  <advance width="577.15"/>
  <unicode hex="003E"/>
  <outline>
    <contour>
      <point x="59.6" y="211.725" type="curve"/>
      <point x="59.6" y="211.725" type="line"/>
      <point x="59.6" y="137.2875" type="line" smooth="yes"/>
      <point x="59.6" y="115.6"/>
      <point x="73.725" y="109.46249999999999"/>
      <point x="91.275" y="116.3125" type="curve"/>
      <point x="512.7125" y="279.4125" type="line" smooth="yes"/>
      <point x="525.55" y="284.2625"/>
      <point x="534.9625" y="292.25"/>
      <point x="534.9625" y="306.5125" type="curve"/>
      <point x="534.9625" y="395.6625" type="line" smooth="yes"/>
      <point x="534.9625" y="411.6375"/>
      <point x="526.2625" y="419.3375"/>
      <point x="512.7125" y="424.1875" type="curve"/>
      <point x="90.5625" y="588.575" type="line" smooth="yes"/>
      <point x="72.8625" y="595.7125"/>
      <point x="59.3125" y="584.5875"/>
      <point x="59.3125" y="568.175" type="curve"/>
      <point x="59.3125" y="492.3" type="line" smooth="yes"/>
      <point x="59.3125" y="474.9"/>
      <point x="70.4375" y="464.775"/>
      <point x="95.1125" y="455.075" type="curve"/>
      <point x="367.0875" y="350.875" type="line"/>
      <point x="95.4" y="248.525" type="line" smooth="yes"/>
      <point x="70.0125" y="238.825"/>
      <point x="59.6" y="230.8375"/>
    </contour>
  </outline>
</glyph>
<glyph name="question" format="2">
  <advance width="536.8"/>
  <unicode hex="003F"/>
  <outline>
    <contour>
      <point x="333.425" y="23.825000000000003" type="curve"/>
      <point x="333.425" y="146.525" type="line"/>
      <point x="333.425" y="157.5125"/>
      <point x="327.8625" y="163.075"/>
      <point x="318.5875" y="163.075" type="curve"/>
      <point x="181.525" y="163.075" type="line" smooth="yes"/>
      <point x="171.5375" y="163.075"/>
      <point x="165.975" y="157.22500000000002"/>
      <point x="165.975" y="144.8125" type="curve"/>
      <point x="165.975" y="20.6875" type="line" smooth="yes"/>
      <point x="165.975" y="6.5625"/>
      <point x="171.1125" y="0.0"/>
      <point x="187.375" y="0.0" type="curve"/>
      <point x="306.175" y="0.0" type="line" smooth="yes"/>
      <point x="325.4375" y="0.0"/>
      <point x="333.425" y="6.5625"/>
    </contour>
    <contour>
      <point x="16.925" y="578.25" type="curve"/>
      <point x="16.925" y="578.25" type="line"/>
      <point x="116.75" y="554.275" type="line" smooth="yes"/>
      <point x="128.875" y="551.5625"/>
      <point x="132.725" y="553.5625"/>
      <point x="137.575" y="563.6875" type="curve"/>
      <point x="159.15" y="614.8375"/>
      <point x="210.8" y="647.3"/>
      <point x="262.8625" y="647.3" type="curve"/>
      <point x="316.55" y="647.3"/>
      <point x="356.6125" y="616.8125"/>
      <point x="356.6125" y="569.2875" type="curve"/>
      <point x="356.6125" y="472.125"/>
      <point x="188.8" y="432.6625"/>
      <point x="188.8" y="258.0375" type="curve"/>
      <point x="188.8" y="242.775"/>
      <point x="196.7875" y="234.78750000000002"/>
      <point x="209.625" y="234.78750000000002" type="curve"/>
      <point x="292.2" y="234.78750000000002" type="line" smooth="yes"/>
      <point x="303.325" y="234.78750000000002"/>
      <point x="312.025" y="243.775"/>
      <point x="312.025" y="254.1875" type="curve"/>
      <point x="312.025" y="400.5625"/>
      <point x="508.775" y="420.075"/>
      <point x="508.775" y="577.125" type="curve"/>
      <point x="508.775" y="673.875"/>
      <point x="411.8125" y="752.0"/>
      <point x="264.2875" y="752.0" type="curve"/>
      <point x="141.5" y="752.0"/>
      <point x="51.65" y="697.5875"/>
      <point x="8.9375" y="599.7875" type="curve"/>
      <point x="5.512499999999996" y="591.0875"/>
      <point x="6.512499999999996" y="580.9625"/>
    </contour>
  </outline>
</glyph>
<glyph name="at" format="2">
  <advance width="834.0"/>
  <unicode hex="0040"/>
  <outline>
    <contour>
      <point x="664.25" y="-46.0" type="curve"/>
      <point x="664.25" y="-46.0" type="line"/>
      <point x="671.675" y="-40.575"/>
      <point x="677.5375" y="-34.575"/>
      <point x="671.25" y="-26.0" type="curve"/>
      <point x="639.3" y="17.075" type="line" smooth="yes"/>
      <point x="635.3" y="22.7875"/>
      <point x="629.0125" y="24.5"/>
      <point x="618.875" y="18.075" type="curve"/>
      <point x="572.4375" y="-11.3625"/>
      <point x="532.8625" y="-34.8"/>
      <point x="446.15" y="-34.8" type="curve"/>
      <point x="251.625" y="-34.8"/>
      <point x="133.35" y="77.45"/>
      <point x="133.35" y="262.9875" type="curve"/>
      <point x="133.35" y="432.625"/>
      <point x="231.0125" y="576.675"/>
      <point x="449.425" y="576.675" type="curve"/>
      <point x="586.2875" y="576.675"/>
      <point x="719.2125" y="516.05"/>
      <point x="719.2125" y="332.575" type="curve"/>
      <point x="719.2125" y="222.25"/>
      <point x="671.175" y="167.4625"/>
      <point x="624.1" y="167.4625" type="curve"/>
      <point x="600.2" y="167.4625"/>
      <point x="585.625" y="181.9125"/>
      <point x="593.775" y="228.9625" type="curve"/>
      <point x="629.6375" y="441.575" type="line" smooth="yes"/>
      <point x="630.6375" y="447.0"/>
      <point x="627.6375" y="449.0"/>
      <point x="622.2125" y="449.0" type="curve"/>
      <point x="551.8875" y="449.0" type="line" smooth="yes"/>
      <point x="546.4625" y="449.0"/>
      <point x="543.0375" y="447.2875"/>
      <point x="542.0375" y="442.575" type="curve"/>
      <point x="538.45" y="428.0875" type="line" smooth="yes"/>
      <point x="536.7375" y="421.6625"/>
      <point x="532.7375" y="420.95"/>
      <point x="529.6" y="424.375" type="curve"/>
      <point x="506.6" y="451.9875"/>
      <point x="477.1375" y="475.0"/>
      <point x="421.7125" y="475.0" type="curve"/>
      <point x="298.0375" y="475.0"/>
      <point x="218.75" y="365.875"/>
      <point x="218.75" y="243.7125" type="curve"/>
      <point x="218.0375" y="136.0"/>
      <point x="284.8875" y="67.0"/>
      <point x="370.5625" y="67.0" type="curve"/>
      <point x="429.1625" y="67.0"/>
      <point x="474.3" y="92.3"/>
      <point x="504.3" y="127.8875" type="curve"/>
      <point x="510.3" y="135.175"/>
      <point x="511.875" y="135.8875"/>
      <point x="516.725" y="128.025" type="curve"/>
      <point x="527.8625" y="105.4"/>
      <point x="555.15" y="81.0"/>
      <point x="613.8375" y="81.0" type="curve"/>
      <point x="730.1" y="81.0"/>
      <point x="811.25" y="187.0"/>
      <point x="811.25" y="338.575" type="curve"/>
      <point x="811.25" y="564.7125"/>
      <point x="630.5375" y="661.0"/>
      <point x="449.7125" y="661.0" type="curve"/>
      <point x="197.9" y="661.0"/>
      <point x="38.75" y="477.0"/>
      <point x="38.75" y="261.7125" type="curve"/>
      <point x="38.75" y="55.0"/>
      <point x="184.6" y="-113.0"/>
      <point x="430.5875" y="-113.0" type="curve"/>
      <point x="533.1" y="-113.0"/>
      <point x="616.5" y="-81.875"/>
    </contour>
    <contour>
      <point x="327.175" y="253.975" type="curve"/>
      <point x="327.175" y="253.975" type="line"/>
      <point x="327.175" y="326.3375"/>
      <point x="372.625" y="383.2625"/>
      <point x="429.4125" y="383.2625" type="curve"/>
      <point x="476.4375" y="383.2625"/>
      <point x="509.3625" y="339.3875"/>
      <point x="504.1875" y="278.1125" type="curve"/>
      <point x="500.1625" y="217.05"/>
      <point x="455.4" y="158.7375"/>
      <point x="397.65" y="158.7375" type="curve"/>
      <point x="350.4875" y="158.7375"/>
      <point x="327.175" y="201.325"/>
    </contour>
  </outline>
</glyph>
<glyph name="A" format="2">
  <advance width="770.5375"/>
  <unicode hex="0041"/>
  <anchor x="715.2375" y="9.575" name="ogonek"/>
  <anchor x="385.625" y="0.0" name="bottom"/>
  <anchor x="382.0625" y="742.0" name="top"/>
  <outline>
    <contour>
      <point x="47.8875" y="0.0" type="curve"/>
      <point x="47.8875" y="0.0" type="line"/>
      <point x="163.375" y="0.0" type="line" smooth="yes"/>
      <point x="175.075" y="0.0"/>
      <point x="181.2125" y="5.5625"/>
      <point x="183.6375" y="12.7" type="curve"/>
      <point x="236.7125" y="161.175" type="line" smooth="yes"/>
      <point x="238.7125" y="167.6"/>
      <point x="242.85" y="171.02499999999998"/>
      <point x="250.275" y="171.02499999999998" type="curve"/>
      <point x="493.9" y="171.02499999999998" type="line" smooth="yes"/>
      <point x="502.75" y="171.02499999999998"/>
      <point x="504.75" y="166.8875"/>
      <point x="507.4625" y="160.46249999999998" type="curve"/>
      <point x="558.5375" y="14.412500000000001" type="line" smooth="yes"/>
      <point x="561.9625" y="3.425"/>
      <point x="568.8125" y="0.0"/>
      <point x="577.95" y="0.0" type="curve"/>
      <point x="724.5" y="0.0" type="line" smooth="yes"/>
      <point x="737.2" y="0.0"/>
      <point x="740.9125" y="15.4"/>
      <point x="736.775" y="27.1" type="curve"/>
      <point x="490.45" y="719.8875" type="line" smooth="yes"/>
      <point x="485.6" y="733.3"/>
      <point x="474.6125" y="742.0"/>
      <point x="459.625" y="742.0" type="curve"/>
      <point x="309.775" y="742.0" type="line" smooth="yes"/>
      <point x="294.3625" y="742.0"/>
      <point x="288.9375" y="736.15"/>
      <point x="283.8" y="722.45" type="curve"/>
      <point x="35.1875" y="28.95" type="line" smooth="yes"/>
      <point x="28.912499999999998" y="11.55"/>
      <point x="35.474999999999994" y="0.0"/>
    </contour>
    <contour>
      <point x="453.3875" y="303.65" type="curve"/>
      <point x="288.5" y="303.65" type="line"/>
      <point x="278.225" y="303.65"/>
      <point x="275.5125" y="309.6375"/>
      <point x="279.9375" y="320.9125" type="curve"/>
      <point x="365.0875" y="554.45" type="line" smooth="yes"/>
      <point x="367.95" y="563.4625"/>
      <point x="374.375" y="563.4625"/>
      <point x="377.95" y="554.7375" type="curve"/>
      <point x="461.8125" y="320.775" type="line" smooth="yes"/>
      <point x="465.2375" y="309.7875"/>
      <point x="463.525" y="303.65"/>
    </contour>
  </outline>
</glyph>
<glyph name="B" format="2">
  <advance width="723.1875"/>
  <unicode hex="0042"/>
  <outline>
    <contour>
      <point x="88.51249999999999" y="0.0" type="curve"/>
      <point x="88.51249999999999" y="0.0" type="line"/>
      <point x="373.75" y="0.0" type="line" smooth="yes"/>
      <point x="577.9625" y="0.0"/>
      <point x="680.9625" y="65.0"/>
      <point x="680.9625" y="200.5625" type="curve"/>
      <point x="680.9625" y="289.875"/>
      <point x="636.2125" y="343.175"/>
      <point x="531.9625" y="377.275" type="curve"/>
      <point x="528.1" y="378.275"/>
      <point x="528.1" y="383.5625"/>
      <point x="531.9625" y="384.85" type="curve"/>
      <point x="628.5125" y="425.3875"/>
      <point x="662.9625" y="474.125"/>
      <point x="662.9625" y="547.4375" type="curve"/>
      <point x="662.9625" y="675.0"/>
      <point x="556.7" y="742.0"/>
      <point x="361.4875" y="742.0" type="curve"/>
      <point x="90.225" y="742.0" type="line" smooth="yes"/>
      <point x="77.525" y="742.0"/>
      <point x="69.82499999999999" y="733.5875"/>
      <point x="69.82499999999999" y="720.6" type="curve"/>
      <point x="69.82499999999999" y="17.975" type="line" smooth="yes"/>
      <point x="69.82499999999999" y="7.9875"/>
      <point x="77.1" y="0.0"/>
    </contour>
    <contour>
      <point x="368.75" y="118.375" type="curve"/>
      <point x="258.9125" y="118.375" type="line"/>
      <point x="248.2125" y="118.375"/>
      <point x="244.78750000000002" y="124.22500000000001"/>
      <point x="244.78750000000002" y="136.925" type="curve"/>
      <point x="244.78750000000002" y="296.8375" type="line" smooth="yes"/>
      <point x="244.78750000000002" y="309.5375"/>
      <point x="249.925" y="314.3875"/>
      <point x="264.3375" y="314.3875" type="curve"/>
      <point x="376.3375" y="314.3875" type="line" smooth="yes"/>
      <point x="447.9" y="314.3875"/>
      <point x="499.0125" y="280.3625"/>
      <point x="499.0125" y="216.65" type="curve"/>
      <point x="499.0125" y="157.525"/>
      <point x="455.5" y="118.375"/>
    </contour>
    <contour>
      <point x="376.3375" y="435.6125" type="curve"/>
      <point x="258.9125" y="435.6125" type="line"/>
      <point x="248.2125" y="435.6125"/>
      <point x="244.78750000000002" y="441.4625"/>
      <point x="244.78750000000002" y="454.1625" type="curve"/>
      <point x="244.78750000000002" y="607.075" type="line" smooth="yes"/>
      <point x="244.78750000000002" y="619.4875"/>
      <point x="249.925" y="623.625"/>
      <point x="263.7625" y="623.625" type="curve"/>
      <point x="366.75" y="623.625" type="line" smooth="yes"/>
      <point x="439.05" y="623.625"/>
      <point x="489.5625" y="589.875"/>
      <point x="489.5625" y="527.475" type="curve"/>
      <point x="489.5625" y="464.6125"/>
      <point x="436.5625" y="435.6125"/>
    </contour>
  </outline>
</glyph>
<glyph name="C" format="2">
  <advance width="724.925"/>
  <unicode hex="0043"/>
  <anchor x="382.125" y="742.0" name="top"/>
  <anchor x="382.425" y="0.0" name="bottom"/>
  <outline>
    <contour>
      <point x="382.125" y="752.0" type="curve"/>
      <point x="382.125" y="752.0" type="line"/>
      <point x="173.75" y="752.0"/>
      <point x="43.8" y="607.15"/>
      <point x="43.8" y="377.2625" type="curve"/>
      <point x="43.8" y="146.95"/>
      <point x="173.75" y="-10.0"/>
      <point x="382.425" y="-10.0" type="curve"/>
      <point x="581.8" y="-10.0"/>
      <point x="671.825" y="136.525"/>
      <point x="689.0125" y="206.625" type="curve"/>
      <point x="692.15" y="226.3"/>
      <point x="684.025" y="230.4375"/>
      <point x="678.4625" y="232.15" type="curve"/>
      <point x="579.625" y="252.8375" type="line" smooth="yes"/>
      <point x="567.3625" y="255.2625"/>
      <point x="560.375" y="252.8375"/>
      <point x="557.95" y="246.5625" type="curve"/>
      <point x="521.5125" y="153.675"/>
      <point x="466.2" y="118.925"/>
      <point x="388.5625" y="118.925" type="curve"/>
      <point x="281.1125" y="118.925"/>
      <point x="227.175" y="195.0375"/>
      <point x="227.175" y="374.4125" type="curve"/>
      <point x="227.175" y="554.6625"/>
      <point x="286.675" y="630.2"/>
      <point x="386.975" y="630.2" type="curve"/>
      <point x="463.0375" y="630.2"/>
      <point x="504.5625" y="580.025"/>
      <point x="519.0125" y="511.3875" type="curve"/>
      <point x="521.4375" y="499.6875"/>
      <point x="522.725" y="495.55"/>
      <point x="534.5625" y="495.8375" type="curve"/>
      <point x="669.6" y="504.825" type="line" smooth="yes"/>
      <point x="681.725" y="506.25"/>
      <point x="684.8625" y="510.3875"/>
      <point x="680.3" y="531.775" type="curve"/>
      <point x="658.325" y="656.15"/>
      <point x="537.6125" y="752.0"/>
    </contour>
  </outline>
</glyph>
<glyph name="D" format="2">
  <advance width="751.45"/>
  <unicode hex="0044"/>
  <anchor x="376.2" y="371.0" name="center"/>
  <anchor x="374.475" y="742.0" name="top"/>
  <outline>
    <contour>
      <point x="91.9375" y="742.0" type="curve"/>
      <point x="91.9375" y="742.0" type="line"/>
      <point x="75.675" y="742.0"/>
      <point x="69.82499999999999" y="736.575"/>
      <point x="69.82499999999999" y="721.3125" type="curve"/>
      <point x="69.82499999999999" y="24.25" type="line" smooth="yes"/>
      <point x="69.82499999999999" y="6.5625"/>
      <point x="77.1" y="0.0"/>
      <point x="93.075" y="0.0" type="curve"/>
      <point x="309.7875" y="0.0" type="line" smooth="yes"/>
      <point x="575.95" y="0.0"/>
      <point x="707.225" y="144.925"/>
      <point x="707.225" y="374.0125" type="curve"/>
      <point x="707.225" y="594.2125"/>
      <point x="584.975" y="734.0125"/>
      <point x="314.525" y="741.0" type="curve"/>
      <point x="270.325" y="742.425"/>
      <point x="140.5375" y="742.0"/>
    </contour>
    <contour>
      <point x="254.78750000000002" y="618.35" type="curve"/>
      <point x="254.78750000000002" y="618.35" type="line"/>
      <point x="287.125" y="618.35" type="line" smooth="yes"/>
      <point x="449.325" y="618.35"/>
      <point x="523.85" y="547.5"/>
      <point x="523.85" y="373.1375" type="curve"/>
      <point x="523.85" y="190.5625"/>
      <point x="440.2375" y="123.3625"/>
      <point x="277.2875" y="123.3625" type="curve"/>
      <point x="257.925" y="123.3625" type="line" smooth="yes"/>
      <point x="247.78750000000002" y="123.3625"/>
      <point x="244.78750000000002" y="126.3625"/>
      <point x="244.78750000000002" y="136.6375" type="curve"/>
      <point x="244.78750000000002" y="604.35" type="line" smooth="yes"/>
      <point x="244.78750000000002" y="614.4875"/>
      <point x="247.5" y="618.35"/>
    </contour>
  </outline>
</glyph>
<glyph name="E" format="2">
  <advance width="654.0375"/>
  <unicode hex="0045"/>
  <anchor x="592.4625" y="10.0" name="ogonek"/>
  <anchor x="344.05" y="0.0" name="bottom"/>
  <anchor x="338.5875" y="742.0" name="top"/>
  <outline>
    <contour>
      <point x="69.82499999999999" y="722.7375" type="curve"/>
      <point x="69.82499999999999" y="722.7375" type="line"/>
      <point x="69.82499999999999" y="20.6875" type="line" smooth="yes"/>
      <point x="69.82499999999999" y="6.275"/>
      <point x="75.38749999999999" y="0.0"/>
      <point x="91.65" y="0.0" type="curve"/>
      <point x="596.4625" y="0.0" type="line" smooth="yes"/>
      <point x="610.0125" y="0.0"/>
      <point x="615.575" y="7.7"/>
      <point x="615.575" y="17.6875" type="curve"/>
      <point x="615.575" y="112.8" type="line" smooth="yes"/>
      <point x="615.575" y="124.5"/>
      <point x="609.3" y="128.35000000000002"/>
      <point x="597.6" y="128.35000000000002" type="curve"/>
      <point x="255.925" y="128.35000000000002" type="line" smooth="yes"/>
      <point x="247.5" y="128.35000000000002"/>
      <point x="244.78750000000002" y="130.775"/>
      <point x="244.78750000000002" y="140.91250000000002" type="curve"/>
      <point x="244.78750000000002" y="297.55" type="line" smooth="yes"/>
      <point x="244.78750000000002" y="305.55"/>
      <point x="249.6375" y="310.1125"/>
      <point x="258.775" y="310.1125" type="curve"/>
      <point x="473.3875" y="310.1125" type="line" smooth="yes"/>
      <point x="484.375" y="310.1125"/>
      <point x="488.5125" y="316.1"/>
      <point x="488.5125" y="324.2375" type="curve"/>
      <point x="488.5125" y="420.0625" type="line" smooth="yes"/>
      <point x="488.5125" y="430.7625"/>
      <point x="482.95" y="436.325"/>
      <point x="471.5375" y="436.325" type="curve"/>
      <point x="260.2" y="436.325" type="line" smooth="yes"/>
      <point x="251.0625" y="436.325"/>
      <point x="244.78750000000002" y="441.6"/>
      <point x="244.78750000000002" y="453.3" type="curve"/>
      <point x="244.78750000000002" y="597.525" type="line" smooth="yes"/>
      <point x="244.78750000000002" y="609.0875"/>
      <point x="251.0625" y="613.65"/>
      <point x="263.7625" y="613.65" type="curve"/>
      <point x="583.3125" y="613.65" type="line" smooth="yes"/>
      <point x="597.8625" y="613.65"/>
      <point x="604.1375" y="621.775"/>
      <point x="604.1375" y="634.9" type="curve"/>
      <point x="604.85" y="725.025" type="line" smooth="yes"/>
      <point x="604.85" y="735.725"/>
      <point x="600.0" y="742.0"/>
      <point x="590.0125" y="742.0" type="curve"/>
      <point x="85.94999999999999" y="742.0" type="line" smooth="yes"/>
      <point x="75.38749999999999" y="742.0"/>
      <point x="69.82499999999999" y="735.725"/>
    </contour>
  </outline>
</glyph>
<glyph name="F" format="2">
  <advance width="630.7375"/>
  <unicode hex="0046"/>
  <outline>
    <contour>
      <point x="69.82499999999999" y="722.7375" type="curve"/>
      <point x="69.82499999999999" y="722.7375" type="line"/>
      <point x="69.82499999999999" y="20.6875" type="line" smooth="yes"/>
      <point x="69.82499999999999" y="6.275"/>
      <point x="74.675" y="0.0"/>
      <point x="91.65" y="0.0" type="curve"/>
      <point x="219.2625" y="0.0" type="line" smooth="yes"/>
      <point x="237.0875" y="0.0"/>
      <point x="244.78750000000002" y="6.275"/>
      <point x="244.78750000000002" y="22.675" type="curve"/>
      <point x="244.78750000000002" y="288.825" type="line" smooth="yes"/>
      <point x="244.78750000000002" y="297.5375"/>
      <point x="249.6375" y="302.1"/>
      <point x="258.775" y="302.1" type="curve"/>
      <point x="477.6875" y="302.1" type="line" smooth="yes"/>
      <point x="489.3875" y="302.1"/>
      <point x="492.8125" y="307.375"/>
      <point x="492.8125" y="316.225" type="curve"/>
      <point x="492.8125" y="410.625" type="line" smooth="yes"/>
      <point x="492.8125" y="421.325"/>
      <point x="487.9625" y="426.8875"/>
      <point x="476.55" y="426.8875" type="curve"/>
      <point x="260.2" y="426.8875" type="line" smooth="yes"/>
      <point x="250.35000000000002" y="426.8875"/>
      <point x="244.78750000000002" y="431.45"/>
      <point x="244.78750000000002" y="443.15" type="curve"/>
      <point x="244.78750000000002" y="597.525" type="line" smooth="yes"/>
      <point x="244.78750000000002" y="609.0875"/>
      <point x="250.35000000000002" y="613.65"/>
      <point x="263.7625" y="613.65" type="curve"/>
      <point x="576.1625" y="613.65" type="line" smooth="yes"/>
      <point x="590.7125" y="613.65"/>
      <point x="596.275" y="621.775"/>
      <point x="596.275" y="634.9" type="curve"/>
      <point x="596.9875" y="725.025" type="line" smooth="yes"/>
      <point x="596.9875" y="735.725"/>
      <point x="592.1375" y="742.0"/>
      <point x="582.15" y="742.0" type="curve"/>
      <point x="85.94999999999999" y="742.0" type="line" smooth="yes"/>
      <point x="76.1" y="742.0"/>
      <point x="69.82499999999999" y="735.725"/>
    </contour>
  </outline>
</glyph>
<glyph name="G" format="2">
  <advance width="752.0875"/>
  <unicode hex="0047"/>
  <anchor x="379.7" y="742.0" name="top"/>
  <anchor x="381.1375" y="0.0" name="bottom"/>
  <outline>
    <contour>
      <point x="377.9875" y="-10.0" type="curve"/>
      <point x="377.9875" y="-10.0" type="line"/>
      <point x="493.975" y="-10.0"/>
      <point x="551.3" y="41.4375"/>
      <point x="588.1625" y="86.5" type="curve"/>
      <point x="592.875" y="92.7875"/>
      <point x="596.1625" y="92.5"/>
      <point x="598.3" y="87.925" type="curve"/>
      <point x="626.8" y="16.125" type="line" smooth="yes"/>
      <point x="633.925" y="3.5625"/>
      <point x="642.4875" y="0.0"/>
      <point x="653.3375" y="0.0" type="curve"/>
      <point x="685.3" y="0.0" type="line" smooth="yes"/>
      <point x="694.4375" y="0.0"/>
      <point x="700.2875" y="6.275"/>
      <point x="700.2875" y="15.275" type="curve"/>
      <point x="700.2875" y="351.7625" type="line" smooth="yes"/>
      <point x="700.2875" y="365.7375"/>
      <point x="690.45" y="375.575"/>
      <point x="671.4875" y="375.575" type="curve"/>
      <point x="404.1375" y="377.0" type="line" smooth="yes"/>
      <point x="392.5875" y="377.0"/>
      <point x="387.7375" y="371.4375"/>
      <point x="387.7375" y="363.1625" type="curve"/>
      <point x="387.7375" y="288.15" type="line" smooth="yes"/>
      <point x="387.7375" y="274.8875"/>
      <point x="392.5875" y="270.75"/>
      <point x="404.0" y="270.75" type="curve"/>
      <point x="525.3125" y="270.75" type="line" smooth="yes"/>
      <point x="534.1625" y="270.75"/>
      <point x="537.7375" y="266.1875"/>
      <point x="534.8875" y="256.3375" type="curve"/>
      <point x="532.75" y="227.2125" type="line" smooth="yes"/>
      <point x="519.925" y="167.4125"/>
      <point x="475.0" y="113.22500000000001"/>
      <point x="389.675" y="113.22500000000001" type="curve"/>
      <point x="288.6625" y="113.22500000000001"/>
      <point x="227.175" y="181.5"/>
      <point x="227.175" y="374.0" type="curve"/>
      <point x="227.175" y="555.5"/>
      <point x="284.9625" y="629.4875"/>
      <point x="383.975" y="629.4875" type="curve"/>
      <point x="465.75" y="629.4875"/>
      <point x="515.125" y="573.7375"/>
      <point x="526.85" y="508.9625" type="curve"/>
      <point x="529.275" y="498.2625"/>
      <point x="530.85" y="492.7"/>
      <point x="543.1125" y="492.9875" type="curve"/>
      <point x="675.0125" y="513.2375" type="line" smooth="yes"/>
      <point x="687.85" y="514.95"/>
      <point x="690.7" y="519.375"/>
      <point x="686.425" y="540.475" type="curve"/>
      <point x="665.875" y="646.6125"/>
      <point x="551.15" y="752.0"/>
      <point x="387.5375" y="752.0" type="curve"/>
      <point x="183.025" y="752.0"/>
      <point x="43.8" y="603.3125"/>
      <point x="43.8" y="368.0" type="curve"/>
      <point x="43.8" y="140.4"/>
      <point x="174.4625" y="-10.0"/>
    </contour>
  </outline>
</glyph>
<glyph name="H" format="2">
  <advance width="751.3625"/>
  <unicode hex="0048"/>
  <anchor x="375.1125" y="742.0" name="top"/>
  <anchor x="373.6875" y="0.0" name="bottom"/>
  <outline>
    <contour>
      <point x="257.9125" y="316.8375" type="curve"/>
      <point x="493.1625" y="316.8375" type="line"/>
      <point x="501.725" y="316.8375"/>
      <point x="506.575" y="311.275"/>
      <point x="506.575" y="304.1375" type="curve"/>
      <point x="506.575" y="23.25" type="line" smooth="yes"/>
      <point x="506.575" y="6.275"/>
      <point x="514.5625" y="0.0"/>
      <point x="532.9625" y="0.0" type="curve"/>
      <point x="659.7125" y="0.0" type="line" smooth="yes"/>
      <point x="676.4" y="0.0"/>
      <point x="681.5375" y="6.5625"/>
      <point x="681.5375" y="20.6875" type="curve"/>
      <point x="681.5375" y="722.7375" type="line" smooth="yes"/>
      <point x="681.5375" y="735.725"/>
      <point x="675.2625" y="742.0"/>
      <point x="665.4125" y="742.0" type="curve"/>
      <point x="521.7" y="742.0" type="line" smooth="yes"/>
      <point x="512.1375" y="742.0"/>
      <point x="506.575" y="735.4375"/>
      <point x="506.575" y="724.45" type="curve"/>
      <point x="506.575" y="467.4375" type="line" smooth="yes"/>
      <point x="506.575" y="456.45"/>
      <point x="501.0125" y="450.8875"/>
      <point x="491.45" y="450.8875" type="curve"/>
      <point x="260.2" y="450.8875" type="line" smooth="yes"/>
      <point x="250.35000000000002" y="450.8875"/>
      <point x="244.78750000000002" y="456.1625"/>
      <point x="244.78750000000002" y="467.725" type="curve"/>
      <point x="244.78750000000002" y="724.1625" type="line" smooth="yes"/>
      <point x="244.78750000000002" y="735.725"/>
      <point x="239.22500000000002" y="742.0"/>
      <point x="229.375" y="742.0" type="curve"/>
      <point x="85.94999999999999" y="742.0" type="line" smooth="yes"/>
      <point x="76.1" y="742.0"/>
      <point x="69.82499999999999" y="735.725"/>
      <point x="69.82499999999999" y="722.7375" type="curve"/>
      <point x="69.82499999999999" y="20.6875" type="line" smooth="yes"/>
      <point x="69.82499999999999" y="6.5625"/>
      <point x="74.675" y="0.0"/>
      <point x="91.65" y="0.0" type="curve"/>
      <point x="218.4" y="0.0" type="line" smooth="yes"/>
      <point x="236.8" y="0.0"/>
      <point x="244.78750000000002" y="6.5625"/>
      <point x="244.78750000000002" y="23.25" type="curve"/>
      <point x="244.78750000000002" y="304.425" type="line" smooth="yes"/>
      <point x="244.78750000000002" y="310.9875"/>
      <point x="249.6375" y="316.8375"/>
    </contour>
  </outline>
</glyph>
<glyph name="I" format="2">
  <advance width="314.6125"/>
  <unicode hex="0049"/>
  <anchor x="218.825" y="10.0" name="ogonek"/>
  <anchor x="156.95" y="0.0" name="bottom"/>
  <anchor x="158.525" y="742.0" name="top"/>
  <outline>
    <contour>
      <point x="229.375" y="742.0" type="curve"/>
      <point x="85.94999999999999" y="742.0" type="line"/>
      <point x="76.1" y="742.0"/>
      <point x="69.82499999999999" y="735.725"/>
      <point x="69.82499999999999" y="722.7375" type="curve"/>
      <point x="69.82499999999999" y="20.6875" type="line" smooth="yes"/>
      <point x="69.82499999999999" y="6.275"/>
      <point x="74.675" y="0.0"/>
      <point x="92.225" y="0.0" type="curve"/>
      <point x="217.825" y="0.0" type="line" smooth="yes"/>
      <point x="237.0875" y="0.0"/>
      <point x="244.78750000000002" y="6.275"/>
      <point x="244.78750000000002" y="24.1125" type="curve"/>
      <point x="244.78750000000002" y="724.1625" type="line" smooth="yes"/>
      <point x="244.78750000000002" y="735.725"/>
      <point x="239.9375" y="742.0"/>
    </contour>
  </outline>
</glyph>
<glyph name="J" format="2">
  <advance width="447.45"/>
  <unicode hex="004A"/>
  <anchor x="249.6125" y="742.0" name="top"/>
  <outline>
    <contour>
      <point x="382.3375" y="192.45" type="curve"/>
      <point x="382.3375" y="192.45" type="line"/>
      <point x="382.3375" y="724.1625" type="line" smooth="yes"/>
      <point x="382.3375" y="735.4375"/>
      <point x="377.4875" y="742.0"/>
      <point x="367.2125" y="742.0" type="curve"/>
      <point x="223.925" y="742.0" type="line" smooth="yes"/>
      <point x="213.65" y="742.0"/>
      <point x="207.375" y="735.4375"/>
      <point x="207.375" y="723.025" type="curve"/>
      <point x="207.375" y="235.22500000000002" type="line" smooth="yes"/>
      <point x="207.375" y="160.03750000000002"/>
      <point x="180.3875" y="134.4625"/>
      <point x="126.7875" y="134.4625" type="curve"/>
      <point x="97.025" y="134.4625"/>
      <point x="78.5875" y="142.3375"/>
      <point x="61.15" y="146.6375" type="curve"/>
      <point x="48.6" y="148.6375"/>
      <point x="42.75" y="141.22500000000002"/>
      <point x="41.75" y="129.10000000000002" type="curve"/>
      <point x="32.75" y="38.9625" type="line" smooth="yes"/>
      <point x="31.0375" y="17.8625"/>
      <point x="38.7375" y="9.1625"/>
      <point x="55.9875" y="5.737499999999999" type="curve"/>
      <point x="90.0625" y="-1.4000000000000004"/>
      <point x="130.075" y="-10.0"/>
      <point x="175.1" y="-10.0" type="curve"/>
      <point x="314.1375" y="-10.0"/>
      <point x="382.3375" y="48.2875"/>
    </contour>
  </outline>
</glyph>
<glyph name="K" format="2">
  <advance width="743.825"/>
  <unicode hex="004B"/>
  <anchor x="371.575" y="742.0" name="top"/>
  <anchor x="362.95" y="0.0" name="bottom"/>
  <outline>
    <contour>
      <point x="709.925" y="24.1" type="curve"/>
      <point x="709.925" y="24.1" type="line"/>
      <point x="474.1" y="469.9375" type="line" smooth="yes"/>
      <point x="469.25" y="481.0625"/>
      <point x="469.9625" y="486.05"/>
      <point x="476.2375" y="494.4625" type="curve"/>
      <point x="667.55" y="719.0375" type="line" smooth="yes"/>
      <point x="677.9625" y="730.875"/>
      <point x="669.125" y="742.0"/>
      <point x="651.725" y="742.0" type="curve"/>
      <point x="532.5" y="742.0" type="line" smooth="yes"/>
      <point x="513.675" y="742.0"/>
      <point x="507.4" y="737.4375"/>
      <point x="498.7" y="725.8875" type="curve"/>
      <point x="257.4875" y="422.4625" type="line" smooth="yes"/>
      <point x="250.35000000000002" y="413.9"/>
      <point x="244.78750000000002" y="413.1875"/>
      <point x="244.78750000000002" y="426.3125" type="curve"/>
      <point x="244.78750000000002" y="724.7375" type="line" smooth="yes"/>
      <point x="244.78750000000002" y="735.725"/>
      <point x="239.65" y="742.0"/>
      <point x="229.66250000000002" y="742.0" type="curve"/>
      <point x="85.6625" y="742.0" type="line" smooth="yes"/>
      <point x="76.1" y="742.0"/>
      <point x="69.82499999999999" y="735.4375"/>
      <point x="69.82499999999999" y="723.3125" type="curve"/>
      <point x="69.82499999999999" y="20.4" type="line" smooth="yes"/>
      <point x="69.82499999999999" y="6.275"/>
      <point x="74.9625" y="0.0"/>
      <point x="91.9375" y="0.0" type="curve"/>
      <point x="218.4" y="0.0" type="line" smooth="yes"/>
      <point x="236.8" y="0.0"/>
      <point x="244.78750000000002" y="6.5625"/>
      <point x="244.78750000000002" y="23.25" type="curve"/>
      <point x="244.78750000000002" y="198.975" type="line" smooth="yes"/>
      <point x="244.78750000000002" y="208.4"/>
      <point x="246.075" y="213.5375"/>
      <point x="251.3625" y="219.5375" type="curve"/>
      <point x="339.9" y="326.35" type="line" smooth="yes"/>
      <point x="348.4625" y="337.05"/>
      <point x="353.6" y="338.7625"/>
      <point x="359.025" y="329.9125" type="curve"/>
      <point x="520.125" y="15.6875" type="line" smooth="yes"/>
      <point x="525.6875" y="4.1375"/>
      <point x="535.3875" y="0.0"/>
      <point x="548.9375" y="0.0" type="curve"/>
      <point x="699.0875" y="0.0" type="line" smooth="yes"/>
      <point x="714.4875" y="0.0"/>
      <point x="716.4875" y="11.55"/>
    </contour>
  </outline>
</glyph>
<glyph name="L" format="2">
  <advance width="626.9"/>
  <unicode hex="004C"/>
  <anchor x="159.0875" y="742.0" name="top"/>
  <anchor x="315.4375" y="0.0" name="bottom"/>
  <anchor x="484.9875" y="742.0" name="topright"/>
  <outline>
    <contour>
      <point x="69.82499999999999" y="722.7375" type="curve"/>
      <point x="69.82499999999999" y="722.7375" type="line"/>
      <point x="69.82499999999999" y="20.6875" type="line" smooth="yes"/>
      <point x="69.82499999999999" y="6.5625"/>
      <point x="74.675" y="0.0"/>
      <point x="91.65" y="0.0" type="curve"/>
      <point x="573.6125" y="0.0" type="line"/>
      <point x="587.1625" y="0.0"/>
      <point x="593.4375" y="7.7"/>
      <point x="593.4375" y="17.6875" type="curve"/>
      <point x="593.4375" y="112.8" type="line" smooth="yes"/>
      <point x="593.4375" y="124.5"/>
      <point x="586.45" y="128.35000000000002"/>
      <point x="574.75" y="128.35000000000002" type="curve"/>
      <point x="255.925" y="128.35000000000002" type="line" smooth="yes"/>
      <point x="247.5" y="128.35000000000002"/>
      <point x="244.78750000000002" y="130.775"/>
      <point x="244.78750000000002" y="140.91250000000002" type="curve"/>
      <point x="244.78750000000002" y="724.1625" type="line" smooth="yes"/>
      <point x="244.78750000000002" y="735.725"/>
      <point x="239.9375" y="742.0"/>
      <point x="229.375" y="742.0" type="curve"/>
      <point x="85.94999999999999" y="742.0" type="line" smooth="yes"/>
      <point x="76.1" y="742.0"/>
      <point x="69.82499999999999" y="735.725"/>
    </contour>
  </outline>
</glyph>
<glyph name="M" format="2">
  <advance width="948.825"/>
  <unicode hex="004D"/>
  <outline>
    <contour>
      <point x="90.9375" y="0.0" type="curve"/>
      <point x="90.9375" y="0.0" type="line"/>
      <point x="192.8875" y="0.0" type="line" smooth="yes"/>
      <point x="207.725" y="0.0"/>
      <point x="211.4375" y="3.7125"/>
      <point x="211.4375" y="18.262500000000003" type="curve"/>
      <point x="211.4375" y="509.425" type="line" smooth="yes"/>
      <point x="211.4375" y="519.8375"/>
      <point x="217.0" y="522.4"/>
      <point x="220.85" y="510.1375" type="curve"/>
      <point x="393.6" y="15.7" type="line" smooth="yes"/>
      <point x="397.3125" y="5.1375"/>
      <point x="404.45" y="0.0"/>
      <point x="416.1625" y="0.0" type="curve"/>
      <point x="498.7375" y="0.0" type="line" smooth="yes"/>
      <point x="509.1625" y="0.0"/>
      <point x="516.725" y="5.85"/>
      <point x="520.4375" y="15.9875" type="curve"/>
      <point x="694.625" y="517.275" type="line" smooth="yes"/>
      <point x="697.7625" y="526.6875"/>
      <point x="704.0375" y="527.2625"/>
      <point x="704.0375" y="517.9875" type="curve"/>
      <point x="704.0375" y="20.4" type="line" smooth="yes"/>
      <point x="704.0375" y="6.275"/>
      <point x="709.175" y="0.0"/>
      <point x="725.4375" y="0.0" type="curve"/>
      <point x="853.6125" y="0.0" type="line" smooth="yes"/>
      <point x="871.725" y="0.0"/>
      <point x="879.0" y="6.5625"/>
      <point x="879.0" y="23.5375" type="curve"/>
      <point x="879.0" y="724.1625" type="line" smooth="yes"/>
      <point x="879.0" y="735.725"/>
      <point x="874.15" y="742.0"/>
      <point x="863.5875" y="742.0" type="curve"/>
      <point x="649.3375" y="742.0" type="line" smooth="yes"/>
      <point x="637.6375" y="742.0"/>
      <point x="631.075" y="733.5875"/>
      <point x="626.9375" y="719.325" type="curve"/>
      <point x="482.7625" y="307.9625" type="line" smooth="yes"/>
      <point x="478.9" y="297.525"/>
      <point x="473.1875" y="296.1"/>
      <point x="468.9" y="307.675" type="curve"/>
      <point x="318.0375" y="726.875" type="line"/>
      <point x="313.9" y="738.575"/>
      <point x="308.76250000000005" y="742.0"/>
      <point x="294.35" y="742.0" type="curve"/>
      <point x="87.375" y="742.0" type="line" smooth="yes"/>
      <point x="74.675" y="742.0"/>
      <point x="69.82499999999999" y="736.4375"/>
      <point x="69.82499999999999" y="722.7375" type="curve"/>
      <point x="69.82499999999999" y="22.825000000000003" type="line" smooth="yes"/>
      <point x="69.82499999999999" y="8.7"/>
      <point x="77.525" y="0.0"/>
    </contour>
  </outline>
</glyph>
<glyph name="N" format="2">
  <advance width="759.275"/>
  <unicode hex="004E"/>
  <anchor x="384.7375" y="742.0" name="top"/>
  <anchor x="374.675" y="0.0" name="bottom"/>
  <outline>
    <contour>
      <point x="676.175" y="742.0" type="curve"/>
      <point x="565.1" y="742.0" type="line"/>
      <point x="552.6875" y="742.0"/>
      <point x="547.125" y="735.4375"/>
      <point x="547.125" y="724.45" type="curve"/>
      <point x="547.125" y="311.4875" type="line" smooth="yes"/>
      <point x="547.125" y="298.3625"/>
      <point x="540.125" y="296.63750000000005"/>
      <point x="531.7" y="308.0625" type="curve"/>
      <point x="237.9375" y="727.1625" type="line" smooth="yes"/>
      <point x="228.95" y="739.575"/>
      <point x="223.8125" y="742.0"/>
      <point x="209.4" y="742.0" type="curve"/>
      <point x="88.0875" y="742.0" type="line"/>
      <point x="75.38749999999999" y="742.0"/>
      <point x="69.82499999999999" y="736.4375"/>
      <point x="69.82499999999999" y="722.7375" type="curve"/>
      <point x="69.82499999999999" y="17.125" type="line" smooth="yes"/>
      <point x="69.82499999999999" y="4.425"/>
      <point x="77.525" y="0.0"/>
      <point x="90.225" y="0.0" type="curve"/>
      <point x="194.3125" y="0.0" type="line" smooth="yes"/>
      <point x="209.15" y="0.0"/>
      <point x="215.0" y="5.1375"/>
      <point x="214.2875" y="18.262500000000003" type="curve"/>
      <point x="214.2875" y="458.1625" type="line" smooth="yes"/>
      <point x="214.2875" y="465.45"/>
      <point x="219.2875" y="467.45"/>
      <point x="224.8625" y="459.5875" type="curve"/>
      <point x="543.85" y="12.412500000000001" type="line" smooth="yes"/>
      <point x="552.4125" y="1.1375000000000002"/>
      <point x="558.4125" y="0.0"/>
      <point x="568.55" y="0.0" type="curve"/>
      <point x="670.475" y="0.0" type="line" smooth="yes"/>
      <point x="681.4625" y="0.0"/>
      <point x="689.45" y="5.85"/>
      <point x="689.45" y="15.7" type="curve"/>
      <point x="689.45" y="727.0125" type="line" smooth="yes"/>
      <point x="689.45" y="737.15"/>
      <point x="685.3125" y="742.0"/>
    </contour>
  </outline>
</glyph>
<glyph name="O" format="2">
  <advance width="773.675"/>
  <unicode hex="004F"/>
  <guideline x="-597.375" y="431.0" angle="90.0"/>
  <anchor x="386.8375" y="371.0" name="center"/>
  <anchor x="473.8" y="9.7125" name="ogonek"/>
  <anchor x="387.4125" y="742.0" name="top"/>
  <anchor x="563.3125" y="742.0" name="topright"/>
  <anchor x="20.0" y="742.0" name="topleft"/>
  <anchor x="388.8375" y="0.0" name="bottom"/>
  <outline>
    <contour>
      <point x="387.55" y="-10.0" type="curve"/>
      <point x="387.55" y="-10.0" type="line"/>
      <point x="596.925" y="-10.0"/>
      <point x="729.1625" y="134.1125"/>
      <point x="729.1625" y="369.0" type="curve"/>
      <point x="729.1625" y="605.8875"/>
      <point x="594.7875" y="752.0"/>
      <point x="387.8375" y="752.0" type="curve"/>
      <point x="179.175" y="752.0"/>
      <point x="44.512499999999996" y="605.6"/>
      <point x="44.512499999999996" y="368.425" type="curve"/>
      <point x="44.512499999999996" y="133.1125"/>
      <point x="175.75" y="-10.0"/>
    </contour>
    <contour>
      <point x="388.125" y="113.22500000000001" type="curve"/>
      <point x="388.125" y="113.22500000000001" type="line"/>
      <point x="276.9875" y="113.22500000000001"/>
      <point x="227.8875" y="187.8875"/>
      <point x="227.8875" y="366.8625" type="curve"/>
      <point x="227.8875" y="549.975"/>
      <point x="278.4125" y="630.2"/>
      <point x="387.8375" y="630.2" type="curve"/>
      <point x="495.55" y="630.2"/>
      <point x="545.7875" y="550.2625"/>
      <point x="545.7875" y="366.8625" type="curve"/>
      <point x="545.7875" y="187.6"/>
      <point x="497.55" y="113.22500000000001"/>
    </contour>
  </outline>
</glyph>
<glyph name="P" format="2">
  <advance width="714.6125"/>
  <unicode hex="0050"/>
  <outline>
    <contour>
      <point x="676.55" y="510.775" type="curve"/>
      <point x="676.55" y="510.775" type="line"/>
      <point x="676.55" y="668.325"/>
      <point x="547.025" y="742.0"/>
      <point x="385.6125" y="742.0" type="curve"/>
      <point x="85.94999999999999" y="742.0" type="line" smooth="yes"/>
      <point x="75.38749999999999" y="742.0"/>
      <point x="69.82499999999999" y="735.725"/>
      <point x="69.82499999999999" y="722.7375" type="curve"/>
      <point x="69.82499999999999" y="20.1125" type="line" smooth="yes"/>
      <point x="69.82499999999999" y="6.5625"/>
      <point x="74.9625" y="0.0"/>
      <point x="90.65" y="0.0" type="curve"/>
      <point x="218.97500000000002" y="0.0" type="line" smooth="yes"/>
      <point x="236.8" y="0.0"/>
      <point x="244.78750000000002" y="6.5625"/>
      <point x="244.78750000000002" y="23.25" type="curve"/>
      <point x="244.78750000000002" y="273.1125" type="line" smooth="yes"/>
      <point x="244.78750000000002" y="279.825"/>
      <point x="247.5" y="283.5375"/>
      <point x="255.6375" y="283.5375" type="curve"/>
      <point x="405.8625" y="283.5375" type="line" smooth="yes"/>
      <point x="565.4125" y="283.5375"/>
      <point x="676.55" y="364.2"/>
    </contour>
    <contour>
      <point x="497.45" y="513.775" type="curve"/>
      <point x="497.45" y="513.775" type="line"/>
      <point x="497.45" y="447.775"/>
      <point x="452.6375" y="409.0375"/>
      <point x="381.6375" y="409.0375" type="curve"/>
      <point x="258.9125" y="409.0375" type="line" smooth="yes"/>
      <point x="248.2125" y="409.0375"/>
      <point x="244.78750000000002" y="414.8875"/>
      <point x="244.78750000000002" y="427.5875" type="curve"/>
      <point x="244.78750000000002" y="599.2375" type="line" smooth="yes"/>
      <point x="244.78750000000002" y="611.65"/>
      <point x="249.925" y="616.5"/>
      <point x="263.7625" y="616.5" type="curve"/>
      <point x="375.35" y="616.5" type="line" smooth="yes"/>
      <point x="446.9375" y="616.5"/>
      <point x="497.45" y="583.625"/>
    </contour>
  </outline>
</glyph>
<glyph name="Q" format="2">
  <advance width="775.1"/>
  <unicode hex="0051"/>
  <outline>
    <contour>
      <point x="44.512499999999996" y="369.0" type="curve"/>
      <point x="44.512499999999996" y="369.0" type="line"/>
      <point x="44.512499999999996" y="131.675"/>
      <point x="177.1875" y="-10.0"/>
      <point x="387.55" y="-10.0" type="curve"/>
      <point x="413.55" y="-10.0"/>
      <point x="437.1375" y="-8.425"/>
      <point x="461.425" y="-4.5625" type="curve"/>
      <point x="468.425" y="-3.2750000000000004"/>
      <point x="473.425" y="-4.5625"/>
      <point x="476.425" y="-8.5625" type="curve"/>
      <point x="535.725" y="-87.45"/>
      <point x="606.0" y="-126.275"/>
      <point x="689.9" y="-126.275" type="curve"/>
      <point x="716.725" y="-126.275"/>
      <point x="727.0" y="-121.425"/>
      <point x="727.0" y="-100.45" type="curve"/>
      <point x="727.0" y="-15.75" type="line" smooth="yes"/>
      <point x="727.0" y="-9.899999999999991"/>
      <point x="724.575" y="-3.3374999999999915"/>
      <point x="712.875" y="-1.625" type="curve"/>
      <point x="660.675" y="5.525000000000006"/>
      <point x="607.925" y="40.300000000000004"/>
      <point x="607.925" y="60.175000000000004" type="curve"/>
      <point x="607.925" y="64.17500000000001"/>
      <point x="608.2125" y="66.17500000000001"/>
      <point x="611.075" y="68.4625" type="curve"/>
      <point x="686.7" y="132.1625"/>
      <point x="729.875" y="231.75"/>
      <point x="729.875" y="369.0" type="curve"/>
      <point x="729.875" y="606.4625"/>
      <point x="595.5" y="752.0"/>
      <point x="387.55" y="752.0" type="curve"/>
      <point x="178.8875" y="752.0"/>
      <point x="44.512499999999996" y="606.4625"/>
    </contour>
    <contour>
      <point x="227.8875" y="367.0" type="curve"/>
      <point x="227.8875" y="367.0" type="line"/>
      <point x="227.8875" y="549.25"/>
      <point x="277.55" y="630.2"/>
      <point x="387.55" y="630.2" type="curve"/>
      <point x="496.8375" y="630.2"/>
      <point x="546.5" y="549.25"/>
      <point x="546.5" y="367.575" type="curve"/>
      <point x="546.5" y="187.3125"/>
      <point x="497.4" y="113.22500000000001"/>
      <point x="387.55" y="113.22500000000001" type="curve"/>
      <point x="276.9875" y="113.22500000000001"/>
      <point x="227.8875" y="187.3125"/>
    </contour>
  </outline>
</glyph>
<glyph name="R" format="2">
  <advance width="721.75"/>
  <unicode hex="0052"/>
  <anchor x="351.1" y="742.0" name="top"/>
  <anchor x="360.2375" y="0.0" name="bottom"/>
  <outline>
    <contour>
      <point x="671.675" y="26.825000000000003" type="curve"/>
      <point x="671.675" y="26.825000000000003" type="line"/>
      <point x="539.925" y="325.5125" type="line"/>
      <point x="537.5" y="332.075"/>
      <point x="537.7875" y="338.6375"/>
      <point x="543.925" y="341.0625" type="curve"/>
      <point x="617.9125" y="366.9"/>
      <point x="680.9625" y="435.7125"/>
      <point x="680.9625" y="538.05" type="curve"/>
      <point x="680.9625" y="668.6"/>
      <point x="577.0125" y="742.0"/>
      <point x="398.1" y="742.0" type="curve"/>
      <point x="85.94999999999999" y="742.0" type="line" smooth="yes"/>
      <point x="75.38749999999999" y="742.0"/>
      <point x="69.82499999999999" y="735.725"/>
      <point x="69.82499999999999" y="722.7375" type="curve"/>
      <point x="69.82499999999999" y="20.4" type="line" smooth="yes"/>
      <point x="69.82499999999999" y="6.5625"/>
      <point x="74.675" y="0.0"/>
      <point x="91.225" y="0.0" type="curve"/>
      <point x="218.4" y="0.0" type="line" smooth="yes"/>
      <point x="237.0875" y="0.0"/>
      <point x="244.78750000000002" y="6.5625"/>
      <point x="244.78750000000002" y="23.825000000000003" type="curve"/>
      <point x="244.78750000000002" y="301.25" type="line" smooth="yes"/>
      <point x="244.78750000000002" y="305.4"/>
      <point x="247.78750000000002" y="312.25"/>
      <point x="256.7875" y="312.25" type="curve"/>
      <point x="351.6625" y="312.25" type="line" smooth="yes"/>
      <point x="368.9375" y="312.25"/>
      <point x="376.075" y="307.825"/>
      <point x="379.7875" y="297.975" type="curve"/>
      <point x="487.5875" y="17.55" type="line" smooth="yes"/>
      <point x="491.3" y="5.85"/>
      <point x="498.2875" y="0.0"/>
      <point x="510.275" y="0.0" type="curve"/>
      <point x="656.55" y="0.0" type="line" smooth="yes"/>
      <point x="669.9625" y="0.0"/>
      <point x="677.525" y="12.7"/>
    </contour>
    <contour>
      <point x="381.625" y="429.9125" type="curve"/>
      <point x="381.625" y="429.9125" type="line"/>
      <point x="258.9125" y="429.9125" type="line" smooth="yes"/>
      <point x="248.2125" y="429.9125"/>
      <point x="244.78750000000002" y="435.05"/>
      <point x="244.78750000000002" y="447.4625" type="curve"/>
      <point x="244.78750000000002" y="608.5" type="line" smooth="yes"/>
      <point x="244.78750000000002" y="620.9125"/>
      <point x="249.925" y="625.05"/>
      <point x="264.3375" y="625.05" type="curve"/>
      <point x="387.125" y="625.05" type="line" smooth="yes"/>
      <point x="453.975" y="625.05"/>
      <point x="499.725" y="591.725"/>
      <point x="499.725" y="526.0625" type="curve"/>
      <point x="499.725" y="463.225"/>
      <point x="459.075" y="429.9125"/>
    </contour>
  </outline>
</glyph>
<glyph name="S" format="2">
  <advance width="677.1375"/>
  <unicode hex="0053"/>
  <anchor x="344.65" y="742.0" name="top"/>
  <anchor x="345.8" y="0.0" name="bottom"/>
  <outline>
    <contour>
      <point x="495.725" y="567.15" type="curve"/>
      <point x="495.725" y="567.15" type="line"/>
      <point x="507.425" y="555.1625"/>
      <point x="512.275" y="553.875"/>
      <point x="520.8375" y="560.0125" type="curve"/>
      <point x="604.825" y="622.05" type="line" smooth="yes"/>
      <point x="615.8125" y="630.6125"/>
      <point x="610.25" y="639.8875"/>
      <point x="604.825" y="647.45" type="curve"/>
      <point x="555.6625" y="711.0125"/>
      <point x="455.8875" y="752.0"/>
      <point x="344.3625" y="752.0" type="curve"/>
      <point x="170.3125" y="752.0"/>
      <point x="58.2125" y="655.35"/>
      <point x="58.2125" y="526.7875" type="curve"/>
      <point x="58.2125" y="433.575"/>
      <point x="120.9875" y="351.175"/>
      <point x="237.5375" y="318.0125" type="curve"/>
      <point x="389.25" y="274.975" type="line" smooth="yes"/>
      <point x="451.225" y="255.775"/>
      <point x="472.0875" y="229.7375"/>
      <point x="472.0875" y="195.675" type="curve"/>
      <point x="472.0875" y="138.55"/>
      <point x="415.175" y="111.8"/>
      <point x="328.95" y="111.8" type="curve"/>
      <point x="241.9" y="111.8"/>
      <point x="200.3125" y="138.825"/>
      <point x="152.8625" y="200.1375" type="curve"/>
      <point x="145.725" y="208.9875"/>
      <point x="135.7375" y="212.125"/>
      <point x="120.0375" y="201.5625" type="curve"/>
      <point x="43.4875" y="148.675" type="line" smooth="yes"/>
      <point x="30.6375" y="138.825"/>
      <point x="30.349999999999998" y="131.4"/>
      <point x="37.4875" y="119.4125" type="curve"/>
      <point x="87.9375" y="38.975"/>
      <point x="205.125" y="-10.0"/>
      <point x="341.0625" y="-10.0" type="curve"/>
      <point x="524.8375" y="-10.0"/>
      <point x="639.2125" y="78.525"/>
      <point x="639.2125" y="219.05" type="curve"/>
      <point x="639.2125" y="316.5875"/>
      <point x="585.525" y="393.6875"/>
      <point x="462.5375" y="428.1375" type="curve"/>
      <point x="304.5875" y="473.15" type="line" smooth="yes"/>
      <point x="238.2" y="492.9125"/>
      <point x="223.91250000000002" y="525.125"/>
      <point x="223.91250000000002" y="549.1625" type="curve"/>
      <point x="223.91250000000002" y="595.4375"/>
      <point x="264.425" y="629.4875"/>
      <point x="349.2" y="629.4875" type="curve"/>
      <point x="428.925" y="629.4875"/>
      <point x="467.125" y="599.1875"/>
    </contour>
  </outline>
</glyph>
<glyph name="T" format="2">
  <advance width="680.7125"/>
  <unicode hex="0054"/>
  <anchor x="343.6625" y="742.0" name="top"/>
  <anchor x="343.6625" y="0.0" name="bottom"/>
  <outline>
    <contour>
      <point x="33.4625" y="723.6" type="curve"/>
      <point x="33.4625" y="631.3375" type="line"/>
      <point x="33.4625" y="619.6375"/>
      <point x="40.45" y="615.7875"/>
      <point x="52.15" y="615.7875" type="curve"/>
      <point x="244.825" y="615.7875" type="line" smooth="yes"/>
      <point x="252.825" y="615.7875"/>
      <point x="255.5375" y="612.65"/>
      <point x="255.5375" y="603.225" type="curve"/>
      <point x="255.5375" y="17.125" type="line" smooth="yes"/>
      <point x="255.5375" y="5.5625"/>
      <point x="261.1" y="0.0"/>
      <point x="271.2375" y="0.0" type="curve"/>
      <point x="414.375" y="0.0" type="line" smooth="yes"/>
      <point x="424.225" y="0.0"/>
      <point x="430.5" y="5.5625"/>
      <point x="430.5" y="18.55" type="curve"/>
      <point x="430.5" y="606.075" type="line" smooth="yes"/>
      <point x="430.5" y="613.3625"/>
      <point x="433.925" y="615.7875"/>
      <point x="441.925" y="615.7875" type="curve"/>
      <point x="629.275" y="615.7875" type="line" smooth="yes"/>
      <point x="640.2625" y="615.7875"/>
      <point x="647.25" y="619.6375"/>
      <point x="647.25" y="631.3375" type="curve"/>
      <point x="647.25" y="723.6" type="line" smooth="yes"/>
      <point x="647.25" y="734.3"/>
      <point x="640.975" y="742.0"/>
      <point x="627.425" y="742.0" type="curve"/>
      <point x="53.2875" y="742.0" type="line" smooth="yes"/>
      <point x="39.7375" y="742.0"/>
      <point x="33.4625" y="734.3"/>
    </contour>
  </outline>
</glyph>
<glyph name="U" format="2">
  <advance width="720.525"/>
  <unicode hex="0055"/>
  <anchor x="460.7625" y="9.7125" name="ogonek"/>
  <anchor x="373.525" y="742.0" name="top"/>
  <anchor x="686.15" y="742.0" name="topright"/>
  <anchor x="360.2625" y="0.0" name="bottom"/>
  <outline>
    <contour>
      <point x="659.275" y="274.8875" type="curve"/>
      <point x="659.275" y="274.8875" type="line"/>
      <point x="659.275" y="724.45" type="line" smooth="yes"/>
      <point x="659.275" y="735.4375"/>
      <point x="654.425" y="742.0"/>
      <point x="644.15" y="742.0" type="curve"/>
      <point x="530.375" y="742.0" type="line" smooth="yes"/>
      <point x="520.1" y="742.0"/>
      <point x="514.5375" y="735.4375"/>
      <point x="514.5375" y="723.025" type="curve"/>
      <point x="514.5375" y="273.8875" type="line" smooth="yes"/>
      <point x="514.5375" y="156.85"/>
      <point x="456.8" y="115.3625"/>
      <point x="372.95" y="115.3625" type="curve"/>
      <point x="285.4" y="115.3625"/>
      <point x="236.2125" y="160.8375"/>
      <point x="236.2125" y="270.8875" type="curve"/>
      <point x="236.2125" y="724.1625" type="line" smooth="yes"/>
      <point x="236.2125" y="735.725"/>
      <point x="231.3625" y="742.0"/>
      <point x="220.5125" y="742.0" type="curve"/>
      <point x="77.0875" y="742.0" type="line" smooth="yes"/>
      <point x="67.525" y="742.0"/>
      <point x="61.25" y="735.4375"/>
      <point x="61.25" y="722.45" type="curve"/>
      <point x="61.25" y="293.45" type="line" smooth="yes"/>
      <point x="61.25" y="94.5125"/>
      <point x="141.675" y="-10.0"/>
      <point x="360.2625" y="-10.0" type="curve"/>
      <point x="544.075" y="-10.0"/>
      <point x="659.275" y="64.0125"/>
    </contour>
  </outline>
</glyph>
<glyph name="V" format="2">
  <advance width="733.4625"/>
  <unicode hex="0056"/>
  <outline>
    <contour>
      <point x="684.8625" y="742.0" type="curve"/>
      <point x="684.8625" y="742.0" type="line"/>
      <point x="571.5125" y="742.0" type="line" smooth="yes"/>
      <point x="561.2375" y="742.0"/>
      <point x="552.5375" y="735.725"/>
      <point x="549.825" y="725.025" type="curve"/>
      <point x="390.6125" y="220.32500000000002" type="line" smooth="yes"/>
      <point x="387.0375" y="209.175"/>
      <point x="382.4625" y="209.175"/>
      <point x="378.8875" y="219.32500000000002" type="curve"/>
      <point x="215.275" y="724.7375" type="line" smooth="yes"/>
      <point x="211.85000000000002" y="735.725"/>
      <point x="204.575" y="742.0"/>
      <point x="193.72500000000002" y="742.0" type="curve"/>
      <point x="49.6" y="742.0" type="line" smooth="yes"/>
      <point x="36.1875" y="742.0"/>
      <point x="28.912499999999998" y="730.875"/>
      <point x="33.7625" y="718.4625" type="curve"/>
      <point x="272.375" y="20.6875" type="line" smooth="yes"/>
      <point x="276.5125" y="6.5625"/>
      <point x="286.7875" y="0.0"/>
      <point x="304.2" y="0.0" type="curve"/>
      <point x="428.825" y="0.0" type="line" smooth="yes"/>
      <point x="445.6625" y="0.0"/>
      <point x="455.3625" y="6.5625"/>
      <point x="459.7875" y="20.975" type="curve"/>
      <point x="700.4125" y="718.75" type="line" smooth="yes"/>
      <point x="704.55" y="730.875"/>
      <point x="697.9875" y="742.0"/>
    </contour>
  </outline>
</glyph>
<glyph name="W" format="2">
  <advance width="1083.7"/>
  <unicode hex="0057"/>
  <anchor x="543.6375" y="742.0" name="top"/>
  <outline>
    <contour>
      <point x="1025.55" y="742.0" type="curve"/>
      <point x="1025.55" y="742.0" type="line"/>
      <point x="935.7125" y="742.0" type="line" smooth="yes"/>
      <point x="919.025" y="742.0"/>
      <point x="911.8875" y="735.725"/>
      <point x="909.4625" y="725.025" type="curve"/>
      <point x="782.45" y="262.2375" type="line" smooth="yes"/>
      <point x="779.875" y="252.51250000000002"/>
      <point x="773.7375" y="253.9375"/>
      <point x="771.1625" y="263.375" type="curve"/>
      <point x="639.6" y="724.7375" type="line" smooth="yes"/>
      <point x="636.175" y="735.725"/>
      <point x="630.6125" y="742.0"/>
      <point x="613.35" y="742.0" type="curve"/>
      <point x="506.4125" y="742.0" type="line" smooth="yes"/>
      <point x="488.8625" y="742.0"/>
      <point x="482.3" y="735.15"/>
      <point x="479.875" y="725.025" type="curve"/>
      <point x="350.725" y="267.225" type="line" smooth="yes"/>
      <point x="347.4375" y="255.3625"/>
      <point x="342.725" y="255.3625"/>
      <point x="338.725" y="269.7875" type="curve"/>
      <point x="210.0125" y="724.7375" type="line" smooth="yes"/>
      <point x="206.5875" y="735.725"/>
      <point x="201.025" y="742.0"/>
      <point x="183.7625" y="742.0" type="curve"/>
      <point x="59.0125" y="742.0" type="line" smooth="yes"/>
      <point x="38.474999999999994" y="742.0"/>
      <point x="30.4875" y="728.7375"/>
      <point x="35.3375" y="710.625" type="curve"/>
      <point x="238.7625" y="20.6875" type="line" smooth="yes"/>
      <point x="243.6125" y="6.5625"/>
      <point x="252.4625" y="0.0"/>
      <point x="269.5875" y="0.0" type="curve"/>
      <point x="380.675" y="0.0" type="line" smooth="yes"/>
      <point x="398.5125" y="0.0"/>
      <point x="406.7875" y="6.5625"/>
      <point x="410.925" y="20.975" type="curve"/>
      <point x="537.5" y="456.36249999999995" type="line" smooth="yes"/>
      <point x="542.775" y="471.7625"/>
      <point x="546.9125" y="470.3375"/>
      <point x="550.05" y="457.7875" type="curve"/>
      <point x="676.1875" y="20.6875" type="line" smooth="yes"/>
      <point x="680.325" y="6.5625"/>
      <point x="689.8875" y="0.0"/>
      <point x="707.0125" y="0.0" type="curve"/>
      <point x="814.5375" y="0.0" type="line" smooth="yes"/>
      <point x="831.6625" y="0.0"/>
      <point x="839.9375" y="6.5625"/>
      <point x="844.7875" y="20.975" type="curve"/>
      <point x="1048.9375" y="710.9125" type="line" smooth="yes"/>
      <point x="1053.5" y="728.7375"/>
      <point x="1045.8" y="742.0"/>
    </contour>
  </outline>
</glyph>
<glyph name="X" format="2">
  <advance width="728.975"/>
  <unicode hex="0058"/>
  <outline>
    <contour>
      <point x="686.8" y="39.212500000000006" type="curve"/>
      <point x="686.8" y="39.212500000000006" type="line"/>
      <point x="462.4625" y="380.4125" type="line" smooth="yes"/>
      <point x="454.1875" y="392.825"/>
      <point x="453.7625" y="398.9625"/>
      <point x="461.325" y="410.6625" type="curve"/>
      <point x="663.2625" y="716.7625" type="line" smooth="yes"/>
      <point x="670.9625" y="728.3125"/>
      <point x="671.675" y="742.0"/>
      <point x="653.425" y="742.0" type="curve"/>
      <point x="531.2" y="742.0" type="line" smooth="yes"/>
      <point x="514.375" y="742.0"/>
      <point x="507.3875" y="736.725"/>
      <point x="501.1125" y="725.8875" type="curve"/>
      <point x="376.7625" y="522.9125" type="line" smooth="yes"/>
      <point x="370.475" y="512.2"/>
      <point x="362.2" y="512.4875"/>
      <point x="356.2" y="522.625" type="curve"/>
      <point x="231.85000000000002" y="725.8875" type="line" smooth="yes"/>
      <point x="225.575" y="736.725"/>
      <point x="218.16250000000002" y="742.0"/>
      <point x="200.7625" y="742.0" type="curve"/>
      <point x="54.8875" y="742.0" type="line" smooth="yes"/>
      <point x="37.349999999999994" y="742.0"/>
      <point x="34.925" y="726.3125"/>
      <point x="42.625" y="714.7625" type="curve"/>
      <point x="253.25" y="391.7125" type="line" smooth="yes"/>
      <point x="261.1" y="378.725"/>
      <point x="262.1" y="372.725"/>
      <point x="253.5375" y="360.025" type="curve"/>
      <point x="43.6" y="39.212500000000006" type="line" smooth="yes"/>
      <point x="23.6375" y="8.412500000000001"/>
      <point x="32.05" y="0.0"/>
      <point x="53.725" y="0.0" type="curve"/>
      <point x="165.25" y="0.0" type="line" smooth="yes"/>
      <point x="180.3625" y="0.0"/>
      <point x="191.91250000000002" y="3.85"/>
      <point x="198.1875" y="15.4" type="curve"/>
      <point x="337.525" y="242.0625" type="line" smooth="yes"/>
      <point x="348.2375" y="259.9125"/>
      <point x="353.6625" y="258.9125"/>
      <point x="363.5125" y="242.21249999999998" type="curve"/>
      <point x="505.1375" y="15.4" type="line" smooth="yes"/>
      <point x="511.4125" y="4.5625"/>
      <point x="521.675" y="0.0"/>
      <point x="537.075" y="0.0" type="curve"/>
      <point x="675.675" y="0.0" type="line" smooth="yes"/>
      <point x="697.35" y="0.0"/>
      <point x="706.3375" y="9.125"/>
    </contour>
  </outline>
</glyph>
<glyph name="Y" format="2">
  <advance width="734.9"/>
  <unicode hex="0059"/>
  <anchor x="377.4125" y="742.0" name="top"/>
  <anchor x="367.45" y="0.0" name="bottom"/>
  <anchor x="20.0" y="742.0" name="topleft"/>
  <outline>
    <contour>
      <point x="689.5875" y="742.0" type="curve"/>
      <point x="689.5875" y="742.0" type="line"/>
      <point x="570.25" y="742.0" type="line" smooth="yes"/>
      <point x="554.125" y="742.0"/>
      <point x="548.5625" y="738.8625"/>
      <point x="541.425" y="724.45" type="curve"/>
      <point x="395.125" y="462.35" type="line" smooth="yes"/>
      <point x="387.8375" y="450.0625"/>
      <point x="382.975" y="450.4875"/>
      <point x="376.1125" y="463.6375" type="curve"/>
      <point x="228.1" y="724.45" type="line" smooth="yes"/>
      <point x="220.53750000000002" y="737.8625"/>
      <point x="216.1125" y="742.0"/>
      <point x="199.275" y="742.0" type="curve"/>
      <point x="49.45" y="742.0" type="line" smooth="yes"/>
      <point x="31.6125" y="742.0"/>
      <point x="26.05" y="732.0125"/>
      <point x="34.325" y="718.6" type="curve"/>
      <point x="271.2" y="327.1125" type="line" smooth="yes"/>
      <point x="278.7625" y="314.4125"/>
      <point x="282.6125" y="307.85"/>
      <point x="282.6125" y="290.0125" type="curve"/>
      <point x="282.6125" y="20.975" type="line" smooth="yes"/>
      <point x="282.6125" y="6.85"/>
      <point x="287.75" y="0.0"/>
      <point x="304.5875" y="0.0" type="curve"/>
      <point x="429.75" y="0.0" type="line" smooth="yes"/>
      <point x="449.3" y="0.0"/>
      <point x="457.575" y="6.85"/>
      <point x="457.575" y="24.4" type="curve"/>
      <point x="457.575" y="283.9125" type="line" smooth="yes"/>
      <point x="457.575" y="316.7125"/>
      <point x="458.2875" y="324.9875"/>
      <point x="465.85" y="336.6875" type="curve"/>
      <point x="701.2875" y="722.45" type="line" smooth="yes"/>
      <point x="708.1375" y="733.4375"/>
      <point x="703.7125" y="742.0"/>
    </contour>
  </outline>
</glyph>
<glyph name="Z" format="2">
  <advance width="681.225"/>
  <unicode hex="005A"/>
  <anchor x="352.025" y="742.0" name="top"/>
  <anchor x="336.9375" y="0.0" name="bottom"/>
  <outline>
    <contour>
      <point x="55.1625" y="0.0" type="curve"/>
      <point x="55.1625" y="0.0" type="line"/>
      <point x="619.65" y="0.0" type="line" smooth="yes"/>
      <point x="633.2" y="0.0"/>
      <point x="638.7625" y="7.9875"/>
      <point x="638.7625" y="17.6875" type="curve"/>
      <point x="638.7625" y="114.8" type="line" smooth="yes"/>
      <point x="638.7625" y="125.925"/>
      <point x="632.4875" y="129.775"/>
      <point x="621.3625" y="129.775" type="curve"/>
      <point x="288.7125" y="129.775" type="line" smooth="yes"/>
      <point x="281.15" y="129.775"/>
      <point x="273.7375" y="132.775"/>
      <point x="279.5875" y="142.05" type="curve"/>
      <point x="629.4875" y="652.1375" type="line" smooth="yes"/>
      <point x="639.6125" y="666.4"/>
      <point x="643.0375" y="672.675"/>
      <point x="643.0375" y="684.8" type="curve"/>
      <point x="643.0375" y="726.025" type="line" smooth="yes"/>
      <point x="643.0375" y="735.725"/>
      <point x="637.475" y="742.0"/>
      <point x="627.775" y="742.0" type="curve"/>
      <point x="75.275" y="742.0" type="line" smooth="yes"/>
      <point x="66.2875" y="742.0"/>
      <point x="60.725" y="735.725"/>
      <point x="60.725" y="725.3125" type="curve"/>
      <point x="60.725" y="632.05" type="line" smooth="yes"/>
      <point x="60.725" y="617.7875"/>
      <point x="64.8625" y="612.9375"/>
      <point x="78.4125" y="612.9375" type="curve"/>
      <point x="383.95" y="612.9375" type="line" smooth="yes"/>
      <point x="395.3625" y="612.9375"/>
      <point x="397.3625" y="608.8"/>
      <point x="391.5125" y="599.525" type="curve"/>
      <point x="51.3125" y="97.42500000000001" type="line" smooth="yes"/>
      <point x="36.3375" y="76.17500000000001"/>
      <point x="34.3375" y="72.8875"/>
      <point x="34.3375" y="56.2" type="curve"/>
      <point x="34.3375" y="19.825000000000003" type="line" smooth="yes"/>
      <point x="34.3375" y="4.1375"/>
      <point x="39.1875" y="0.0"/>
    </contour>
  </outline>
</glyph>
<glyph name="bracketleft" format="2">
  <advance width="316.45"/>
  <unicode hex="005B"/>
  <outline>
    <contour>
      <point x="63.25" y="724.6" type="curve"/>
      <point x="63.25" y="724.6" type="line"/>
      <point x="63.5375" y="-144.175" type="line" smooth="yes"/>
      <point x="63.5375" y="-157.0125"/>
      <point x="72.2375" y="-165.0"/>
      <point x="86.7875" y="-165.0" type="curve"/>
      <point x="286.0375" y="-165.0" type="line" smooth="yes"/>
      <point x="297.025" y="-165.0"/>
      <point x="301.1625" y="-160.8625"/>
      <point x="301.1625" y="-149.875" type="curve"/>
      <point x="301.1625" y="-91.82499999999999" type="line" smooth="yes"/>
      <point x="301.1625" y="-82.55"/>
      <point x="296.025" y="-78.125"/>
      <point x="286.0375" y="-78.125" type="curve"/>
      <point x="205.5875" y="-78.125" type="line" smooth="yes"/>
      <point x="192.75" y="-78.125"/>
      <point x="188.9" y="-75.69999999999999"/>
      <point x="188.9" y="-61.4375" type="curve"/>
      <point x="189.1875" y="633.5875" type="line" smooth="yes"/>
      <point x="189.1875" y="648.5625"/>
      <point x="195.4625" y="655.125"/>
      <point x="209.0125" y="655.125" type="curve"/>
      <point x="288.75" y="655.125" type="line" smooth="yes"/>
      <point x="296.3125" y="655.125"/>
      <point x="301.45" y="659.2625"/>
      <point x="301.45" y="666.825" type="curve"/>
      <point x="301.45" y="731.3" type="line" smooth="yes"/>
      <point x="301.45" y="738.8625"/>
      <point x="298.025" y="742.0"/>
      <point x="288.75" y="742.0" type="curve"/>
      <point x="84.075" y="742.0" type="line" smooth="yes"/>
      <point x="68.8125" y="742.0"/>
      <point x="63.25" y="736.4375"/>
    </contour>
  </outline>
</glyph>
<glyph name="backslash" format="2">
  <advance width="365.05"/>
  <unicode hex="005C"/>
  <outline>
    <contour>
      <point x="278.1375" y="-17.25" type="curve"/>
      <point x="278.1375" y="-17.25" type="line"/>
      <point x="345.6125" y="-17.25" type="line" smooth="yes"/>
      <point x="357.7375" y="-17.25"/>
      <point x="361.5875" y="-11.6875"/>
      <point x="358.45" y="-2.2749999999999986" type="curve"/>
      <point x="108.875" y="727.45" type="line" smooth="yes"/>
      <point x="105.73750000000001" y="736.4375"/>
      <point x="97.75" y="742.0"/>
      <point x="88.05000000000001" y="742.0" type="curve"/>
      <point x="20.575" y="742.0" type="line" smooth="yes"/>
      <point x="4.6" y="742.0"/>
      <point x="0.75" y="734.0125"/>
      <point x="7.025" y="715.6125" type="curve"/>
      <point x="250.0375" y="3.575000000000003" type="line" smooth="yes"/>
      <point x="255.6" y="-12.399999999999999"/>
      <point x="264.5875" y="-17.25"/>
    </contour>
  </outline>
</glyph>
<glyph name="asciicircum" format="2">
  <advance width="475.2875"/>
  <unicode hex="005E"/>
  <outline>
    <contour>
      <point x="246.275" y="360.1125" type="curve"/>
      <point x="337.5" y="133.6" type="line"/>
      <point x="340.2125" y="125.75"/>
      <point x="350.2" y="124.8875"/>
      <point x="360.475" y="124.8875" type="curve"/>
      <point x="425.3875" y="124.8875" type="line" smooth="yes"/>
      <point x="437.0875" y="124.8875"/>
      <point x="442.65" y="130.025"/>
      <point x="437.8" y="142.4375" type="curve"/>
      <point x="285.25" y="504.7125" type="line" smooth="yes"/>
      <point x="264.5375" y="553.2875"/>
      <point x="207.4625" y="550.0"/>
      <point x="188.0375" y="504.0" type="curve"/>
      <point x="36.0625" y="145.4375" type="line" smooth="yes"/>
      <point x="30.925" y="133.025"/>
      <point x="35.349999999999994" y="125.4625"/>
      <point x="45.3375" y="125.4625" type="curve"/>
      <point x="113.3875" y="125.4625" type="line" smooth="yes"/>
      <point x="124.0875" y="125.4625"/>
      <point x="131.3625" y="126.0375"/>
      <point x="134.7875" y="133.8875" type="curve"/>
      <point x="226.3" y="360.1125" type="line" smooth="yes"/>
      <point x="231.15" y="371.8125"/>
      <point x="241.1375" y="371.8125"/>
    </contour>
  </outline>
</glyph>
<glyph name="underscore" format="2">
  <advance width="544.4625"/>
  <unicode hex="005F"/>
  <outline>
    <contour>
      <point x="495.8375" y="-120.7875" type="curve"/>
      <point x="495.8375" y="-47.7625" type="line"/>
      <point x="495.8375" y="-38.0625"/>
      <point x="489.9875" y="-31.787499999999998"/>
      <point x="481.0" y="-31.787499999999998" type="curve"/>
      <point x="63.6" y="-32.075" type="line" smooth="yes"/>
      <point x="54.1875" y="-32.075"/>
      <point x="48.625" y="-38.349999999999994"/>
      <point x="48.625" y="-50.474999999999994" type="curve"/>
      <point x="48.625" y="-123.5" type="line" smooth="yes"/>
      <point x="48.625" y="-137.05"/>
      <point x="53.474999999999994" y="-143.325"/>
      <point x="69.45" y="-143.325" type="curve"/>
      <point x="469.45" y="-143.0375" type="line" smooth="yes"/>
      <point x="487.85" y="-143.0375"/>
      <point x="495.8375" y="-136.7625"/>
    </contour>
  </outline>
</glyph>
<glyph name="a" format="2">
  <advance width="562.9375"/>
  <unicode hex="0061"/>
  <anchor x="485.2" y="11.15" name="ogonek"/>
  <anchor x="274.7" y="0.0" name="bottom"/>
  <anchor x="280.9625" y="530.0" name="top"/>
  <outline>
    <contour>
      <point x="340.3125" y="50.625" type="curve"/>
      <point x="340.3125" y="50.625" type="line"/>
      <point x="353.8625" y="62.325"/>
      <point x="360.7125" y="61.325"/>
      <point x="362.425" y="50.05" type="curve"/>
      <point x="363.7125" y="27.525000000000002" type="line" smooth="yes"/>
      <point x="365.85" y="11.975"/>
      <point x="370.275" y="0.0"/>
      <point x="384.825" y="0.0" type="curve"/>
      <point x="487.6125" y="0.0" type="line" smooth="yes"/>
      <point x="502.875" y="0.0"/>
      <point x="506.875" y="5.5625"/>
      <point x="506.875" y="22.1125" type="curve"/>
      <point x="506.875" y="372.7" type="line" smooth="yes"/>
      <point x="506.875" y="473.575"/>
      <point x="446.4125" y="540.0"/>
      <point x="282.1125" y="540.0" type="curve"/>
      <point x="161.4625" y="540.0"/>
      <point x="77.3625" y="502.2625"/>
      <point x="43.912499999999994" y="423.875" type="curve"/>
      <point x="36.349999999999994" y="404.625"/>
      <point x="40.912499999999994" y="400.2"/>
      <point x="48.9" y="398.2" type="curve"/>
      <point x="149.1375" y="375.3625" type="line" smooth="yes"/>
      <point x="163.1125" y="372.3625"/>
      <point x="166.53750000000002" y="375.075"/>
      <point x="171.25" y="384.35" type="curve"/>
      <point x="196.3" y="427.9625"/>
      <point x="235.3375" y="444.2875"/>
      <point x="275.125" y="444.2875" type="curve"/>
      <point x="329.5" y="444.2875"/>
      <point x="360.0" y="413.8"/>
      <point x="360.0" y="363.0" type="curve"/>
      <point x="360.0" y="341.975" type="line" smooth="yes"/>
      <point x="360.0" y="330.8375"/>
      <point x="351.15" y="327.975"/>
      <point x="344.425" y="327.6875" type="curve"/>
      <point x="309.25" y="325.1" type="line" smooth="yes"/>
      <point x="127.4375" y="321.075"/>
      <point x="19.5" y="248.1125"/>
      <point x="19.5" y="135.7125" type="curve"/>
      <point x="19.5" y="50.7"/>
      <point x="80.9375" y="-10.0"/>
      <point x="182.375" y="-10.0" type="curve"/>
      <point x="247.825" y="-10.0"/>
      <point x="298.85" y="13.4375"/>
    </contour>
    <contour>
      <point x="360.0" y="236.075" type="curve"/>
      <point x="360.0" y="236.075" type="line"/>
      <point x="360.0" y="171.0" type="line" smooth="yes"/>
      <point x="360.0" y="151.6875"/>
      <point x="346.4125" y="134.075"/>
      <point x="327.225" y="118.325" type="curve"/>
      <point x="308.4625" y="103.2875"/>
      <point x="281.55" y="90.7"/>
      <point x="248.9375" y="90.7" type="curve"/>
      <point x="200.0" y="90.7"/>
      <point x="169.8" y="116.025"/>
      <point x="169.8" y="155.8125" type="curve"/>
      <point x="169.8" y="217.85"/>
      <point x="248.91250000000002" y="247.4625"/>
      <point x="316.85" y="250.9125" type="curve"/>
      <point x="345.2875" y="252.925" type="line" smooth="yes"/>
      <point x="356.425" y="253.2125"/>
      <point x="360.0" y="247.7875"/>
    </contour>
  </outline>
</glyph>
<glyph name="b" format="2">
  <advance width="609.1"/>
  <unicode hex="0062"/>
  <outline>
    <contour>
      <point x="77.775" y="0.0" type="curve"/>
      <point x="142.925" y="0.0" type="line"/>
      <point x="155.6375" y="0.0"/>
      <point x="162.2" y="5.85"/>
      <point x="165.7625" y="20.125" type="curve"/>
      <point x="177.7375" y="68.275" type="line" smooth="yes"/>
      <point x="179.875" y="76.5625"/>
      <point x="184.1625" y="77.5625"/>
      <point x="189.875" y="71.275" type="curve"/>
      <point x="221.1125" y="30.05"/>
      <point x="273.9625" y="-10.0"/>
      <point x="348.4625" y="-10.0" type="curve"/>
      <point x="493.8875" y="-10.0"/>
      <point x="575.75" y="98.1375"/>
      <point x="575.75" y="268.425" type="curve"/>
      <point x="575.75" y="430.25"/>
      <point x="503.2" y="540.0"/>
      <point x="366.5875" y="540.0" type="curve"/>
      <point x="304.05" y="540.0"/>
      <point x="258.7375" y="514.0625"/>
      <point x="226.65" y="483.6875" type="curve"/>
      <point x="216.9375" y="475.6875"/>
      <point x="209.375" y="475.6875"/>
      <point x="209.375" y="490.825" type="curve"/>
      <point x="209.375" y="723.875" type="line" smooth="yes"/>
      <point x="209.375" y="735.4375"/>
      <point x="204.525" y="742.0"/>
      <point x="194.25" y="742.0" type="curve"/>
      <point x="71.5" y="742.0" type="line" smooth="yes"/>
      <point x="61.9375" y="742.0"/>
      <point x="55.375" y="735.4375"/>
      <point x="55.375" y="722.7375" type="curve"/>
      <point x="55.375" y="21.55" type="line" smooth="yes"/>
      <point x="55.375" y="6.5625"/>
      <point x="60.512499999999996" y="0.0"/>
    </contour>
    <contour>
      <point x="209.375" y="182.7" type="curve"/>
      <point x="209.375" y="388.6375" type="line"/>
      <point x="235.125" y="420.25"/>
      <point x="269.9125" y="442.15"/>
      <point x="313.275" y="442.15" type="curve"/>
      <point x="382.1125" y="442.15"/>
      <point x="419.4625" y="389.05"/>
      <point x="419.4625" y="265.575" type="curve"/>
      <point x="419.4625" y="135.0625"/>
      <point x="375.7875" y="84.2875"/>
      <point x="308.8375" y="84.2875" type="curve"/>
      <point x="254.7625" y="84.2875"/>
      <point x="209.375" y="123.7875"/>
    </contour>
  </outline>
</glyph>
<glyph name="c" format="2">
  <advance width="550.5375"/>
  <unicode hex="0063"/>
  <anchor x="297.1375" y="530.0" name="top"/>
  <anchor x="297.0" y="0.0" name="bottom"/>
  <outline>
    <contour>
      <point x="297.425" y="540.0" type="curve"/>
      <point x="297.425" y="540.0" type="line"/>
      <point x="144.3125" y="540.0"/>
      <point x="31.0625" y="427.1375"/>
      <point x="31.0625" y="263.0" type="curve"/>
      <point x="31.0625" y="100.7125"/>
      <point x="142.3125" y="-10.0"/>
      <point x="297.425" y="-10.0" type="curve"/>
      <point x="437.2875" y="-10.0"/>
      <point x="505.0125" y="83.15"/>
      <point x="525.9375" y="142.625" type="curve"/>
      <point x="529.3625" y="154.4625"/>
      <point x="527.65" y="159.8875"/>
      <point x="518.95" y="161.8875" type="curve"/>
      <point x="445.3625" y="179.025" type="line" smooth="yes"/>
      <point x="434.95" y="181.3125"/>
      <point x="431.525" y="179.6"/>
      <point x="428.2375" y="174.3125" type="curve"/>
      <point x="397.775" y="122.7"/>
      <point x="368.7125" y="89.275"/>
      <point x="309.975" y="89.275" type="curve"/>
      <point x="234.2875" y="89.275"/>
      <point x="187.0625" y="145.0875"/>
      <point x="187.0625" y="265.0" type="curve"/>
      <point x="187.0625" y="382.0625"/>
      <point x="232.15" y="439.3"/>
      <point x="302.425" y="439.3" type="curve"/>
      <point x="352.725" y="439.3"/>
      <point x="372.075" y="405.325"/>
      <point x="390.7375" y="368.25" type="curve"/>
      <point x="393.3125" y="358.975"/>
      <point x="397.3125" y="355.8375"/>
      <point x="406.0125" y="357.125" type="curve"/>
      <point x="510.525" y="366.7125" type="line" smooth="yes"/>
      <point x="523.5" y="368.0"/>
      <point x="528.0625" y="374.275"/>
      <point x="523.35" y="388.1125" type="curve"/>
      <point x="498.725" y="461.95"/>
      <point x="424.9" y="540.0"/>
    </contour>
  </outline>
</glyph>
<glyph name="d" format="2">
  <advance width="609.1"/>
  <unicode hex="0064"/>
  <anchor x="309.0125" y="265.0" name="center"/>
  <anchor x="305.5625" y="0.0" name="bottom"/>
  <anchor x="602.775" y="590.95" name="topright"/>
  <outline>
    <contour>
      <point x="423.125" y="0.0" type="curve"/>
      <point x="423.125" y="0.0" type="line"/>
      <point x="531.0375" y="0.0" type="line" smooth="yes"/>
      <point x="548.5875" y="0.0"/>
      <point x="553.725" y="6.5625"/>
      <point x="553.725" y="21.262500000000003" type="curve"/>
      <point x="553.725" y="723.025" type="line" smooth="yes"/>
      <point x="553.725" y="735.4375"/>
      <point x="547.1625" y="742.0"/>
      <point x="537.8875" y="742.0" type="curve"/>
      <point x="415.85" y="742.0" type="line" smooth="yes"/>
      <point x="405.2875" y="742.0"/>
      <point x="400.4375" y="735.4375"/>
      <point x="400.4375" y="724.1625" type="curve"/>
      <point x="400.4375" y="495.1375" type="line" smooth="yes"/>
      <point x="400.4375" y="480.0"/>
      <point x="393.45" y="478.85"/>
      <point x="382.875" y="487.425" type="curve"/>
      <point x="344.75" y="522.825"/>
      <point x="305.3125" y="540.0"/>
      <point x="252.2625" y="540.0" type="curve"/>
      <point x="131.625" y="540.0"/>
      <point x="32.775" y="429.275"/>
      <point x="32.775" y="260.7" type="curve"/>
      <point x="32.775" y="80.85"/>
      <point x="120.8125" y="-10.0"/>
      <point x="241.6875" y="-10.0" type="curve"/>
      <point x="313.4625" y="-10.0"/>
      <point x="355.9125" y="21.2125"/>
      <point x="388.3" y="51.75" type="curve"/>
      <point x="395.5875" y="58.325"/>
      <point x="402.4375" y="57.325"/>
      <point x="402.4375" y="47.75" type="curve"/>
      <point x="402.4375" y="19.55" type="line" smooth="yes"/>
      <point x="402.4375" y="5.425"/>
      <point x="411.85" y="0.0"/>
    </contour>
    <contour>
      <point x="399.725" y="391.8" type="curve"/>
      <point x="399.725" y="391.8" type="line"/>
      <point x="399.725" y="174.275" type="line" smooth="yes"/>
      <point x="399.725" y="129.2375"/>
      <point x="356.9375" y="86.42500000000001"/>
      <point x="301.55" y="86.42500000000001" type="curve"/>
      <point x="235.8875" y="86.42500000000001"/>
      <point x="188.775" y="134.9125"/>
      <point x="188.775" y="262.5625" type="curve"/>
      <point x="188.775" y="388.9125"/>
      <point x="236.725" y="440.725"/>
      <point x="303.85" y="440.725" type="curve"/>
      <point x="343.475" y="440.725"/>
      <point x="370.675" y="423.4125"/>
    </contour>
  </outline>
</glyph>
<glyph name="e" format="2">
  <advance width="586.2625"/>
  <unicode hex="0065"/>
  <anchor x="421.5" y="23.7" name="ogonek"/>
  <anchor x="302.85" y="0.0" name="bottom"/>
  <anchor x="299.85" y="530.0" name="top"/>
  <outline>
    <contour>
      <point x="189.91250000000002" y="220.05" type="curve"/>
      <point x="189.91250000000002" y="220.05" type="line"/>
      <point x="189.91250000000002" y="230.6125"/>
      <point x="194.05" y="236.1875"/>
      <point x="202.325" y="236.1875" type="curve"/>
      <point x="542.075" y="236.1875" type="line" smooth="yes"/>
      <point x="558.5" y="236.9"/>
      <point x="558.6375" y="245.3375"/>
      <point x="558.6375" y="259.75" type="curve"/>
      <point x="558.6375" y="437.0125"/>
      <point x="451.4" y="540.0"/>
      <point x="299.0" y="540.0" type="curve"/>
      <point x="153.0125" y="540.0"/>
      <point x="31.0625" y="428.875"/>
      <point x="31.0625" y="257.4375" type="curve"/>
      <point x="31.0625" y="99.2875"/>
      <point x="146.45" y="-10.0"/>
      <point x="301.85" y="-10.0" type="curve"/>
      <point x="408.675" y="-10.0"/>
      <point x="477.25" y="19.875"/>
      <point x="541.775" y="112.825" type="curve"/>
      <point x="549.05" y="121.8125"/>
      <point x="546.625" y="129.375"/>
      <point x="538.6375" y="132.8" type="curve"/>
      <point x="467.1875" y="163.475" type="line" smooth="yes"/>
      <point x="456.775" y="167.9"/>
      <point x="453.775" y="166.9"/>
      <point x="449.0625" y="161.6125" type="curve"/>
      <point x="407.3625" y="113.725"/>
      <point x="368.3125" y="94.97500000000001"/>
      <point x="321.0875" y="94.97500000000001" type="curve"/>
      <point x="247.5625" y="94.97500000000001"/>
      <point x="189.91250000000002" y="144.1"/>
    </contour>
    <contour>
      <point x="391.3375" y="319.925" type="curve"/>
      <point x="192.3375" y="320.6375" type="line"/>
      <point x="191.3375" y="393.5625"/>
      <point x="237.9625" y="445.7125"/>
      <point x="305.125" y="445.7125" type="curve"/>
      <point x="374.1" y="445.7125"/>
      <point x="408.3375" y="384.075"/>
      <point x="408.3375" y="333.925" type="curve"/>
      <point x="408.3375" y="322.2125"/>
      <point x="404.625" y="319.925"/>
    </contour>
  </outline>
</glyph>
<glyph name="f" format="2">
  <advance width="402.475"/>
  <unicode hex="0066"/>
  <outline>
    <contour>
      <point x="362.925" y="530.0" type="curve"/>
      <point x="362.925" y="530.0" type="line"/>
      <point x="279.5125" y="530.0" type="line" smooth="yes"/>
      <point x="272.375" y="530.0"/>
      <point x="268.2375" y="532.7125"/>
      <point x="268.2375" y="541.275" type="curve"/>
      <point x="268.2375" y="579.975" type="line" smooth="yes"/>
      <point x="268.2375" y="614.5875"/>
      <point x="287.65" y="639.3125"/>
      <point x="318.4125" y="639.3125" type="curve"/>
      <point x="372.05" y="639.3125" type="line" smooth="yes"/>
      <point x="382.0375" y="639.3125"/>
      <point x="387.175" y="646.3"/>
      <point x="387.175" y="655.575" type="curve"/>
      <point x="386.4625" y="721.4625" type="line" smooth="yes"/>
      <point x="386.4625" y="734.3"/>
      <point x="378.7625" y="742.0"/>
      <point x="364.075" y="742.0" type="curve"/>
      <point x="262.8625" y="742.0" type="line" smooth="yes"/>
      <point x="170.75" y="742.0"/>
      <point x="117.8" y="691.45"/>
      <point x="117.8" y="605.8875" type="curve"/>
      <point x="117.8" y="544.8375" type="line" smooth="yes"/>
      <point x="117.8" y="534.1375"/>
      <point x="115.0875" y="530.0"/>
      <point x="105.8125" y="530.0" type="curve"/>
      <point x="39.125" y="530.0" type="line" smooth="yes"/>
      <point x="25.8625" y="530.0"/>
      <point x="20.3" y="522.3"/>
      <point x="20.3" y="512.6" type="curve"/>
      <point x="20.3" y="439.0125" type="line" smooth="yes"/>
      <point x="20.3" y="427.8875"/>
      <point x="26.575" y="423.75"/>
      <point x="37.7" y="423.75" type="curve"/>
      <point x="110.375" y="423.75" type="line" smooth="yes"/>
      <point x="115.8" y="423.75"/>
      <point x="117.8" y="420.75"/>
      <point x="117.8" y="414.6125" type="curve"/>
      <point x="117.8" y="17.125" type="line" smooth="yes"/>
      <point x="117.8" y="5.85"/>
      <point x="123.3625" y="0.0"/>
      <point x="132.925" y="0.0" type="curve"/>
      <point x="255.675" y="0.0" type="line" smooth="yes"/>
      <point x="265.95" y="0.0"/>
      <point x="271.8" y="5.85"/>
      <point x="271.8" y="18.8375" type="curve"/>
      <point x="271.8" y="413.1875" type="line" smooth="yes"/>
      <point x="271.8" y="420.325"/>
      <point x="275.9375" y="423.75"/>
      <point x="282.3625" y="423.75" type="curve"/>
      <point x="364.775" y="423.75" type="line" smooth="yes"/>
      <point x="375.1875" y="423.75"/>
      <point x="382.175" y="427.8875"/>
      <point x="382.175" y="439.0125" type="curve"/>
      <point x="382.175" y="512.6" type="line" smooth="yes"/>
      <point x="382.175" y="522.3"/>
      <point x="375.9" y="530.0"/>
    </contour>
  </outline>
</glyph>
<glyph name="g" format="2">
  <advance width="632.5875"/>
  <unicode hex="0067"/>
  <anchor x="299.3875" y="530.0" name="top"/>
  <outline>
    <contour>
      <point x="591.425" y="552.8" type="curve"/>
      <point x="591.425" y="552.8" type="line"/>
      <point x="560.4125" y="552.8"/>
      <point x="511.8875" y="526.2375"/>
      <point x="486.9" y="494.85" type="curve"/>
      <point x="479.9" y="486.2875"/>
      <point x="468.775" y="485.575"/>
      <point x="459.6375" y="493.0" type="curve"/>
      <point x="426.35" y="519.8625"/>
      <point x="372.6625" y="538.0"/>
      <point x="299.5375" y="538.0" type="curve"/>
      <point x="134.05" y="538.0"/>
      <point x="46.787499999999994" y="470.725"/>
      <point x="46.787499999999994" y="371.85" type="curve"/>
      <point x="46.787499999999994" y="310.5625"/>
      <point x="80.7625" y="265.2875"/>
      <point x="143.6" y="236.425" type="curve"/>
      <point x="152.7375" y="231.0"/>
      <point x="148.325" y="227.1375"/>
      <point x="141.75" y="224.425" type="curve"/>
      <point x="88.9" y="203.4375"/>
      <point x="44.824999999999996" y="172.45"/>
      <point x="44.824999999999996" y="132.6375" type="curve"/>
      <point x="44.824999999999996" y="97.1"/>
      <point x="70.075" y="74.6875"/>
      <point x="102.775" y="59.125" type="curve"/>
      <point x="110.4875" y="55.4125"/>
      <point x="111.9125" y="51.4125"/>
      <point x="102.775" y="48.125" type="curve"/>
      <point x="46.9" y="27.375"/>
      <point x="7.212499999999999" y="0.3374999999999986"/>
      <point x="7.212499999999999" y="-45.525000000000006" type="curve"/>
      <point x="7.212499999999999" y="-132.1125"/>
      <point x="104.6125" y="-175.0"/>
      <point x="297.8" y="-175.0" type="curve"/>
      <point x="484.425" y="-175.0"/>
      <point x="582.4" y="-104.75"/>
      <point x="582.4" y="-3.3249999999999993" type="curve"/>
      <point x="582.4" y="77.8125"/>
      <point x="521.8625" y="133.5125"/>
      <point x="385.65" y="141.65" type="curve"/>
      <point x="242.85" y="150.075" type="line" smooth="yes"/>
      <point x="200.05" y="152.65"/>
      <point x="180.1625" y="158.0875"/>
      <point x="180.1625" y="175.675" type="curve"/>
      <point x="180.1625" y="193.975"/>
      <point x="208.8875" y="209.0"/>
      <point x="288.975" y="209.0" type="curve"/>
      <point x="449.2125" y="209.0"/>
      <point x="530.1625" y="282.85"/>
      <point x="530.1625" y="372.5625" type="curve"/>
      <point x="530.1625" y="391.7625"/>
      <point x="524.7125" y="406.2125"/>
      <point x="520.5625" y="418.225" type="curve"/>
      <point x="516.85" y="430.2125"/>
      <point x="521.85" y="438.35"/>
      <point x="540.5625" y="441.225" type="curve"/>
      <point x="553.7125" y="443.8125"/>
      <point x="570.9875" y="442.825"/>
      <point x="587.725" y="440.2625" type="curve"/>
      <point x="602.4375" y="436.9875"/>
      <point x="611.1375" y="444.4125"/>
      <point x="611.1375" y="463.3875" type="curve"/>
      <point x="611.1375" y="531.25" type="line" smooth="yes"/>
      <point x="611.1375" y="546.6625"/>
      <point x="603.575" y="552.8"/>
    </contour>
    <contour>
      <point x="287.8375" y="284.7625" type="curve"/>
      <point x="287.8375" y="284.7625" type="line"/>
      <point x="222.025" y="284.7625"/>
      <point x="185.1125" y="321.35"/>
      <point x="185.1125" y="370.2875" type="curve"/>
      <point x="185.1125" y="423.075"/>
      <point x="222.3125" y="460.8125"/>
      <point x="287.8375" y="460.8125" type="curve"/>
      <point x="358.2125" y="460.8125"/>
      <point x="389.7" y="423.3625"/>
      <point x="389.7" y="370.2875" type="curve"/>
      <point x="389.7" y="321.775"/>
      <point x="358.7875" y="284.7625"/>
    </contour>
    <contour>
      <point x="213.6375" y="30.424999999999997" type="curve"/>
      <point x="367.55" y="22.987499999999997" type="line"/>
      <point x="422.3375" y="20.125"/>
      <point x="447.0625" y="-1.0500000000000043"/>
      <point x="447.0625" y="-30.4" type="curve"/>
      <point x="447.0625" y="-74.6375"/>
      <point x="398.1625" y="-100.6625"/>
      <point x="307.5125" y="-100.6625" type="curve"/>
      <point x="180.7875" y="-100.6625"/>
      <point x="134.0" y="-73.2"/>
      <point x="134.0" y="-25.85" type="curve"/>
      <point x="134.0" y="8.087499999999999"/>
      <point x="173.8" y="32.425"/>
    </contour>
  </outline>
</glyph>
<glyph name="h" format="2">
  <advance width="596.6625"/>
  <unicode hex="0068"/>
  <anchor x="410.5" y="530.0" name="top"/>
  <anchor x="305.1375" y="0.0" name="bottom"/>
  <outline>
    <contour>
      <point x="77.2" y="0.0" type="curve"/>
      <point x="77.2" y="0.0" type="line"/>
      <point x="183.9875" y="0.0" type="line" smooth="yes"/>
      <point x="202.8125" y="0.0"/>
      <point x="210.0875" y="6.5625"/>
      <point x="210.0875" y="23.25" type="curve"/>
      <point x="210.0875" y="366.5375" type="line"/>
      <point x="246.625" y="408.3"/>
      <point x="277.2375" y="428.6125"/>
      <point x="319.7375" y="428.6125" type="curve"/>
      <point x="367.55" y="428.6125"/>
      <point x="392.15" y="402.275"/>
      <point x="392.15" y="358.475" type="curve"/>
      <point x="392.15" y="20.4" type="line" smooth="yes"/>
      <point x="392.15" y="5.1375"/>
      <point x="397.2875" y="0.0"/>
      <point x="411.125" y="0.0" type="curve"/>
      <point x="522.1875" y="0.0" type="line" smooth="yes"/>
      <point x="538.875" y="0.0"/>
      <point x="546.15" y="7.9875"/>
      <point x="546.15" y="24.25" type="curve"/>
      <point x="546.15" y="380.175" type="line" smooth="yes"/>
      <point x="546.15" y="480.7125"/>
      <point x="489.725" y="540.0"/>
      <point x="388.425" y="540.0" type="curve"/>
      <point x="329.675" y="540.0"/>
      <point x="281.1125" y="519.55"/>
      <point x="218.65" y="464.8375" type="curve"/>
      <point x="211.22500000000002" y="458.4125"/>
      <point x="207.0875" y="460.8375"/>
      <point x="207.0875" y="468.55" type="curve"/>
      <point x="207.0875" y="724.7375" type="line" smooth="yes"/>
      <point x="207.0875" y="735.725"/>
      <point x="202.2375" y="742.0"/>
      <point x="191.9625" y="742.0" type="curve"/>
      <point x="71.925" y="742.0" type="line" smooth="yes"/>
      <point x="61.65" y="742.0"/>
      <point x="56.0875" y="734.725"/>
      <point x="56.0875" y="723.025" type="curve"/>
      <point x="56.0875" y="20.4" type="line" smooth="yes"/>
      <point x="56.0875" y="5.85"/>
      <point x="61.9375" y="0.0"/>
    </contour>
  </outline>
</glyph>
<glyph name="i" format="2">
  <advance width="264.75"/>
  <unicode hex="0069"/>
  <outline>
    <contour>
      <point x="209.375" y="24.1125" type="curve"/>
      <point x="209.375" y="512.875" type="line"/>
      <point x="209.375" y="523.725"/>
      <point x="203.8125" y="530.0"/>
      <point x="193.9625" y="530.0" type="curve"/>
      <point x="71.5" y="530.0" type="line" smooth="yes"/>
      <point x="60.9375" y="530.0"/>
      <point x="55.375" y="523.725"/>
      <point x="55.375" y="510.7375" type="curve"/>
      <point x="55.375" y="20.6875" type="line" smooth="yes"/>
      <point x="55.375" y="6.275"/>
      <point x="60.225" y="0.0"/>
      <point x="77.0625" y="0.0" type="curve"/>
      <point x="182.4125" y="0.0" type="line" smooth="yes"/>
      <point x="201.675" y="0.0"/>
      <point x="209.375" y="6.275"/>
    </contour>
    <contour>
      <point x="210.8125" y="619.3875" type="curve"/>
      <point x="210.8125" y="723.3" type="line"/>
      <point x="210.8125" y="734.8625"/>
      <point x="204.3875" y="742.0"/>
      <point x="194.53750000000002" y="742.0" type="curve"/>
      <point x="70.925" y="742.0" type="line" smooth="yes"/>
      <point x="60.3625" y="742.0"/>
      <point x="53.9375" y="734.8625"/>
      <point x="53.9375" y="721.875" type="curve"/>
      <point x="53.9375" y="616.675" type="line" smooth="yes"/>
      <point x="53.9375" y="602.2625"/>
      <point x="58.787499999999994" y="594.125"/>
      <point x="75.625" y="594.125" type="curve"/>
      <point x="183.85" y="594.125" type="line" smooth="yes"/>
      <point x="203.1125" y="594.125"/>
      <point x="210.8125" y="602.2625"/>
    </contour>
  </outline>
</glyph>
<glyph name="j" format="2">
  <advance width="265.4625"/>
  <unicode hex="006A"/>
  <outline>
    <contour>
      <point x="210.0875" y="6.0" type="curve"/>
      <point x="210.0875" y="6.0" type="line"/>
      <point x="210.0875" y="512.875" type="line" smooth="yes"/>
      <point x="210.0875" y="523.4375"/>
      <point x="205.2375" y="530.0"/>
      <point x="194.9625" y="530.0" type="curve"/>
      <point x="73.2125" y="530.0" type="line" smooth="yes"/>
      <point x="62.65" y="530.0"/>
      <point x="56.0875" y="523.4375"/>
      <point x="56.0875" y="510.7375" type="curve"/>
      <point x="56.0875" y="12.425000000000004" type="line" smooth="yes"/>
      <point x="56.0875" y="-30.200000000000003"/>
      <point x="42.2125" y="-42.224999999999994"/>
      <point x="17.7125" y="-45.3625" type="curve"/>
      <point x="-23.9" y="-49.925" type="line" smooth="yes"/>
      <point x="-34.3125" y="-52.0625"/>
      <point x="-39.875" y="-61.89999999999999"/>
      <point x="-39.875" y="-70.8875" type="curve"/>
      <point x="-39.1625" y="-149.6" type="line" smooth="yes"/>
      <point x="-39.1625" y="-166.8625"/>
      <point x="-28.8875" y="-170.0"/>
      <point x="27.975" y="-170.0" type="curve"/>
      <point x="155.3125" y="-170.0"/>
      <point x="210.0875" y="-111.625"/>
    </contour>
    <contour>
      <point x="211.525" y="619.3875" type="curve"/>
      <point x="211.525" y="723.3" type="line"/>
      <point x="211.525" y="734.8625"/>
      <point x="205.8125" y="742.0"/>
      <point x="195.25" y="742.0" type="curve"/>
      <point x="72.35" y="742.0" type="line" smooth="yes"/>
      <point x="61.787499999999994" y="742.0"/>
      <point x="54.65" y="734.8625"/>
      <point x="54.65" y="721.875" type="curve"/>
      <point x="54.65" y="616.675" type="line" smooth="yes"/>
      <point x="54.65" y="602.2625"/>
      <point x="60.2125" y="594.125"/>
      <point x="77.05" y="594.125" type="curve"/>
      <point x="185.275" y="594.125" type="line" smooth="yes"/>
      <point x="204.53750000000002" y="594.125"/>
      <point x="211.525" y="602.2625"/>
    </contour>
  </outline>
</glyph>
<glyph name="l" format="2">
  <advance width="266.175"/>
  <unicode hex="006C"/>
  <anchor x="135.9375" y="742.0" name="top"/>
  <anchor x="135.9375" y="0.0" name="bottom"/>
  <anchor x="310.8625" y="590.95" name="topright"/>
  <outline>
    <contour>
      <point x="210.0875" y="24.1125" type="curve"/>
      <point x="210.0875" y="724.1625" type="line"/>
      <point x="210.0875" y="735.725"/>
      <point x="204.525" y="742.0"/>
      <point x="194.675" y="742.0" type="curve"/>
      <point x="74.35" y="742.0" type="line" smooth="yes"/>
      <point x="63.787499999999994" y="742.0"/>
      <point x="58.225" y="735.725"/>
      <point x="58.225" y="722.7375" type="curve"/>
      <point x="54.6625" y="20.6875" type="line" smooth="yes"/>
      <point x="54.6625" y="6.275"/>
      <point x="60.225" y="0.0"/>
      <point x="77.0625" y="0.0" type="curve"/>
      <point x="183.125" y="0.0" type="line" smooth="yes"/>
      <point x="202.3875" y="0.0"/>
      <point x="210.0875" y="6.275"/>
    </contour>
  </outline>
</glyph>
<glyph name="m" format="2">
  <advance width="919.0875"/>
  <unicode hex="006D"/>
  <guideline x="308.7625" y="366.3625" angle="90.0"/>
  <outline>
    <contour>
      <point x="76.4875" y="0.0" type="curve"/>
      <point x="76.4875" y="0.0" type="line"/>
      <point x="183.275" y="0.0" type="line" smooth="yes"/>
      <point x="202.10000000000002" y="0.0"/>
      <point x="209.375" y="6.5625"/>
      <point x="209.375" y="23.25" type="curve"/>
      <point x="209.375" y="366.5375" type="line"/>
      <point x="244.7625" y="408.3"/>
      <point x="275.5125" y="428.6125"/>
      <point x="316.15" y="428.6125" type="curve"/>
      <point x="361.95" y="428.6125"/>
      <point x="385.6875" y="402.275"/>
      <point x="385.6875" y="358.475" type="curve"/>
      <point x="385.6875" y="20.4" type="line" smooth="yes"/>
      <point x="385.6875" y="5.1375"/>
      <point x="391.825" y="0.0"/>
      <point x="404.6625" y="0.0" type="curve"/>
      <point x="515.0125" y="0.0" type="line" smooth="yes"/>
      <point x="531.4125" y="0.0"/>
      <point x="538.975" y="7.9875"/>
      <point x="538.975" y="24.25" type="curve"/>
      <point x="538.975" y="350.25" type="line" smooth="yes"/>
      <point x="538.975" y="360.6875"/>
      <point x="541.125" y="368.1125"/>
      <point x="549.5625" y="378.1125" type="curve"/>
      <point x="571.4625" y="402.275"/>
      <point x="606.95" y="428.6125"/>
      <point x="645.75" y="428.6125" type="curve"/>
      <point x="690.8375" y="428.6125"/>
      <point x="715.2875" y="402.275"/>
      <point x="715.2875" y="358.475" type="curve"/>
      <point x="715.2875" y="20.4" type="line" smooth="yes"/>
      <point x="715.2875" y="5.1375"/>
      <point x="720.425" y="0.0"/>
      <point x="734.2625" y="0.0" type="curve"/>
      <point x="844.6125" y="0.0" type="line" smooth="yes"/>
      <point x="861.3" y="0.0"/>
      <point x="869.2875" y="7.9875"/>
      <point x="869.2875" y="24.25" type="curve"/>
      <point x="869.2875" y="378.75" type="line" smooth="yes"/>
      <point x="869.2875" y="480.0"/>
      <point x="808.7375" y="540.0"/>
      <point x="715.8625" y="540.0" type="curve"/>
      <point x="653.275" y="540.0"/>
      <point x="586.7625" y="501.025"/>
      <point x="539.7" y="449.1625" type="curve"/>
      <point x="534.4125" y="443.45"/>
      <point x="528.8375" y="442.3"/>
      <point x="526.8375" y="447.5875" type="curve"/>
      <point x="506.7125" y="503.2625"/>
      <point x="456.725" y="540.7125"/>
      <point x="384.8375" y="540.7125" type="curve"/>
      <point x="321.5375" y="540.7125"/>
      <point x="269.275" y="508.15"/>
      <point x="217.9375" y="459.85" type="curve"/>
      <point x="210.5125" y="452.7125"/>
      <point x="206.375" y="455.85"/>
      <point x="206.375" y="463.5625" type="curve"/>
      <point x="206.375" y="513.45" type="line" smooth="yes"/>
      <point x="206.375" y="523.725"/>
      <point x="201.525" y="530.0"/>
      <point x="191.25" y="530.0" type="curve"/>
      <point x="71.2125" y="530.0" type="line" smooth="yes"/>
      <point x="61.65" y="530.0"/>
      <point x="55.375" y="522.725"/>
      <point x="55.375" y="511.025" type="curve"/>
      <point x="55.375" y="20.4" type="line" smooth="yes"/>
      <point x="55.375" y="5.85"/>
      <point x="61.225" y="0.0"/>
    </contour>
  </outline>
</glyph>
<glyph name="n" format="2">
  <advance width="595.95"/>
  <unicode hex="006E"/>
  <anchor x="303.7125" y="530.0" name="top"/>
  <anchor x="300.8375" y="0.0" name="bottom"/>
  <outline>
    <contour>
      <point x="76.4875" y="0.0" type="curve"/>
      <point x="76.4875" y="0.0" type="line"/>
      <point x="183.275" y="0.0" type="line" smooth="yes"/>
      <point x="202.10000000000002" y="0.0"/>
      <point x="209.375" y="6.5625"/>
      <point x="209.375" y="23.25" type="curve"/>
      <point x="209.375" y="366.5375" type="line"/>
      <point x="245.9125" y="408.3"/>
      <point x="276.525" y="428.6125"/>
      <point x="319.025" y="428.6125" type="curve"/>
      <point x="366.8375" y="428.6125"/>
      <point x="392.15" y="402.275"/>
      <point x="392.15" y="358.475" type="curve"/>
      <point x="392.15" y="20.4" type="line" smooth="yes"/>
      <point x="392.15" y="5.1375"/>
      <point x="397.2875" y="0.0"/>
      <point x="411.125" y="0.0" type="curve"/>
      <point x="522.1875" y="0.0" type="line" smooth="yes"/>
      <point x="538.875" y="0.0"/>
      <point x="546.15" y="7.9875"/>
      <point x="546.15" y="24.25" type="curve"/>
      <point x="546.15" y="382.3125" type="line" smooth="yes"/>
      <point x="546.15" y="477.8625"/>
      <point x="484.7375" y="540.0"/>
      <point x="387.7125" y="540.0" type="curve"/>
      <point x="322.55" y="540.0"/>
      <point x="270.425" y="508.15"/>
      <point x="218.65" y="459.85" type="curve"/>
      <point x="211.22500000000002" y="452.7125"/>
      <point x="207.0875" y="455.85"/>
      <point x="207.0875" y="463.5625" type="curve"/>
      <point x="207.0875" y="513.45" type="line" smooth="yes"/>
      <point x="207.0875" y="523.725"/>
      <point x="202.2375" y="530.0"/>
      <point x="191.9625" y="530.0" type="curve"/>
      <point x="71.2125" y="530.0" type="line" smooth="yes"/>
      <point x="60.9375" y="530.0"/>
      <point x="55.375" y="522.725"/>
      <point x="55.375" y="511.025" type="curve"/>
      <point x="55.375" y="20.4" type="line" smooth="yes"/>
      <point x="55.375" y="5.85"/>
      <point x="61.225" y="0.0"/>
    </contour>
  </outline>
</glyph>
<glyph name="o" format="2">
  <advance width="599.425"/>
  <unicode hex="006F"/>
  <anchor x="299.7125" y="265.0" name="center"/>
  <anchor x="373.6875" y="10.0" name="ogonek"/>
  <anchor x="300.2875" y="530.0" name="top"/>
  <anchor x="450.375" y="530.0" name="topright"/>
  <anchor x="297.2875" y="0.0" name="bottom"/>
  <outline>
    <contour>
      <point x="299.0" y="-10.0" type="curve"/>
      <point x="299.0" y="-10.0" type="line"/>
      <point x="458.5375" y="-10.0"/>
      <point x="568.3625" y="103.425"/>
      <point x="568.3625" y="262.575" type="curve"/>
      <point x="568.3625" y="423.8625"/>
      <point x="460.675" y="540.0"/>
      <point x="300.0" y="540.0" type="curve"/>
      <point x="145.45" y="540.0"/>
      <point x="31.0625" y="427.85"/>
      <point x="31.0625" y="262.0" type="curve"/>
      <point x="31.0625" y="102.425"/>
      <point x="139.8875" y="-10.0"/>
    </contour>
    <contour>
      <point x="300.2875" y="92.125" type="curve"/>
      <point x="300.2875" y="92.125" type="line"/>
      <point x="226.875" y="92.125"/>
      <point x="187.0625" y="150.7875"/>
      <point x="187.0625" y="265.425" type="curve"/>
      <point x="187.0625" y="380.775"/>
      <point x="226.875" y="440.725"/>
      <point x="300.0" y="440.725" type="curve"/>
      <point x="373.55" y="440.725"/>
      <point x="412.3625" y="381.0625"/>
      <point x="412.3625" y="265.425" type="curve"/>
      <point x="412.3625" y="151.2125"/>
      <point x="374.125" y="92.125"/>
    </contour>
  </outline>
</glyph>
<glyph name="p" format="2">
  <advance width="609.2375"/>
  <unicode hex="0070"/>
  <outline>
    <contour>
      <point x="188.1125" y="530.0" type="curve"/>
      <point x="188.1125" y="530.0" type="line"/>
      <point x="78.0625" y="530.0" type="line" smooth="yes"/>
      <point x="60.512499999999996" y="530.0"/>
      <point x="55.375" y="522.725"/>
      <point x="55.375" y="508.025" type="curve"/>
      <point x="55.375" y="-146.7375" type="line" smooth="yes"/>
      <point x="55.375" y="-159.15"/>
      <point x="61.9375" y="-165.0"/>
      <point x="71.2125" y="-165.0" type="curve"/>
      <point x="193.9625" y="-165.0" type="line" smooth="yes"/>
      <point x="204.525" y="-165.0"/>
      <point x="209.375" y="-159.15"/>
      <point x="209.375" y="-147.875" type="curve"/>
      <point x="209.375" y="35.1375" type="line" smooth="yes"/>
      <point x="209.375" y="53.125"/>
      <point x="213.8" y="53.275"/>
      <point x="228.3625" y="40.7125" type="curve"/>
      <point x="266.625" y="5.3125"/>
      <point x="310.2125" y="-10.0"/>
      <point x="361.825" y="-10.0" type="curve"/>
      <point x="483.8875" y="-10.0"/>
      <point x="575.4625" y="76.5"/>
      <point x="575.4625" y="269.3" type="curve"/>
      <point x="575.4625" y="453.425"/>
      <point x="486.15" y="540.0"/>
      <point x="370.2625" y="540.0" type="curve"/>
      <point x="296.1875" y="540.0"/>
      <point x="256.0375" y="508.075"/>
      <point x="223.65" y="477.5375" type="curve"/>
      <point x="216.3625" y="470.9625"/>
      <point x="209.5125" y="471.25"/>
      <point x="209.5125" y="480.1125" type="curve"/>
      <point x="209.5125" y="509.7375" type="line" smooth="yes"/>
      <point x="209.5125" y="523.8625"/>
      <point x="203.66250000000002" y="530.0"/>
    </contour>
    <contour>
      <point x="209.375" y="137.4875" type="curve"/>
      <point x="209.375" y="137.4875" type="line"/>
      <point x="209.375" y="363.2875" type="line" smooth="yes"/>
      <point x="209.375" y="403.3375"/>
      <point x="251.0125" y="442.8625"/>
      <point x="307.55" y="442.8625" type="curve"/>
      <point x="373.35" y="442.8625"/>
      <point x="419.4625" y="400.7875"/>
      <point x="419.4625" y="272.425" type="curve"/>
      <point x="419.4625" y="137.525"/>
      <point x="373.9375" y="87.1375"/>
      <point x="305.25" y="87.1375" type="curve"/>
      <point x="264.9125" y="87.1375"/>
      <point x="235.575" y="106.875"/>
    </contour>
  </outline>
</glyph>
<glyph name="q" format="2">
  <advance width="609.3875"/>
  <unicode hex="0071"/>
  <outline>
    <contour>
      <point x="531.6125" y="530.0" type="curve"/>
      <point x="470.175" y="530.0" type="line"/>
      <point x="458.175" y="530.0"/>
      <point x="451.9" y="523.4375"/>
      <point x="448.05" y="509.1625" type="curve"/>
      <point x="435.5" y="464.6" type="line" smooth="yes"/>
      <point x="433.075" y="455.8875"/>
      <point x="429.3625" y="454.8875"/>
      <point x="423.3625" y="461.6" type="curve"/>
      <point x="390.975" y="501.25"/>
      <point x="341.575" y="540.7125"/>
      <point x="257.65" y="540.7125" type="curve"/>
      <point x="117.775" y="540.7125"/>
      <point x="33.0625" y="431.0"/>
      <point x="33.0625" y="265.15" type="curve"/>
      <point x="33.0625" y="90.6"/>
      <point x="116.075" y="-10.0"/>
      <point x="249.675" y="-10.0" type="curve"/>
      <point x="301.0" y="-10.0"/>
      <point x="347.45" y="11.8625"/>
      <point x="383.1625" y="39.575" type="curve"/>
      <point x="394.7375" y="48.8625"/>
      <point x="400.0125" y="47.2875"/>
      <point x="400.0125" y="29.725" type="curve"/>
      <point x="400.0125" y="-147.5875" type="line" smooth="yes"/>
      <point x="400.0125" y="-159.15"/>
      <point x="405.575" y="-165.0"/>
      <point x="415.1375" y="-165.0" type="curve"/>
      <point x="537.8875" y="-165.0" type="line" smooth="yes"/>
      <point x="547.45" y="-165.0"/>
      <point x="554.0125" y="-159.15"/>
      <point x="554.0125" y="-146.45" type="curve"/>
      <point x="554.0125" y="507.7375" type="line" smooth="yes"/>
      <point x="554.0125" y="522.725"/>
      <point x="548.875" y="530.0"/>
    </contour>
    <contour>
      <point x="400.0125" y="346.5875" type="curve"/>
      <point x="400.0125" y="132.075" type="line"/>
      <point x="373.975" y="103.3125"/>
      <point x="339.475" y="86.42500000000001"/>
      <point x="300.275" y="86.42500000000001" type="curve"/>
      <point x="233.3" y="86.42500000000001"/>
      <point x="189.0625" y="139.375"/>
      <point x="189.0625" y="266.15" type="curve"/>
      <point x="189.0625" y="393.65"/>
      <point x="237.1625" y="447.85"/>
      <point x="302.2625" y="447.85" type="curve"/>
      <point x="360.075" y="447.85"/>
      <point x="400.0125" y="403.35"/>
    </contour>
  </outline>
</glyph>
<glyph name="r" format="2">
  <advance width="425.825"/>
  <unicode hex="0072"/>
  <anchor x="223.6625" y="530.0" name="top"/>
  <anchor x="140.925" y="0.0" name="bottom"/>
  <outline>
    <contour>
      <point x="76.4875" y="0.0" type="curve"/>
      <point x="76.4875" y="0.0" type="line"/>
      <point x="183.275" y="0.0" type="line" smooth="yes"/>
      <point x="201.3875" y="0.0"/>
      <point x="209.375" y="6.5625"/>
      <point x="209.375" y="23.25" type="curve"/>
      <point x="209.375" y="315.125" type="line" smooth="yes"/>
      <point x="209.375" y="359.325"/>
      <point x="268.05" y="402.3875"/>
      <point x="317.8" y="402.3875" type="curve"/>
      <point x="336.225" y="402.3875"/>
      <point x="364.175" y="399.9625"/>
      <point x="387.7" y="394.2625" type="curve"/>
      <point x="397.1125" y="392.125"/>
      <point x="403.3875" y="396.975"/>
      <point x="403.3875" y="407.1" type="curve"/>
      <point x="403.3875" y="522.875" type="line" smooth="yes"/>
      <point x="403.3875" y="534.8625"/>
      <point x="390.5375" y="540.0"/>
      <point x="366.9625" y="540.0" type="curve"/>
      <point x="317.95" y="540.0"/>
      <point x="257.9875" y="504.6"/>
      <point x="217.9375" y="451.0" type="curve"/>
      <point x="211.5125" y="442.8625"/>
      <point x="203.525" y="444.8625"/>
      <point x="203.525" y="454.0" type="curve"/>
      <point x="203.525" y="513.45" type="line" smooth="yes"/>
      <point x="203.525" y="523.725"/>
      <point x="197.9625" y="530.0"/>
      <point x="188.4" y="530.0" type="curve"/>
      <point x="71.2125" y="530.0" type="line" smooth="yes"/>
      <point x="60.9375" y="530.0"/>
      <point x="55.375" y="523.4375"/>
      <point x="55.375" y="511.025" type="curve"/>
      <point x="55.375" y="20.4" type="line" smooth="yes"/>
      <point x="55.375" y="6.5625"/>
      <point x="60.512499999999996" y="0.0"/>
    </contour>
  </outline>
</glyph>
<glyph name="s" format="2">
  <advance width="529.5"/>
  <unicode hex="0073"/>
  <anchor x="258.9375" y="530.0" name="top"/>
  <anchor x="260.525" y="0.0" name="bottom"/>
  <outline>
    <contour>
      <point x="381.9125" y="391.8" type="curve"/>
      <point x="381.9125" y="391.8" type="line"/>
      <point x="388.1875" y="384.525"/>
      <point x="395.75" y="380.9625"/>
      <point x="405.1625" y="385.8125" type="curve"/>
      <point x="477.325" y="421.475" type="line" smooth="yes"/>
      <point x="488.1625" y="427.0375"/>
      <point x="482.75" y="436.875"/>
      <point x="477.6125" y="445.15" type="curve"/>
      <point x="445.7375" y="497.025"/>
      <point x="367.9" y="540.0"/>
      <point x="266.6625" y="540.0" type="curve"/>
      <point x="124.8875" y="540.0"/>
      <point x="40.0375" y="466.75"/>
      <point x="40.75" y="366.4875" type="curve"/>
      <point x="41.4625" y="287.275"/>
      <point x="92.6875" y="238.7125"/>
      <point x="193.4" y="217.2625" type="curve"/>
      <point x="295.6875" y="195.2375" type="line" smooth="yes"/>
      <point x="346.9125" y="183.0625"/>
      <point x="362.3875" y="166.3125"/>
      <point x="362.3875" y="144.1125" type="curve"/>
      <point x="362.3875" y="108.475"/>
      <point x="318.75" y="89.275"/>
      <point x="262.95" y="88.5625" type="curve"/>
      <point x="181.8" y="87.1375"/>
      <point x="145.025" y="121.0"/>
      <point x="118.575" y="156.775" type="curve"/>
      <point x="113.0125" y="163.3375"/>
      <point x="106.875" y="164.7625"/>
      <point x="93.9" y="158.4875" type="curve"/>
      <point x="25.5875" y="123.1125" type="line" smooth="yes"/>
      <point x="17.3125" y="118.6875"/>
      <point x="18.025" y="109.275"/>
      <point x="23.5875" y="99.575" type="curve"/>
      <point x="56.5875" y="37.85"/>
      <point x="143.15" y="-10.0"/>
      <point x="262.2375" y="-10.0" type="curve"/>
      <point x="401.8875" y="-10.0"/>
      <point x="500.575" y="53.85"/>
      <point x="500.575" y="160.5125" type="curve"/>
      <point x="500.575" y="231.7625"/>
      <point x="458.3" y="292.8625"/>
      <point x="347.525" y="318.575" type="curve"/>
      <point x="233.1875" y="346.9" type="line" smooth="yes"/>
      <point x="185.1125" y="359.075"/>
      <point x="176.8" y="375.6875"/>
      <point x="176.8" y="391.5875" type="curve"/>
      <point x="176.8" y="425.6625"/>
      <point x="215.575" y="446.425"/>
      <point x="264.95" y="446.425" type="curve"/>
      <point x="320.85" y="446.425"/>
      <point x="358.75" y="421.7"/>
    </contour>
  </outline>
</glyph>
<glyph name="t" format="2">
  <advance width="432.1"/>
  <unicode hex="0074"/>
  <anchor x="207.3125" y="280.2375" name="center"/>
  <anchor x="256.65" y="0.0" name="bottom"/>
  <anchor x="410.8125" y="797.75" name="topright"/>
  <outline>
    <contour>
      <point x="278.0375" y="423.75" type="curve"/>
      <point x="384.2625" y="423.75" type="line"/>
      <point x="397.8125" y="423.75"/>
      <point x="403.8" y="430.7375"/>
      <point x="403.8" y="441.15" type="curve"/>
      <point x="403.8" y="515.45" type="line" smooth="yes"/>
      <point x="403.8" y="525.8625"/>
      <point x="396.8125" y="530.7125"/>
      <point x="386.4" y="530.7125" type="curve"/>
      <point x="280.8875" y="530.7125" type="line" smooth="yes"/>
      <point x="274.4625" y="530.7125"/>
      <point x="271.0375" y="534.1375"/>
      <point x="271.0375" y="540.5625" type="curve"/>
      <point x="271.0375" y="691.1625" type="line" smooth="yes"/>
      <point x="271.0375" y="703.4375"/>
      <point x="264.475" y="710.0"/>
      <point x="254.91250000000002" y="710.0" type="curve"/>
      <point x="146.15" y="710.0" type="line" smooth="yes"/>
      <point x="135.875" y="710.0"/>
      <point x="131.7375" y="704.15"/>
      <point x="131.025" y="692.875" type="curve"/>
      <point x="117.0375" y="540.5625" type="line" smooth="yes"/>
      <point x="116.325" y="533.7125"/>
      <point x="112.9" y="530.0"/>
      <point x="106.7625" y="530.0" type="curve"/>
      <point x="37.7" y="530.0" type="line" smooth="yes"/>
      <point x="26.575" y="530.0"/>
      <point x="20.3" y="525.15"/>
      <point x="20.3" y="514.7375" type="curve"/>
      <point x="20.3" y="441.15" type="line" smooth="yes"/>
      <point x="20.3" y="430.7375"/>
      <point x="25.8625" y="423.75"/>
      <point x="39.125" y="423.75" type="curve"/>
      <point x="100.0625" y="423.75" type="line" smooth="yes"/>
      <point x="110.05" y="423.75"/>
      <point x="112.7625" y="418.9"/>
      <point x="112.7625" y="408.9125" type="curve"/>
      <point x="112.7625" y="128.975" type="line" smooth="yes"/>
      <point x="112.7625" y="43.2625"/>
      <point x="169.825" y="0.0"/>
      <point x="261.225" y="0.0" type="curve"/>
      <point x="297.3125" y="0.0"/>
      <point x="344.75" y="1.0"/>
      <point x="379.8375" y="6.1375" type="curve"/>
      <point x="394.525" y="9.275"/>
      <point x="402.225" y="16.6875"/>
      <point x="402.225" y="29.525000000000002" type="curve"/>
      <point x="402.9375" y="91.4125" type="line" smooth="yes"/>
      <point x="402.9375" y="100.6875"/>
      <point x="397.0875" y="107.675"/>
      <point x="387.8125" y="107.675" type="curve"/>
      <point x="334.4625" y="107.675" type="line" smooth="yes"/>
      <point x="288.05" y="107.675"/>
      <point x="266.7625" y="124.8125"/>
      <point x="266.7625" y="171.025" type="curve"/>
      <point x="266.7625" y="412.475" type="line" smooth="yes"/>
      <point x="266.7625" y="420.325"/>
      <point x="271.6125" y="423.75"/>
    </contour>
  </outline>
</glyph>
<glyph name="u" format="2">
  <advance width="592.375"/>
  <unicode hex="0075"/>
  <anchor x="514.0375" y="10.2875" name="ogonek"/>
  <anchor x="290.0875" y="530.0" name="top"/>
  <anchor x="562.8875" y="530.0" name="topright"/>
  <anchor x="290.8" y="0.0" name="bottom"/>
  <outline>
    <contour>
      <point x="273.7875" y="100.675" type="curve"/>
      <point x="273.7875" y="100.675" type="line"/>
      <point x="230.9875" y="100.675"/>
      <point x="203.5125" y="128.7375"/>
      <point x="203.5125" y="173.25" type="curve"/>
      <point x="203.5125" y="508.8875" type="line" smooth="yes"/>
      <point x="203.5125" y="524.15"/>
      <point x="198.375" y="530.0"/>
      <point x="184.53750000000002" y="530.0" type="curve"/>
      <point x="74.1875" y="530.0" type="line" smooth="yes"/>
      <point x="56.787499999999994" y="530.0"/>
      <point x="49.512499999999996" y="522.0125"/>
      <point x="49.512499999999996" y="505.75" type="curve"/>
      <point x="49.512499999999996" y="151.25" type="line" smooth="yes"/>
      <point x="49.512499999999996" y="50.0"/>
      <point x="114.525" y="-10.0"/>
      <point x="202.825" y="-10.0" type="curve"/>
      <point x="265.5125" y="-10.0"/>
      <point x="318.225" y="12.275"/>
      <point x="375.15" y="70.0125" type="curve"/>
      <point x="381.8625" y="76.4375"/>
      <point x="386.0" y="74.0125"/>
      <point x="386.0" y="66.3" type="curve"/>
      <point x="386.0" y="16.55" type="line" smooth="yes"/>
      <point x="386.0" y="5.5625"/>
      <point x="391.5625" y="0.0"/>
      <point x="401.125" y="0.0" type="curve"/>
      <point x="519.7375" y="0.0" type="line" smooth="yes"/>
      <point x="530.0125" y="0.0"/>
      <point x="535.575" y="6.5625"/>
      <point x="535.575" y="18.262500000000003" type="curve"/>
      <point x="538.425" y="508.8875" type="line" smooth="yes"/>
      <point x="538.425" y="523.4375"/>
      <point x="532.575" y="530.0"/>
      <point x="517.3125" y="530.0" type="curve"/>
      <point x="409.1" y="530.0" type="line" smooth="yes"/>
      <point x="390.9875" y="530.0"/>
      <point x="383.0" y="522.725"/>
      <point x="383.0" y="506.75" type="curve"/>
      <point x="383.0" y="160.075" type="line"/>
      <point x="351.4875" y="125.0"/>
      <point x="314.7125" y="100.675"/>
    </contour>
  </outline>
</glyph>
<glyph name="v" format="2">
  <advance width="573.4625"/>
  <unicode hex="0076"/>
  <outline>
    <contour>
      <point x="537.7375" y="530.0" type="curve"/>
      <point x="537.7375" y="530.0" type="line"/>
      <point x="451.6125" y="530.0" type="line" smooth="yes"/>
      <point x="441.3375" y="530.0"/>
      <point x="434.0625" y="523.0125"/>
      <point x="429.925" y="513.7375" type="curve"/>
      <point x="316.75" y="219.3375" type="line" smooth="yes"/>
      <point x="310.75" y="205.3375"/>
      <point x="305.75" y="206.05"/>
      <point x="301.4625" y="218.3375" type="curve"/>
      <point x="186.15" y="513.45" type="line" smooth="yes"/>
      <point x="182.72500000000002" y="523.0125"/>
      <point x="174.7375" y="530.0"/>
      <point x="164.175" y="530.0" type="curve"/>
      <point x="37.4375" y="530.0" type="line" smooth="yes"/>
      <point x="24.025" y="530.0"/>
      <point x="17.4625" y="518.1625"/>
      <point x="21.6" y="506.4625" type="curve"/>
      <point x="219.05" y="20.6875" type="line" smooth="yes"/>
      <point x="224.9" y="6.5625"/>
      <point x="234.0375" y="0.0"/>
      <point x="251.1625" y="0.0" type="curve"/>
      <point x="322.1625" y="0.0" type="line" smooth="yes"/>
      <point x="339.0" y="0.0"/>
      <point x="347.85" y="6.5625"/>
      <point x="353.7" y="20.975" type="curve"/>
      <point x="551.8625" y="506.75" type="line" smooth="yes"/>
      <point x="556.0" y="518.1625"/>
      <point x="550.8625" y="530.0"/>
    </contour>
  </outline>
</glyph>
<glyph name="w" format="2">
  <advance width="817.9125"/>
  <unicode hex="0077"/>
  <anchor x="409.5375" y="530.0" name="top"/>
  <outline>
    <contour>
      <point x="780.75" y="530.0" type="curve"/>
      <point x="780.75" y="530.0" type="line"/>
      <point x="704.6125" y="530.0" type="line" smooth="yes"/>
      <point x="694.3375" y="530.0"/>
      <point x="686.4875" y="523.0125"/>
      <point x="682.35" y="513.7375" type="curve"/>
      <point x="595.6625" y="231.1625" type="line" smooth="yes"/>
      <point x="590.95" y="217.1625"/>
      <point x="584.525" y="217.875"/>
      <point x="581.2375" y="230.1625" type="curve"/>
      <point x="494.375" y="513.45" type="line" smooth="yes"/>
      <point x="491.6625" y="523.0125"/>
      <point x="482.9625" y="530.0"/>
      <point x="473.1125" y="530.0" type="curve"/>
      <point x="388.8375" y="530.0" type="line" smooth="yes"/>
      <point x="378.85" y="530.0"/>
      <point x="370.15" y="523.3"/>
      <point x="367.4375" y="514.025" type="curve"/>
      <point x="281.45" y="231.1625" type="line" smooth="yes"/>
      <point x="276.7375" y="217.1625"/>
      <point x="270.025" y="217.875"/>
      <point x="266.7375" y="230.1625" type="curve"/>
      <point x="177.6125" y="513.45" type="line" smooth="yes"/>
      <point x="174.9" y="523.0125"/>
      <point x="166.2" y="530.0"/>
      <point x="155.6375" y="530.0" type="curve"/>
      <point x="38.5875" y="530.0" type="line" smooth="yes"/>
      <point x="25.174999999999997" y="530.0"/>
      <point x="18.6125" y="518.1625"/>
      <point x="22.75" y="506.4625" type="curve"/>
      <point x="183.7375" y="18.55" type="line" smooth="yes"/>
      <point x="187.875" y="5.1375"/>
      <point x="195.3" y="0.0"/>
      <point x="208.8625" y="0.0" type="curve"/>
      <point x="293.725" y="0.0" type="line" smooth="yes"/>
      <point x="307.0" y="0.0"/>
      <point x="312.0" y="4.425"/>
      <point x="315.425" y="15.9875" type="curve"/>
      <point x="402.675" y="293.525" type="line" smooth="yes"/>
      <point x="406.3875" y="306.375"/>
      <point x="412.2375" y="306.6625"/>
      <point x="416.95" y="293.525" type="curve"/>
      <point x="502.8" y="18.55" type="line" smooth="yes"/>
      <point x="506.9375" y="5.1375"/>
      <point x="514.3625" y="0.0"/>
      <point x="528.6375" y="0.0" type="curve"/>
      <point x="610.5" y="0.0" type="line" smooth="yes"/>
      <point x="623.0625" y="0.0"/>
      <point x="628.35" y="4.425"/>
      <point x="631.775" y="15.9875" type="curve"/>
      <point x="795.1625" y="506.75" type="line" smooth="yes"/>
      <point x="799.725" y="518.1625"/>
      <point x="793.875" y="530.0"/>
    </contour>
  </outline>
</glyph>
<glyph name="x" format="2">
  <advance width="591.2375"/>
  <unicode hex="0078"/>
  <outline>
    <contour>
      <point x="560.65" y="34.087500000000006" type="curve"/>
      <point x="560.65" y="34.087500000000006" type="line"/>
      <point x="386.9" y="274.6875" type="line" smooth="yes"/>
      <point x="378.625" y="286.1"/>
      <point x="376.9125" y="292.8125"/>
      <point x="386.1875" y="305.225" type="curve"/>
      <point x="535.4125" y="507.0375" type="line" smooth="yes"/>
      <point x="544.1125" y="518.875"/>
      <point x="543.825" y="530.0"/>
      <point x="524.2875" y="530.0" type="curve"/>
      <point x="433.875" y="530.0" type="line" smooth="yes"/>
      <point x="415.475" y="530.0"/>
      <point x="408.4875" y="525.4375"/>
      <point x="401.2125" y="514.3125" type="curve"/>
      <point x="313.0375" y="382.675" type="line" smooth="yes"/>
      <point x="306.6125" y="372.1125"/>
      <point x="301.6125" y="373.825"/>
      <point x="296.1875" y="382.675" type="curve"/>
      <point x="203.3" y="514.3125" type="line" smooth="yes"/>
      <point x="196.025" y="525.4375"/>
      <point x="189.03750000000002" y="530.0"/>
      <point x="170.925" y="530.0" type="curve"/>
      <point x="48.725" y="530.0" type="line" smooth="yes"/>
      <point x="30.6125" y="530.0"/>
      <point x="25.05" y="514.3125"/>
      <point x="33.75" y="502.475" type="curve"/>
      <point x="195.8" y="281.7" type="line" smooth="yes"/>
      <point x="204.7875" y="269.2875"/>
      <point x="205.7875" y="262.8625"/>
      <point x="196.5125" y="251.1625" type="curve"/>
      <point x="33.15" y="40.3625" type="line" smooth="yes"/>
      <point x="10.1875" y="10.125"/>
      <point x="22.3125" y="0.0"/>
      <point x="44.5625" y="0.0" type="curve"/>
      <point x="126.5625" y="0.0" type="line" smooth="yes"/>
      <point x="142.53750000000002" y="0.0"/>
      <point x="152.95" y="4.85"/>
      <point x="159.9375" y="15.6875" type="curve"/>
      <point x="265.25" y="162.02499999999998" type="line" smooth="yes"/>
      <point x="275.95" y="177.575"/>
      <point x="278.525" y="176.8625"/>
      <point x="289.225" y="161.3125" type="curve"/>
      <point x="392.2375" y="15.6875" type="line" smooth="yes"/>
      <point x="399.225" y="4.85"/>
      <point x="409.925" y="0.0"/>
      <point x="425.6125" y="0.0" type="curve"/>
      <point x="553.6625" y="0.0" type="line" smooth="yes"/>
      <point x="576.3375" y="0.0"/>
      <point x="579.05" y="8.7"/>
    </contour>
  </outline>
</glyph>
<glyph name="y" format="2">
  <advance width="565.7125"/>
  <unicode hex="0079"/>
  <anchor x="305.5875" y="530.0" name="top"/>
  <anchor x="413.075" y="0.0" name="bottom"/>
  <outline>
    <contour>
      <point x="103.725" y="-165.0" type="curve"/>
      <point x="103.725" y="-165.0" type="line"/>
      <point x="227.2875" y="-165.0"/>
      <point x="283.4125" y="-138.3"/>
      <point x="340.05" y="-0.04999999999999716" type="curve"/>
      <point x="544.825" y="506.75" type="line" smooth="yes"/>
      <point x="549.675" y="517.875"/>
      <point x="543.825" y="530.0"/>
      <point x="530.7" y="530.0" type="curve"/>
      <point x="444.575" y="530.0" type="line" smooth="yes"/>
      <point x="434.5875" y="530.0"/>
      <point x="427.3125" y="523.0125"/>
      <point x="423.175" y="513.7375" type="curve"/>
      <point x="313.025" y="215.95000000000002" type="line" smooth="yes"/>
      <point x="307.025" y="201.375"/>
      <point x="300.025" y="202.8"/>
      <point x="295.7375" y="214.8" type="curve"/>
      <point x="185.15" y="513.45" type="line" smooth="yes"/>
      <point x="181.72500000000002" y="523.0125"/>
      <point x="173.45" y="530.0"/>
      <point x="163.175" y="530.0" type="curve"/>
      <point x="36.725" y="530.0" type="line" smooth="yes"/>
      <point x="22.737499999999997" y="530.0"/>
      <point x="15.75" y="517.875"/>
      <point x="20.8875" y="505.8875" type="curve"/>
      <point x="213.45" y="32.725" type="line" smooth="yes"/>
      <point x="226.6125" y="0.10000000000000142"/>
      <point x="192.4375" y="-52.7625"/>
      <point x="141.55" y="-52.7625" type="curve"/>
      <point x="73.7125" y="-52.7625" type="line" smooth="yes"/>
      <point x="51.1375" y="-52.7625"/>
      <point x="45.425" y="-61.175"/>
      <point x="45.425" y="-69.46249999999999" type="curve"/>
      <point x="45.425" y="-146.45" type="line" smooth="yes"/>
      <point x="45.425" y="-163.15"/>
      <point x="62.5875" y="-165.0"/>
    </contour>
  </outline>
</glyph>
<glyph name="z" format="2">
  <advance width="519.275"/>
  <unicode hex="007A"/>
  <anchor x="268.225" y="530.0" name="top"/>
  <outline>
    <contour>
      <point x="44.1375" y="0.0" type="curve"/>
      <point x="44.1375" y="0.0" type="line"/>
      <point x="471.1375" y="0.0" type="line" smooth="yes"/>
      <point x="484.975" y="0.0"/>
      <point x="491.25" y="7.7"/>
      <point x="491.25" y="17.975" type="curve"/>
      <point x="491.25" y="83.15" type="line" smooth="yes"/>
      <point x="491.25" y="94.275"/>
      <point x="484.2625" y="98.4125"/>
      <point x="473.1375" y="98.4125" type="curve"/>
      <point x="233.0625" y="98.4125" type="line" smooth="yes"/>
      <point x="221.9375" y="98.4125"/>
      <point x="219.225" y="103.97500000000001"/>
      <point x="226.7875" y="113.9625" type="curve"/>
      <point x="474.4" y="435.25" type="line" smooth="yes"/>
      <point x="484.3875" y="449.0875"/>
      <point x="488.525" y="457.5125"/>
      <point x="488.525" y="470.5" type="curve"/>
      <point x="488.525" y="514.7375" type="line" smooth="yes"/>
      <point x="488.525" y="523.725"/>
      <point x="482.9625" y="530.0"/>
      <point x="473.55" y="530.0" type="curve"/>
      <point x="60.4375" y="530.0" type="line" smooth="yes"/>
      <point x="51.45" y="530.0"/>
      <point x="45.8875" y="523.725"/>
      <point x="45.8875" y="513.7375" type="curve"/>
      <point x="45.8875" y="451.4125" type="line" smooth="yes"/>
      <point x="45.8875" y="436.8625"/>
      <point x="50.025" y="433.0125"/>
      <point x="63.575" y="433.0125" type="curve"/>
      <point x="277.2125" y="433.0125" type="line" smooth="yes"/>
      <point x="288.625" y="433.0125"/>
      <point x="292.05" y="428.5875"/>
      <point x="285.2" y="419.3125" type="curve"/>
      <point x="41.15" y="100.5875" type="line" smooth="yes"/>
      <point x="25.8875" y="80.475"/>
      <point x="23.8875" y="75.475"/>
      <point x="23.8875" y="58.5" type="curve"/>
      <point x="23.8875" y="19.825000000000003" type="line" smooth="yes"/>
      <point x="23.8875" y="4.1375"/>
      <point x="28.45" y="0.0"/>
    </contour>
  </outline>
</glyph>
<glyph name="braceleft" format="2">
  <advance width="366.0375"/>
  <unicode hex="007B"/>
  <outline>
    <contour>
      <point x="116.0" y="619.225" type="curve"/>
      <point x="116.0" y="619.225" type="line"/>
      <point x="116.0" y="423.275" type="line" smooth="yes"/>
      <point x="116.0" y="363.275"/>
      <point x="84.7" y="331.8"/>
      <point x="9.7" y="331.5125" type="curve"/>
      <point x="4.1375" y="331.5125"/>
      <point x="0.0" y="327.375"/>
      <point x="0.0" y="315.5375" type="curve"/>
      <point x="0.0" y="270.0125" type="line" smooth="yes"/>
      <point x="0.0" y="258.175"/>
      <point x="4.1375" y="254.0375"/>
      <point x="9.7" y="254.0375" type="curve"/>
      <point x="83.7" y="254.0375"/>
      <point x="116.0" y="214.275"/>
      <point x="116.0" y="166.275" type="curve"/>
      <point x="116.0" y="-41.65" type="line" smooth="yes"/>
      <point x="116.0" y="-124.0"/>
      <point x="196.5875" y="-165.0"/>
      <point x="277.725" y="-165.0" type="curve"/>
      <point x="335.9125" y="-165.0" type="line" smooth="yes"/>
      <point x="346.9" y="-165.0"/>
      <point x="351.0375" y="-160.8625"/>
      <point x="351.0375" y="-149.875" type="curve"/>
      <point x="351.0375" y="-91.82499999999999" type="line" smooth="yes"/>
      <point x="351.0375" y="-82.55"/>
      <point x="345.9" y="-78.125"/>
      <point x="335.9125" y="-78.125" type="curve"/>
      <point x="306.225" y="-78.125" type="line" smooth="yes"/>
      <point x="256.225" y="-78.125"/>
      <point x="241.9375" y="-62.55"/>
      <point x="241.9375" y="-24.549999999999997" type="curve"/>
      <point x="241.9375" y="179.8125" type="line" smooth="yes"/>
      <point x="239.8" y="263.525"/>
      <point x="181.125" y="285.275"/>
      <point x="133.6875" y="289.275" type="curve"/>
      <point x="124.6875" y="290.275"/>
      <point x="125.6875" y="294.5625"/>
      <point x="133.6875" y="295.5625" type="curve"/>
      <point x="182.125" y="301.275"/>
      <point x="239.8" y="328.025"/>
      <point x="241.9375" y="399.7625" type="curve"/>
      <point x="241.9375" y="602.125" type="line" smooth="yes"/>
      <point x="241.9375" y="631.2875"/>
      <point x="247.1125" y="655.125"/>
      <point x="305.9375" y="655.125" type="curve"/>
      <point x="338.3375" y="655.125" type="line" smooth="yes"/>
      <point x="345.9" y="655.125"/>
      <point x="351.0375" y="659.2625"/>
      <point x="351.0375" y="666.825" type="curve"/>
      <point x="351.0375" y="731.3" type="line" smooth="yes"/>
      <point x="351.0375" y="738.8625"/>
      <point x="347.6125" y="742.0"/>
      <point x="338.3375" y="742.0" type="curve"/>
      <point x="275.3" y="742.0" type="line" smooth="yes"/>
      <point x="197.7375" y="742.0"/>
      <point x="116.0" y="700.4375"/>
    </contour>
  </outline>
</glyph>
<glyph name="bar" format="2">
  <advance width="251.325"/>
  <unicode hex="007C"/>
  <outline>
    <contour>
      <point x="92.075" y="-165.0" type="curve"/>
      <point x="165.2375" y="-165.0" type="line"/>
      <point x="175.225" y="-165.0"/>
      <point x="181.5" y="-159.4375"/>
      <point x="181.5" y="-149.875" type="curve"/>
      <point x="181.5" y="830.5875" type="line" smooth="yes"/>
      <point x="181.5" y="841.15"/>
      <point x="175.225" y="847.0"/>
      <point x="162.8125" y="847.0" type="curve"/>
      <point x="89.3625" y="847.0" type="line" smooth="yes"/>
      <point x="76.1" y="847.0"/>
      <point x="69.82499999999999" y="841.8625"/>
      <point x="69.82499999999999" y="826.4625" type="curve"/>
      <point x="70.1125" y="-140.05" type="line" smooth="yes"/>
      <point x="70.1125" y="-157.3"/>
      <point x="76.38749999999999" y="-165.0"/>
    </contour>
  </outline>
</glyph>
<glyph name="asciitilde" format="2">
  <advance width="608.975"/>
  <unicode hex="007E"/>
  <outline>
    <contour>
      <point x="549.2375" y="372.7125" type="curve"/>
      <point x="549.2375" y="372.7125" type="line"/>
      <point x="554.6625" y="380.5625"/>
      <point x="556.375" y="390.4"/>
      <point x="551.525" y="398.675" type="curve"/>
      <point x="525.7125" y="443.1875" type="line" smooth="yes"/>
      <point x="518.4375" y="455.175"/>
      <point x="509.7375" y="456.6"/>
      <point x="501.8875" y="445.9" type="curve"/>
      <point x="479.9" y="415.65"/>
      <point x="447.925" y="389.525"/>
      <point x="404.3375" y="389.525" type="curve"/>
      <point x="339.0375" y="389.525"/>
      <point x="297.7375" y="453.05"/>
      <point x="214.3375" y="453.05" type="curve"/>
      <point x="151.7875" y="453.05"/>
      <point x="110.1" y="417.9375"/>
      <point x="62.725" y="371.7125" type="curve"/>
      <point x="54.025" y="363.3"/>
      <point x="51.8875" y="357.025"/>
      <point x="56.025" y="349.175" type="curve"/>
      <point x="87.9625" y="295.2625" type="line" smooth="yes"/>
      <point x="92.3875" y="287.55"/>
      <point x="99.0875" y="287.55"/>
      <point x="104.8" y="293.975" type="curve"/>
      <point x="134.0625" y="325.0875"/>
      <point x="165.4875" y="356.9125"/>
      <point x="213.35" y="356.9125" type="curve"/>
      <point x="281.2125" y="356.9125"/>
      <point x="324.05" y="292.9625"/>
      <point x="406.9" y="292.9625" type="curve"/>
      <point x="462.3375" y="292.9625"/>
      <point x="517.0" y="320.6625"/>
    </contour>
  </outline>
</glyph>
<glyph name="exclamdown" format="2">
  <advance width="264.0625"/>
  <unicode hex="00A1"/>
  <outline>
    <contour>
      <point x="216.1125" y="383.475" type="curve"/>
      <point x="216.1125" y="383.475" type="line"/>
      <point x="216.1125" y="506.175" type="line" smooth="yes"/>
      <point x="216.1125" y="523.4375"/>
      <point x="208.8375" y="530.0"/>
      <point x="188.8625" y="530.0" type="curve"/>
      <point x="70.775" y="530.0" type="line" smooth="yes"/>
      <point x="54.225" y="530.0"/>
      <point x="48.6625" y="523.4375"/>
      <point x="48.6625" y="509.3125" type="curve"/>
      <point x="48.6625" y="385.1875" type="line" smooth="yes"/>
      <point x="48.6625" y="372.4875"/>
      <point x="55.225" y="366.925"/>
      <point x="64.2125" y="366.925" type="curve"/>
      <point x="201.275" y="366.925" type="line" smooth="yes"/>
      <point x="211.2625" y="366.925"/>
      <point x="216.1125" y="372.4875"/>
    </contour>
    <contour>
      <point x="221.375" y="-148.3125" type="curve"/>
      <point x="221.375" y="-148.3125" type="line"/>
      <point x="184.0125" y="275.675" type="line" smooth="yes"/>
      <point x="182.5875" y="291.65"/>
      <point x="176.025" y="297.925"/>
      <point x="157.625" y="297.925" type="curve"/>
      <point x="104.4375" y="297.925" type="line" smooth="yes"/>
      <point x="88.4625" y="297.925"/>
      <point x="85.75" y="291.65"/>
      <point x="83.6125" y="278.1" type="curve"/>
      <point x="45.1125" y="-146.6" type="line" smooth="yes"/>
      <point x="43.6875" y="-158.725"/>
      <point x="50.675" y="-165.0"/>
      <point x="60.0875" y="-165.0" type="curve"/>
      <point x="206.825" y="-165.0" type="line" smooth="yes"/>
      <point x="215.8125" y="-165.0"/>
      <point x="222.8" y="-158.4375"/>
    </contour>
  </outline>
</glyph>
